<?xml version="1.0" encoding="UTF-8"?>
<svg id="Capa_2" data-name="Capa 2" xmlns="http://www.w3.org/2000/svg" viewBox="0 0 1358.4 320.79">
  <defs>
    <style>
      .cls-1 {
        letter-spacing: 0em;
      }

      .cls-2 {
        font-family: MazzardH-Light, Mazzard;
        font-size: 69px;
        font-weight: 300;
      }

      .cls-3 {
        fill: #fffceb;
      }

      .cls-4 {
        letter-spacing: -.09em;
      }

      .cls-5 {
        fill: #ffd549;
      }

      .cls-6 {
        font-family: MazzardH-ExtraBold, Mazzard;
        font-size: 86.33px;
        font-weight: 700;
      }

      .cls-7 {
        fill: #ea5a17;
      }

      .cls-8 {
        fill: #007638;
      }
    </style>
  </defs>
  <g id="Capa_1-2" data-name="Capa 1">
    <rect class="cls-8" width="746.93" height="273.96" rx="40.19" ry="40.19"/>
    <g>
      <rect class="cls-7" x="809.29" y="62.15" width="549.11" height="90.67" rx="30.6" ry="30.6"/>
      <g>
        <path class="cls-3" d="M849.24,84.39h6.94v36.95h22.69v6.45h-29.64v-43.4Z"/>
        <path class="cls-3" d="M890.84,127.79h-6.45v-46.5h6.45v46.5Z"/>
        <path class="cls-3" d="M930.52,114.03h-26.78c.5,2.52,1.73,4.58,3.69,6.17,1.96,1.59,4.29,2.39,6.97,2.39,3.64,0,6.49-1.34,8.56-4.03l6.32,1.92c-1.49,2.52-3.54,4.51-6.17,5.95-2.62,1.45-5.53,2.17-8.71,2.17-4.96,0-9.07-1.61-12.34-4.84-3.31-3.22-4.96-7.25-4.96-12.09s1.59-8.82,4.77-12.09c3.22-3.22,7.23-4.84,12.03-4.84s8.76,1.61,11.9,4.84c3.22,3.22,4.84,7.25,4.84,12.09,0,.17-.04.95-.12,2.36ZM903.8,108.88h20.21c-.58-2.4-1.82-4.35-3.72-5.86-1.9-1.51-4.09-2.26-6.57-2.26s-4.45.75-6.29,2.26c-1.84,1.51-3.05,3.46-3.63,5.86Z"/>
        <path class="cls-3" d="M950.79,94.75c4.17,0,7.75,1.43,10.73,4.28v-3.47h6.45v31.12c0,4.5-1.57,8.27-4.71,11.28-3.14,3.06-6.94,4.59-11.41,4.59-3.31,0-6.41-.85-9.3-2.54-2.81-1.65-4.82-3.82-6.01-6.51l6.51-1.92c.7,1.32,1.84,2.41,3.41,3.25,1.57.85,3.29,1.27,5.15,1.27,2.77,0,5.12-.91,7.07-2.73,1.9-1.78,2.85-4.01,2.85-6.7v-2.36c-2.98,2.85-6.55,4.28-10.73,4.28-4.51,0-8.29-1.61-11.35-4.84-3.02-3.18-4.53-7.21-4.53-12.09s1.51-8.91,4.53-12.09c3.06-3.22,6.84-4.84,11.35-4.84ZM951.48,101.2c-2.77,0-5.11,1.01-7.01,3.04-1.9,1.94-2.85,4.42-2.85,7.44s.95,5.48,2.85,7.5c1.94,1.98,4.28,2.98,7.01,2.98s5.17-.99,7.07-2.98c1.9-2.02,2.85-4.53,2.85-7.5s-.95-5.5-2.85-7.44c-1.9-2.02-4.26-3.04-7.07-3.04Z"/>
        <path class="cls-3" d="M990.1,94.75c4.17,0,7.75,1.43,10.73,4.28v-3.47h6.45v32.24h-6.45v-3.47c-2.98,2.85-6.55,4.28-10.73,4.28-4.51,0-8.29-1.61-11.35-4.84-3.02-3.18-4.53-7.21-4.53-12.09s1.51-8.91,4.53-12.09c3.06-3.22,6.84-4.84,11.35-4.84ZM990.78,101.2c-2.77,0-5.11,1.01-7.01,3.04-1.9,1.94-2.85,4.42-2.85,7.44s.95,5.48,2.85,7.5c1.94,1.98,4.28,2.98,7.01,2.98s5.17-.99,7.07-2.98c1.9-2.02,2.85-4.53,2.85-7.5s-.95-5.5-2.85-7.44c-1.9-2.02-4.26-3.04-7.07-3.04Z"/>
        <path class="cls-3" d="M1045.9,94.75c4.17,0,7.75,1.43,10.73,4.28v-3.47h6.45v31.12c0,4.5-1.57,8.27-4.71,11.28-3.14,3.06-6.94,4.59-11.41,4.59-3.31,0-6.41-.85-9.3-2.54-2.81-1.65-4.82-3.82-6.01-6.51l6.51-1.92c.7,1.32,1.84,2.41,3.41,3.25,1.57.85,3.29,1.27,5.15,1.27,2.77,0,5.12-.91,7.07-2.73,1.9-1.78,2.85-4.01,2.85-6.7v-2.36c-2.98,2.85-6.55,4.28-10.73,4.28-4.51,0-8.29-1.61-11.35-4.84-3.02-3.18-4.53-7.21-4.53-12.09s1.51-8.91,4.53-12.09c3.06-3.22,6.84-4.84,11.35-4.84ZM1046.58,101.2c-2.77,0-5.11,1.01-7.01,3.04-1.9,1.94-2.85,4.42-2.85,7.44s.95,5.48,2.85,7.5c1.94,1.98,4.28,2.98,7.01,2.98s5.17-.99,7.07-2.98c1.9-2.02,2.85-4.53,2.85-7.5s-.95-5.5-2.85-7.44c-1.9-2.02-4.26-3.04-7.07-3.04Z"/>
        <path class="cls-3" d="M1077.21,95.55v4.71c2.44-3.68,6.26-5.52,11.47-5.52v7.19c-.74-.33-1.67-.5-2.79-.5-2.48,0-4.55.81-6.2,2.42-1.65,1.53-2.48,3.51-2.48,5.95v17.98h-6.45v-32.24h6.45Z"/>
        <path class="cls-3" d="M1106.72,94.75c4.17,0,7.75,1.43,10.73,4.28v-3.47h6.45v32.24h-6.45v-3.47c-2.98,2.85-6.55,4.28-10.73,4.28-4.51,0-8.29-1.61-11.35-4.84-3.02-3.18-4.53-7.21-4.53-12.09s1.51-8.91,4.53-12.09c3.06-3.22,6.84-4.84,11.35-4.84ZM1107.4,101.2c-2.77,0-5.11,1.01-7.01,3.04-1.9,1.94-2.85,4.42-2.85,7.44s.95,5.48,2.85,7.5c1.94,1.98,4.28,2.98,7.01,2.98s5.17-.99,7.07-2.98c1.9-2.02,2.85-4.53,2.85-7.5s-.95-5.5-2.85-7.44c-1.9-2.02-4.26-3.04-7.07-3.04Z"/>
        <path class="cls-3" d="M1128.48,101.2v-5.64h4.9v-6.39h6.45v6.39h8.56v5.64h-8.56v15.87c0,1.28.41,2.36,1.24,3.22.83.87,1.86,1.3,3.1,1.3h4.22v6.2h-4.71c-2.89,0-5.33-.93-7.32-2.79-1.98-1.94-2.98-4.3-2.98-7.07v-16.74h-4.9Z"/>
        <path class="cls-3" d="M1154.21,90.78c-.79-.83-1.18-1.84-1.18-3.04s.39-2.21,1.18-3.04c.83-.83,1.84-1.24,3.04-1.24s2.21.41,3.04,1.24c.83.83,1.24,1.84,1.24,3.04s-.41,2.21-1.24,3.04c-.83.83-1.84,1.24-3.04,1.24s-2.21-.41-3.04-1.24ZM1160.47,127.79h-6.45v-32.24h6.45v32.24Z"/>
        <path class="cls-3" d="M1191.04,102.93l-6.08,1.05c-.74-2.4-2.85-3.6-6.32-3.6-1.57,0-2.85.31-3.84.93-.99.62-1.49,1.47-1.49,2.54,0,1.41,1.03,2.48,3.1,3.22l7.25,2.48c2.77,1.03,4.78,2.29,6.04,3.78,1.26,1.49,1.89,3.33,1.89,5.52,0,3.1-1.14,5.5-3.41,7.19-2.27,1.7-5.27,2.54-8.99,2.54s-6.59-.8-8.87-2.39-3.64-3.79-4.09-6.6l6.08-.93c.29,1.28,1.05,2.31,2.29,3.1,1.24.79,2.81,1.18,4.71,1.18,1.78,0,3.23-.35,4.37-1.05,1.14-.7,1.71-1.65,1.71-2.85,0-1.53-1.3-2.77-3.91-3.72l-7.19-2.42c-2.52-.87-4.35-1.98-5.49-3.35-1.14-1.36-1.71-3.1-1.71-5.21,0-3.1,1.09-5.48,3.29-7.13,2.19-1.65,5.1-2.48,8.74-2.48,3.26,0,5.95.73,8.06,2.2,2.11,1.47,3.39,3.46,3.84,5.98Z"/>
        <path class="cls-3" d="M1214.1,127.79v-46.5h6.45v18.97c2.44-3.68,6.03-5.52,10.79-5.52,3.8,0,6.92,1.2,9.36,3.6,2.48,2.44,3.72,5.46,3.72,9.05v20.4h-6.45v-18.54c0-2.44-.81-4.42-2.42-5.95-1.61-1.61-3.64-2.42-6.08-2.42s-4.65.81-6.39,2.42c-1.7,1.61-2.54,3.62-2.54,6.01v18.48h-6.45Z"/>
        <path class="cls-3" d="M1267.55,128.6c-4.84,0-8.87-1.61-12.09-4.84-3.22-3.22-4.84-7.25-4.84-12.09s1.61-8.87,4.84-12.09,7.25-4.84,12.09-4.84,8.87,1.61,12.09,4.84c3.26,3.22,4.9,7.25,4.9,12.09s-1.63,8.87-4.9,12.09c-3.22,3.22-7.25,4.84-12.09,4.84ZM1267.55,122.15c2.98,0,5.42-.99,7.32-2.98,1.98-2.02,2.98-4.53,2.98-7.5s-.99-5.46-2.98-7.44c-1.9-2.02-4.34-3.04-7.32-3.04s-5.33,1.01-7.32,3.04c-1.94,2.03-2.91,4.51-2.91,7.44s.97,5.44,2.91,7.5c1.98,1.98,4.42,2.98,7.32,2.98Z"/>
        <path class="cls-3" d="M1297.68,130.52l1.43-3.53-12.59-31.43h6.63l9.18,23.44,9.49-23.44h6.63l-15.19,37.14c-1.28,3.14-2.96,5.43-5.02,6.88-2.07,1.45-4.71,2.17-7.94,2.17h-1.36v-6.2h1.36c1.9,0,3.43-.39,4.59-1.18,1.16-.79,2.09-2.07,2.79-3.84Z"/>
      </g>
    </g>
    <g>
      <path class="cls-5" d="M78.74,137.25l2.14-19.71c-5.64.08-11.3-.11-16.95-.02-9.2.15-22.37,1.62-31.23.41-2.92-.4-6.26-3.27-7.32-5.97-2.09-5.33,2.82-11.18,8.19-11.51l49.39-.11,2.21-19.23c-6.23-.15-12.42-.48-18.67-.45-6.58.04-20.68,2.12-25.88-1.51-7.22-5.03-2.61-15.04,5.38-15.57l41.34-.23c.53-.37,1.05-9.42,1.37-11.06,1.27-6.58,6.02-12.37,12.94-13.2l137.93.12c6.76,2.67,12.33,9.07,11.46,16.83l-2.4,17.77.47.88h37.72c4.48,0,9.67,3.98,12.44,7.28,11.27,13.47,21.41,36.56,34.3,47.57,6.69,5.71,17.73,9.05,17.34,19.08-.58,14.92-4.77,31.14-5.67,46.19-.73,3.14-7.07,7.6-9.97,7.6h-10.07v-8.36c0-9.79-9.94-21.15-18.14-25.58-26.63-14.37-59.43,6.1-65.44,33.93h-75.87v-7.07c0-8.41-7.24-18.66-13.75-23.54-23.65-17.7-55.31-3.69-66.47,21.32-.72,1.61-2.69,8.02-3.33,8.67-1.79,1.84-7.99-1.57-8.98-3.51-.68-1.33-.6-3.18-.93-4.65.2-13.15,2.88-26.13,3.87-39.24h-33.22c-1.04,0-3.99-2.48-4.73-3.42-3.44-4.4-1.55-10.72,3.37-12.94,3.39-1.53,13.14-.75,17.43-.78h19.72ZM200.76,65.41c-2.49,0-5.14,1.11-6.95,2.82l-35.35,43.94c-2.13,2.37-3.75,1.78-5.79-.2-5.21-5.04-13.65-20.48-20.6-21.4-8.04-1.07-14.45,8.47-9.79,15.36,8.74,9.44,16.34,21.35,25.25,30.47,5.35,5.48,11.06,5.86,16.52.22l45.17-56.42c3.44-6.37-1.05-14.82-8.46-14.8ZM254.91,93.96l-4.7,34.14c-.02,4.22,7.64,2.32,10.04,2.27,14.82-.29,29.86.65,44.55-.46,2.08-.83,2.43-2.06,1.64-4.12l-21.54-31.17c-2.1-1.65-13.47-1.16-16.69-1.09-4.34.27-9.06-.55-13.29.43Z"/>
      <path class="cls-5" d="M124.95,175.1c29.88-2.16,39.36,31.31,21.74,52.17-21.38,25.31-63.32,9.4-53.38-25.52,4.12-14.48,16.4-25.55,31.64-26.65ZM123.64,196.5c-14.65,2.11-17.55,23.98.7,21.71,8.15-1.01,14.17-11.12,8.63-17.96-2.03-2.5-6.17-4.2-9.33-3.75Z"/>
      <path class="cls-5" d="M286.1,175.1c27.01-1.02,36.73,25.87,23.58,47.15-19.61,31.75-68.33,16.72-56.26-21.55,4.48-14.21,17.62-25.03,32.68-25.61ZM283.09,196.94c-15.77,2.13-14.44,26.18,2.59,21.02,13.61-4.13,12.44-23.05-2.59-21.02Z"/>
      <path class="cls-5" d="M78.74,137.25h-19.72c6.57-.05,13.15.04,19.72,0Z"/>
      <path class="cls-5" d="M268.19,93.53c-.08,0-.68.44-1.45.46-3.93.12-7.91-.15-11.84-.03,4.23-.98,8.94-.16,13.29-.43Z"/>
    </g>
    <text class="cls-3" transform="translate(394.07 98.87)"><tspan class="cls-6"><tspan x="0" y="0">ENVIO</tspan></tspan><tspan class="cls-6"><tspan x="0" y="77.78">GR</tspan><tspan class="cls-4" x="125.87" y="77.78">A</tspan><tspan x="182.06" y="77.78">TIS</tspan></tspan><tspan class="cls-2"><tspan x="0" y="141.78">EXPRE</tspan><tspan class="cls-1" x="225.63" y="141.78">S</tspan><tspan x="267.92" y="141.78">S</tspan></tspan></text>
    <g>
      <path class="cls-8" d="M846.78,207.88h-21.89c.49,1.8,1.47,3.26,2.94,4.37,1.47,1.11,3.17,1.67,5.11,1.67,2.72,0,4.88-.97,6.46-2.91l6.41,1.85c-1.27,2.23-3.05,3.97-5.33,5.25-2.28,1.27-4.8,1.91-7.55,1.91-4.24,0-7.79-1.38-10.65-4.13-2.83-2.83-4.24-6.31-4.24-10.44s1.38-7.63,4.13-10.39c2.79-2.79,6.23-4.19,10.33-4.19s7.53,1.4,10.28,4.19c2.79,2.79,4.19,6.25,4.19,10.39,0,.67-.07,1.48-.21,2.44ZM824.95,202.74h15.21c-.53-1.73-1.5-3.13-2.92-4.19-1.41-1.06-3.02-1.59-4.82-1.59s-3.29.53-4.66,1.59c-1.38,1.06-2.31,2.46-2.81,4.19Z"/>
      <path class="cls-8" d="M851.07,219.22v-27.56h6.62v3.34c2.01-2.76,4.77-4.13,8.27-4.13,3.11,0,5.69,1.03,7.74,3.07,2.08,2.08,3.13,4.65,3.13,7.68v17.59h-6.62v-15.74c0-1.8-.59-3.3-1.78-4.5-1.18-1.2-2.66-1.8-4.42-1.8s-3.3.6-4.5,1.8c-1.2,1.2-1.8,2.7-1.8,4.5v15.74h-6.62Z"/>
      <path class="cls-8" d="M916.94,174.73c4.66,0,8.82,1.14,12.48,3.43,3.74,2.29,6.51,5.33,8.3,9.11l-9.61,3.56c-1.12-2.04-2.66-3.65-4.62-4.84-1.96-1.19-4.14-1.78-6.55-1.78-3.58,0-6.57,1.27-8.98,3.81-2.41,2.46-3.62,5.57-3.62,9.36s1.21,6.88,3.62,9.42c2.41,2.5,5.41,3.74,8.98,3.74,2.41,0,4.6-.59,6.55-1.78,1.96-1.19,3.49-2.8,4.62-4.84l9.61,3.56c-1.79,3.79-4.55,6.84-8.3,9.17-3.66,2.25-7.82,3.37-12.48,3.37-6.49,0-11.94-2.16-16.35-6.49-4.37-4.28-6.55-9.67-6.55-16.16s2.18-11.88,6.55-16.16c4.41-4.33,9.86-6.49,16.35-6.49Z"/>
      <path class="cls-8" d="M945.27,215.16c-3.29-3.29-4.93-7.34-4.93-12.17s1.64-8.86,4.93-12.1c3.29-3.29,7.42-4.93,12.42-4.93s9.07,1.64,12.35,4.93c3.33,3.24,4.99,7.28,4.99,12.1s-1.67,8.84-4.99,12.17c-3.33,3.24-7.45,4.87-12.35,4.87s-9.13-1.62-12.42-4.87ZM957.69,210.79c2.16,0,3.95-.75,5.37-2.25,1.5-1.54,2.25-3.39,2.25-5.55s-.75-3.99-2.25-5.49c-1.41-1.54-3.2-2.31-5.37-2.31s-3.97.75-5.43,2.25c-1.46,1.54-2.18,3.39-2.18,5.55s.73,4.01,2.18,5.55c1.46,1.5,3.26,2.25,5.43,2.25ZM954.44,182.84l-2.93-5.05,13.17-8.3,3.99,7.3-14.23,6.05Z"/>
      <path class="cls-8" d="M988.57,186.77v3.37c2.16-2.79,5.47-4.18,9.92-4.18v9.98c-.92-.58-2.04-.87-3.37-.87-1.87,0-3.43.63-4.68,1.9-1.25,1.27-1.87,2.86-1.87,4.77v17.47h-9.36v-32.45h9.36Z"/>
      <path class="cls-8" d="M999.99,202.99c0-4.91,1.46-8.96,4.37-12.17,2.91-3.24,6.57-4.87,10.98-4.87,3.33,0,6.32,1,8.98,3v-16.53h9.3v46.8h-9.3v-2.25c-2.58,2.04-5.57,3.06-8.98,3.06-4.41,0-8.07-1.62-10.98-4.87-2.91-3.29-4.37-7.34-4.37-12.17ZM1016.96,195.19c-2.04,0-3.75.75-5.15,2.25-1.39,1.5-2.09,3.33-2.09,5.49s.7,4.12,2.09,5.62c1.39,1.5,3.11,2.25,5.15,2.25s3.7-.75,5.12-2.25,2.12-3.37,2.12-5.62-.71-4.03-2.12-5.49c-1.41-1.5-3.12-2.25-5.12-2.25Z"/>
      <path class="cls-8" d="M1042.79,215.16c-3.29-3.29-4.93-7.34-4.93-12.17s1.64-8.86,4.93-12.1c3.29-3.29,7.42-4.93,12.42-4.93s9.07,1.64,12.35,4.93c3.33,3.24,4.99,7.28,4.99,12.1s-1.67,8.84-4.99,12.17c-3.33,3.24-7.45,4.87-12.35,4.87s-9.13-1.62-12.42-4.87ZM1055.21,210.79c2.16,0,3.95-.75,5.37-2.25,1.5-1.54,2.25-3.39,2.25-5.55s-.75-3.99-2.25-5.49c-1.41-1.54-3.2-2.31-5.37-2.31s-3.97.75-5.43,2.25c-1.46,1.54-2.18,3.39-2.18,5.55s.73,4.01,2.18,5.55c1.46,1.5,3.26,2.25,5.43,2.25Z"/>
      <path class="cls-8" d="M1076.74,219.22v-46.8h9.36v16.53c2.58-2,5.55-3,8.92-3,4.37,0,8.03,1.62,10.98,4.87,2.95,3.29,4.43,7.34,4.43,12.17s-1.48,8.84-4.43,12.17c-2.95,3.24-6.61,4.87-10.98,4.87-3.29,0-6.26-1-8.92-2.99v2.18h-9.36ZM1093.46,195.19c-2.04,0-3.75.75-5.15,2.25-1.39,1.5-2.09,3.33-2.09,5.49s.7,4.12,2.09,5.62c1.39,1.5,3.11,2.25,5.15,2.25s3.69-.75,5.08-2.25c1.39-1.5,2.09-3.37,2.09-5.62s-.71-4.03-2.12-5.49c-1.37-1.5-3.06-2.25-5.05-2.25Z"/>
      <path class="cls-8" d="M1113.61,202.99c0-4.91,1.46-8.96,4.37-12.17,2.91-3.24,6.57-4.87,10.98-4.87,3.33,0,6.32,1,8.98,3v-2.18h9.3v32.45h-9.3v-2.25c-2.58,2.04-5.57,3.06-8.98,3.06-4.41,0-8.07-1.62-10.98-4.87-2.91-3.29-4.37-7.34-4.37-12.17ZM1130.58,195.19c-2.04,0-3.75.75-5.15,2.25-1.39,1.5-2.09,3.33-2.09,5.49s.7,4.12,2.09,5.62c1.39,1.5,3.11,2.25,5.15,2.25s3.7-.75,5.12-2.25,2.12-3.37,2.12-5.62-.71-4.03-2.12-5.49c-1.41-1.5-3.12-2.25-5.12-2.25Z"/>
      <path class="cls-8" d="M1183.83,181.43c3.71,0,7.08.9,10.1,2.7s5.34,4.26,6.97,7.37l-5.78,2.12c-1.17-2.01-2.74-3.59-4.72-4.74-1.98-1.15-4.17-1.72-6.57-1.72-3.75,0-6.85,1.29-9.33,3.87-2.51,2.61-3.76,5.83-3.76,9.64s1.25,7.03,3.76,9.65c2.47,2.58,5.58,3.87,9.33,3.87,2.4,0,4.59-.57,6.57-1.72,1.98-1.15,3.55-2.73,4.72-4.74l5.78,2.12c-1.63,3.11-3.95,5.56-6.97,7.37s-6.39,2.7-10.1,2.7c-5.48,0-10.05-1.84-13.72-5.51-3.67-3.67-5.51-8.25-5.51-13.73s1.84-10.05,5.51-13.73,8.25-5.51,13.72-5.51Z"/>
      <path class="cls-8" d="M1218.12,190.97c3.57,0,6.62,1.22,9.17,3.66v-2.97h5.51v27.56h-5.51v-2.97c-2.54,2.44-5.6,3.66-9.17,3.66-3.85,0-7.08-1.38-9.7-4.13-2.58-2.72-3.87-6.17-3.87-10.33s1.29-7.61,3.87-10.33c2.61-2.76,5.85-4.13,9.7-4.13ZM1218.7,196.48c-2.37,0-4.36.87-5.99,2.6-1.62,1.66-2.44,3.78-2.44,6.36s.81,4.68,2.44,6.41c1.66,1.7,3.66,2.54,5.99,2.54s4.42-.85,6.04-2.54c1.62-1.73,2.44-3.87,2.44-6.41s-.81-4.7-2.44-6.36c-1.62-1.73-3.64-2.6-6.04-2.6Z"/>
      <path class="cls-8" d="M1244.88,231.14h-5.51v-39.48h5.51v2.97c2.54-2.44,5.6-3.66,9.17-3.66,3.85,0,7.08,1.38,9.7,4.13,2.58,2.72,3.87,6.17,3.87,10.33s-1.29,7.61-3.87,10.33c-2.61,2.76-5.85,4.13-9.7,4.13-3.57,0-6.62-1.22-9.17-3.66v14.89ZM1253.41,196.48c-2.37,0-4.36.87-5.99,2.6-1.63,1.66-2.44,3.78-2.44,6.36s.81,4.68,2.44,6.41c1.62,1.7,3.62,2.54,5.99,2.54s4.38-.85,6.04-2.54c1.62-1.73,2.44-3.87,2.44-6.41s-.81-4.7-2.44-6.36c-1.62-1.73-3.64-2.6-6.04-2.6Z"/>
      <path class="cls-8" d="M1273.12,187.58c-.67-.71-1.01-1.57-1.01-2.6s.34-1.89,1.01-2.6c.71-.71,1.57-1.06,2.6-1.06s1.89.35,2.6,1.06c.71.71,1.06,1.57,1.06,2.6s-.35,1.89-1.06,2.6c-.71.71-1.57,1.06-2.6,1.06s-1.89-.35-2.6-1.06ZM1278.47,219.22h-5.51v-27.56h5.51v27.56Z"/>
      <path class="cls-8" d="M1282.4,196.48v-4.82h4.19v-5.46h5.51v5.46h7.31v4.82h-7.31v13.57c0,1.1.35,2.01,1.06,2.76.71.74,1.59,1.11,2.65,1.11h3.6v5.3h-4.03c-2.47,0-4.56-.79-6.25-2.38-1.7-1.66-2.54-3.67-2.54-6.04v-14.31h-4.19Z"/>
      <path class="cls-8" d="M1316.47,190.97c3.57,0,6.62,1.22,9.17,3.66v-2.97h5.51v27.56h-5.51v-2.97c-2.54,2.44-5.6,3.66-9.17,3.66-3.85,0-7.08-1.38-9.7-4.13-2.58-2.72-3.87-6.17-3.87-10.33s1.29-7.61,3.87-10.33c2.61-2.76,5.85-4.13,9.7-4.13ZM1317.05,196.48c-2.37,0-4.36.87-5.99,2.6-1.62,1.66-2.44,3.78-2.44,6.36s.81,4.68,2.44,6.41c1.66,1.7,3.66,2.54,5.99,2.54s4.42-.85,6.04-2.54c1.62-1.73,2.44-3.87,2.44-6.41s-.81-4.7-2.44-6.36c-1.62-1.73-3.64-2.6-6.04-2.6Z"/>
      <path class="cls-8" d="M1343.23,219.22h-5.51v-39.75h5.51v39.75Z"/>
      <path class="cls-8" d="M1349.7,218.9c-.67-.71-1.01-1.59-1.01-2.65s.33-1.94,1.01-2.65c.71-.71,1.59-1.06,2.65-1.06s1.94.35,2.65,1.06c.71.71,1.06,1.59,1.06,2.65s-.35,1.94-1.06,2.65c-.71.67-1.59,1.01-2.65,1.01s-1.94-.34-2.65-1.01Z"/>
    </g>
  </g>
</svg>