<?xml version="1.0" encoding="UTF-8"?>
<svg id="favicon-pincel-pinteya" xmlns="http://www.w3.org/2000/svg" viewBox="0 0 32 32">
  <defs>
    <style>
      .pincel-mango { fill: #ea5a17; }
      .pincel-virola { fill: #c0c0c0; }
      .pincel-cerdas { fill: #ffd600; }
      .pincel-detalle { fill: #ffffff; }
    </style>
  </defs>

  <!-- Fondo -->
  <rect width="32" height="32" fill="#ffffff" rx="4"/>

  <!-- Pincel simplificado para favicon -->
  <g transform="translate(16, 16)">
    <!-- Mango del pincel -->
    <path class="pincel-mango" d="M-2,-14 L2,-14 L3,-4 L-3,-4 Z"/>

    <!-- Virola (parte metálica) -->
    <rect class="pincel-virola" x="-3" y="-4" width="6" height="2"/>

    <!-- Cerdas del pincel -->
    <path class="pincel-cerdas" d="M-2.5,-2 L-1,-2 L-1.5,6 L-2.5,-2 Z"/>
    <path class="pincel-cerdas" d="M-1,-2 L0,-2 L0,8 L-1,-2 Z"/>
    <path class="pincel-cerdas" d="M0,-2 L1,-2 L0,8 L0,-2 Z"/>
    <path class="pincel-cerdas" d="M1,-2 L2.5,-2 L1.5,6 L1,-2 Z"/>

    <!-- Detalles del mango -->
    <rect class="pincel-detalle" x="-1.5" y="-10" width="3" height="0.5"/>
    <rect class="pincel-detalle" x="-1.5" y="-7" width="3" height="0.5"/>
  </g>

  <!-- Borde sutil -->
  <rect width="32" height="32" fill="none" stroke="#ea5a17" stroke-width="0.5" rx="4"/>
</svg>
