<svg width="82" height="62" viewBox="0 0 82 62" fill="none" xmlns="http://www.w3.org/2000/svg">
  <!-- Bandeja de pintura -->
  <path d="M15 35 L35 35 L38 45 L12 45 Z" fill="#E5E5E5" stroke="#B0B0B0"/>
  <rect x="16" y="36" width="18" height="7" fill="#F0F0F0"/>
  
  <!-- Espátula -->
  <rect x="45" y="15" width="2" height="20" fill="#8B4513"/>
  <path d="M44 35 L48 35 L49 40 L43 40 Z" fill="#C0C0C0" stroke="#A0A0A0"/>
  
  <!-- Cinta de pintor -->
  <ellipse cx="60" cy="25" rx="8" ry="8" fill="#87CEEB" stroke="#4682B4"/>
  <ellipse cx="60" cy="25" rx="4" ry="4" fill="white"/>
  <rect x="58" y="23" width="4" height="4" fill="#87CEEB"/>
  
  <!-- Guantes -->
  <path d="M20 50 C18 48, 18 52, 20 54 C22 52, 25 52, 27 54 C29 52, 29 48, 27 50 C25 48, 22 48, 20 50" fill="#FFD700" stroke="#FFA500"/>
  <path d="M35 50 C33 48, 33 52, 35 54 C37 52, 40 52, 42 54 C44 52, 44 48, 42 50 C40 48, 37 48, 35 50" fill="#FFD700" stroke="#FFA500"/>
</svg>
