<svg width="200" height="200" viewBox="0 0 200 200" fill="none" xmlns="http://www.w3.org/2000/svg">
  <!-- Sombra del carrito -->
  <ellipse cx="100" cy="180" rx="70" ry="12" fill="#000000" opacity="0.15"/>
  
  <!-- Base del carrito (perspectiva isométrica) -->
  <path d="M30 120 L30 140 L140 140 L140 120 L30 120" fill="#f59e0b" stroke="#ea5a17" stroke-width="2"/>
  
  <!-- Lado izquierdo de la base -->
  <path d="M30 120 L20 110 L20 130 L30 140 L30 120" fill="#f97316" stroke="#ea5a17" stroke-width="1"/>
  
  <!-- Lado derecho de la base -->
  <path d="M140 120 L150 110 L150 130 L140 140 L140 120" fill="#f97316" stroke="#ea5a17" stroke-width="1"/>
  
  <!-- Canasta principal del carrito -->
  <rect x="35" y="80" width="100" height="40" rx="4" fill="#e5e7eb" stroke="#9ca3af" stroke-width="2"/>
  
  <!-- Lado izquierdo de la canasta -->
  <path d="M35 80 L25 70 L25 110 L35 120 L35 80" fill="#d1d5db" stroke="#9ca3af" stroke-width="1"/>
  
  <!-- Lado derecho de la canasta -->
  <path d="M135 80 L145 70 L145 110 L135 120 L135 80" fill="#d1d5db" stroke="#9ca3af" stroke-width="1"/>
  
  <!-- Rejilla metálica de la canasta (patrón) -->
  <!-- Líneas verticales -->
  <line x1="45" y1="85" x2="45" y2="115" stroke="#9ca3af" stroke-width="1" opacity="0.6"/>
  <line x1="55" y1="85" x2="55" y2="115" stroke="#9ca3af" stroke-width="1" opacity="0.6"/>
  <line x1="65" y1="85" x2="65" y2="115" stroke="#9ca3af" stroke-width="1" opacity="0.6"/>
  <line x1="75" y1="85" x2="75" y2="115" stroke="#9ca3af" stroke-width="1" opacity="0.6"/>
  <line x1="85" y1="85" x2="85" y2="115" stroke="#9ca3af" stroke-width="1" opacity="0.6"/>
  <line x1="95" y1="85" x2="95" y2="115" stroke="#9ca3af" stroke-width="1" opacity="0.6"/>
  <line x1="105" y1="85" x2="105" y2="115" stroke="#9ca3af" stroke-width="1" opacity="0.6"/>
  <line x1="115" y1="85" x2="115" y2="115" stroke="#9ca3af" stroke-width="1" opacity="0.6"/>
  <line x1="125" y1="85" x2="125" y2="115" stroke="#9ca3af" stroke-width="1" opacity="0.6"/>
  
  <!-- Líneas horizontales -->
  <line x1="40" y1="90" x2="130" y2="90" stroke="#9ca3af" stroke-width="1" opacity="0.6"/>
  <line x1="40" y1="100" x2="130" y2="100" stroke="#9ca3af" stroke-width="1" opacity="0.6"/>
  <line x1="40" y1="110" x2="130" y2="110" stroke="#9ca3af" stroke-width="1" opacity="0.6"/>
  
  <!-- Borde superior de la canasta (naranja) -->
  <rect x="35" y="80" width="100" height="6" rx="3" fill="#ea5a17"/>
  <path d="M35 80 L25 70 L125 70 L135 80 L35 80" fill="#f97316"/>
  
  <!-- Mango del carrito -->
  <rect x="145" y="60" width="8" height="60" rx="4" fill="#ea5a17"/>
  <rect x="140" y="60" width="18" height="8" rx="4" fill="#ea5a17"/>
  
  <!-- Rueda izquierda -->
  <circle cx="55" cy="155" r="18" fill="#374151" stroke="#1f2937" stroke-width="2"/>
  <circle cx="55" cy="155" r="12" fill="#4b5563"/>
  <circle cx="55" cy="155" r="6" fill="#6b7280"/>
  <circle cx="55" cy="155" r="3" fill="#374151"/>
  
  <!-- Rueda derecha -->
  <circle cx="115" cy="155" r="18" fill="#374151" stroke="#1f2937" stroke-width="2"/>
  <circle cx="115" cy="155" r="12" fill="#4b5563"/>
  <circle cx="115" cy="155" r="6" fill="#6b7280"/>
  <circle cx="115" cy="155" r="3" fill="#374151"/>
  
  <!-- Detalles de las ruedas (rayos) -->
  <line x1="55" y1="143" x2="55" y2="167" stroke="#6b7280" stroke-width="1"/>
  <line x1="43" y1="155" x2="67" y2="155" stroke="#6b7280" stroke-width="1"/>
  <line x1="115" y1="143" x2="115" y2="167" stroke="#6b7280" stroke-width="1"/>
  <line x1="103" y1="155" x2="127" y2="155" stroke="#6b7280" stroke-width="1"/>
  
  <!-- Eje de las ruedas -->
  <rect x="50" y="153" width="70" height="4" rx="2" fill="#4b5563"/>
</svg>
