<svg width="82" height="62" viewBox="0 0 82 62" fill="none" xmlns="http://www.w3.org/2000/svg">
  <!-- Espátula 1 -->
  <rect x="15" y="20" width="2" height="15" fill="#8B4513"/>
  <path d="M14 35 L18 35 L19 42 L13 42 Z" fill="#C0C0C0" stroke="#A0A0A0"/>
  
  <!-- Espátula 2 -->
  <rect x="25" y="18" width="2" height="17" fill="#8B4513"/>
  <path d="M23 35 L28 35 L30 45 L21 45 Z" fill="#C0C0C0" stroke="#A0A0A0"/>
  
  <!-- Espátula 3 -->
  <rect x="35" y="22" width="2" height="13" fill="#8B4513"/>
  <path d="M34 35 L38 35 L39 40 L33 40 Z" fill="#C0C0C0" stroke="#A0A0A0"/>
  
  <!-- Espátula flexible -->
  <rect x="50" y="15" width="2" height="20" fill="#D2691E"/>
  <path d="M48 35 L54 35 L55 48 L47 48 Z" fill="#E6E6FA" stroke="#D8BFD8"/>
  
  <!-- Espátula ancha -->
  <rect x="60" y="25" width="2" height="10" fill="#8B4513"/>
  <path d="M57 35 L65 35 L66 42 L56 42 Z" fill="#C0C0C0" stroke="#A0A0A0"/>
</svg>
