<svg width="82" height="62" viewBox="0 0 82 62" fill="none" xmlns="http://www.w3.org/2000/svg">
  <!-- Spray de pintura especial -->
  <rect x="30" y="15" width="12" height="30" rx="6" fill="#FF6347" stroke="#DC143C" stroke-width="2"/>
  
  <!-- Boquilla -->
  <rect x="34" y="12" width="4" height="5" fill="#696969"/>
  <rect x="35" y="10" width="2" height="4" fill="#A0A0A0"/>
  
  <!-- Etiqueta especial -->
  <rect x="32" y="22" width="8" height="15" rx="1" fill="#FFD700" stroke="#FFA500"/>
  <polygon points="36,25 34,27 38,27" fill="#FF6347"/>
  <line x1="33" y1="30" x2="39" y2="30" stroke="#FF6347" stroke-width="0.5"/>
  <line x1="33" y1="32" x2="38" y2="32" stroke="#FF6347" stroke-width="0.5"/>
  <line x1="33" y1="34" x2="39" y2="34" stroke="#FF6347" stroke-width="0.5"/>
  
  <!-- Lata de pintura metálica -->
  <rect x="50" y="18" width="20" height="25" rx="2" fill="#C0C0C0" stroke="#A0A0A0" stroke-width="2"/>
  <ellipse cx="60" cy="18" rx="10" ry="2" fill="#E6E6E6"/>
  
  <!-- Etiqueta metálica -->
  <rect x="52" y="25" width="16" height="12" rx="1" fill="#FFD700" stroke="#FFA500"/>
  <circle cx="60" cy="31" r="2" fill="#C0C0C0"/>
  <circle cx="60" cy="31" r="1" fill="#FFD700"/>
  
  <!-- Pintura texturizada -->
  <rect x="10" y="20" width="15" height="22" rx="2" fill="#8A2BE2" stroke="#6A1B9A" stroke-width="2"/>
  <rect x="12" y="27" width="11" height="10" rx="1" fill="white" stroke="#6A1B9A"/>
  <circle cx="17.5" cy="30" r="1" fill="#8A2BE2"/>
  <circle cx="15" cy="32" r="0.5" fill="#8A2BE2"/>
  <circle cx="20" cy="34" r="0.5" fill="#8A2BE2"/>
  <circle cx="16" cy="35" r="0.5" fill="#8A2BE2"/>
</svg>
