<svg width="82" height="62" viewBox="0 0 82 62" fill="none" xmlns="http://www.w3.org/2000/svg">
  <!-- Mango extensible -->
  <rect x="20" y="10" width="4" height="40" fill="#FFD700" stroke="#FFA500"/>
  
  <!-- Secciones del mango -->
  <line x1="20" y1="20" x2="24" y2="20" stroke="#FFA500" stroke-width="1"/>
  <line x1="20" y1="30" x2="24" y2="30" stroke="#FFA500" stroke-width="1"/>
  <line x1="20" y1="40" x2="24" y2="40" stroke="#FFA500" stroke-width="1"/>
  
  <!-- Conexión superior -->
  <rect x="18" y="8" width="8" height="4" rx="2" fill="#696969"/>
  
  <!-- Rodillo en el extremo -->
  <rect x="30" y="15" width="15" height="8" rx="4" fill="#F5F5DC" stroke="#D3D3D3"/>
  <line x1="32" y1="17" x2="32" y2="21" stroke="#D3D3D3" stroke-width="0.5"/>
  <line x1="35" y1="17" x2="35" y2="21" stroke="#D3D3D3" stroke-width="0.5"/>
  <line x1="38" y1="17" x2="38" y2="21" stroke="#D3D3D3" stroke-width="0.5"/>
  <line x1="41" y1="17" x2="41" y2="21" stroke="#D3D3D3" stroke-width="0.5"/>
  <line x1="43" y1="17" x2="43" y2="21" stroke="#D3D3D3" stroke-width="0.5"/>
  
  <!-- Empuñadura -->
  <rect x="16" y="45" width="12" height="6" rx="3" fill="#8B4513"/>
  <rect x="18" y="47" width="8" height="2" fill="#A0522D"/>
  
  <!-- Indicador de extensión -->
  <circle cx="50" cy="19" r="2" fill="#32CD32"/>
  <path d="M48 19 L50 21 L52 17" stroke="white" stroke-width="1" fill="none"/>
</svg>
