<svg width="82" height="62" viewBox="0 0 82 62" fill="none" xmlns="http://www.w3.org/2000/svg">
  <!-- Lata de látex -->
  <rect x="20" y="15" width="42" height="35" rx="3" fill="#FFFFFF" stroke="#E0E0E0" stroke-width="2"/>
  <rect x="22" y="17" width="38" height="8" fill="#F8F8FF"/>
  <ellipse cx="41" cy="15" rx="21" ry="3" fill="#F8F8FF"/>
  
  <!-- Etiqueta de látex -->
  <rect x="25" y="28" width="32" height="18" rx="2" fill="#87CEEB" stroke="#4682B4"/>
  <text x="41" y="34" text-anchor="middle" font-family="Arial" font-size="8" fill="white" font-weight="bold">LÁTEX</text>
  <line x1="28" y1="38" x2="54" y2="38" stroke="white" stroke-width="1"/>
  <line x1="28" y1="41" x2="50" y2="41" stroke="white" stroke-width="1"/>
  <line x1="28" y1="44" x2="52" y2="44" stroke="white" stroke-width="1"/>
  
  <!-- Símbolo de lavable -->
  <circle cx="50" cy="32" r="3" fill="white"/>
  <path d="M48 32 L50 34 L52 30" stroke="#4682B4" stroke-width="1" fill="none"/>
  
  <!-- Asa -->
  <path d="M62 25 C68 25, 68 35, 62 35" stroke="#E0E0E0" stroke-width="2" fill="none"/>
  
  <!-- Indicador ecológico -->
  <circle cx="15" cy="25" r="4" fill="#32CD32"/>
  <path d="M13 25 L15 27 L17 23" stroke="white" stroke-width="1" fill="none"/>
</svg>
