<svg width="82" height="62" viewBox="0 0 82 62" fill="none" xmlns="http://www.w3.org/2000/svg">
  <!-- Hoja de lija -->
  <rect x="15" y="15" width="25" height="35" fill="#DEB887" stroke="#CD853F" stroke-width="2"/>
  
  <!-- Textura de lija -->
  <circle cx="18" cy="18" r="0.5" fill="#8B4513"/>
  <circle cx="22" cy="20" r="0.5" fill="#8B4513"/>
  <circle cx="26" cy="18" r="0.5" fill="#8B4513"/>
  <circle cx="30" cy="21" r="0.5" fill="#8B4513"/>
  <circle cx="34" cy="19" r="0.5" fill="#8B4513"/>
  <circle cx="37" cy="22" r="0.5" fill="#8B4513"/>
  <circle cx="20" cy="25" r="0.5" fill="#8B4513"/>
  <circle cx="24" cy="27" r="0.5" fill="#8B4513"/>
  <circle cx="28" cy="25" r="0.5" fill="#8B4513"/>
  <circle cx="32" cy="28" r="0.5" fill="#8B4513"/>
  <circle cx="36" cy="26" r="0.5" fill="#8B4513"/>
  <circle cx="19" cy="32" r="0.5" fill="#8B4513"/>
  <circle cx="23" cy="34" r="0.5" fill="#8B4513"/>
  <circle cx="27" cy="32" r="0.5" fill="#8B4513"/>
  <circle cx="31" cy="35" r="0.5" fill="#8B4513"/>
  <circle cx="35" cy="33" r="0.5" fill="#8B4513"/>
  <circle cx="21" cy="39" r="0.5" fill="#8B4513"/>
  <circle cx="25" cy="41" r="0.5" fill="#8B4513"/>
  <circle cx="29" cy="39" r="0.5" fill="#8B4513"/>
  <circle cx="33" cy="42" r="0.5" fill="#8B4513"/>
  <circle cx="37" cy="40" r="0.5" fill="#8B4513"/>
  <circle cx="18" cy="46" r="0.5" fill="#8B4513"/>
  <circle cx="22" cy="48" r="0.5" fill="#8B4513"/>
  <circle cx="26" cy="46" r="0.5" fill="#8B4513"/>
  <circle cx="30" cy="49" r="0.5" fill="#8B4513"/>
  <circle cx="34" cy="47" r="0.5" fill="#8B4513"/>
  
  <!-- Disco de lija -->
  <circle cx="55" cy="30" r="12" fill="#DEB887" stroke="#CD853F" stroke-width="2"/>
  <circle cx="55" cy="30" r="2" fill="#696969"/>
  
  <!-- Textura del disco -->
  <circle cx="50" cy="25" r="0.5" fill="#8B4513"/>
  <circle cx="53" cy="23" r="0.5" fill="#8B4513"/>
  <circle cx="57" cy="24" r="0.5" fill="#8B4513"/>
  <circle cx="60" cy="26" r="0.5" fill="#8B4513"/>
  <circle cx="62" cy="30" r="0.5" fill="#8B4513"/>
  <circle cx="60" cy="34" r="0.5" fill="#8B4513"/>
  <circle cx="57" cy="36" r="0.5" fill="#8B4513"/>
  <circle cx="53" cy="37" r="0.5" fill="#8B4513"/>
  <circle cx="50" cy="35" r="0.5" fill="#8B4513"/>
  <circle cx="48" cy="30" r="0.5" fill="#8B4513"/>
</svg>
