<svg width="82" height="62" viewBox="0 0 82 62" fill="none" xmlns="http://www.w3.org/2000/svg">
  <!-- Pincel 1 -->
  <rect x="15" y="10" width="3" height="25" fill="#8B4513"/>
  <rect x="14" y="35" width="5" height="8" fill="#D2691E"/>
  <path d="M16.5 43 L16.5 50" stroke="#4A4A4A" stroke-width="8" stroke-linecap="round"/>
  
  <!-- Pincel 2 -->
  <rect x="25" y="8" width="3" height="27" fill="#8B4513"/>
  <rect x="24" y="35" width="5" height="8" fill="#D2691E"/>
  <path d="M26.5 43 L26.5 52" stroke="#4A4A4A" stroke-width="8" stroke-linecap="round"/>
  
  <!-- Pincel 3 -->
  <rect x="35" y="12" width="3" height="23" fill="#8B4513"/>
  <rect x="34" y="35" width="5" height="8" fill="#D2691E"/>
  <path d="M36.5 43 L36.5 48" stroke="#4A4A4A" stroke-width="8" stroke-linecap="round"/>
  
  <!-- Pincel 4 -->
  <rect x="45" y="6" width="3" height="29" fill="#8B4513"/>
  <rect x="44" y="35" width="5" height="8" fill="#D2691E"/>
  <path d="M46.5 43 L46.5 54" stroke="#4A4A4A" stroke-width="8" stroke-linecap="round"/>
  
  <!-- Pincel 5 -->
  <rect x="55" y="14" width="3" height="21" fill="#8B4513"/>
  <rect x="54" y="35" width="5" height="8" fill="#D2691E"/>
  <path d="M56.5 43 L56.5 46" stroke="#4A4A4A" stroke-width="8" stroke-linecap="round"/>
</svg>
