<svg width="82" height="62" viewBox="0 0 82 62" fill="none" xmlns="http://www.w3.org/2000/svg">
  <!-- Cuerpo de la pistola -->
  <rect x="15" y="25" width="35" height="12" rx="6" fill="#4169E1" stroke="#1E3A8A" stroke-width="2"/>
  
  <!-- Mango -->
  <rect x="45" y="30" width="8" height="15" rx="4" fill="#4169E1" stroke="#1E3A8A" stroke-width="2"/>
  
  <!-- Gatillo -->
  <path d="M48 37 C46 39, 46 42, 48 44 C50 42, 50 39, 48 37" fill="#FFD700" stroke="#FFA500"/>
  
  <!-- Boquilla -->
  <rect x="10" y="28" width="8" height="6" rx="3" fill="#696969"/>
  <rect x="6" y="30" width="6" height="2" fill="#A0A0A0"/>
  
  <!-- Depósito superior -->
  <ellipse cx="30" cy="20" rx="8" ry="6" fill="#E6E6FA" stroke="#9370DB" stroke-width="2"/>
  <rect x="28" y="20" width="4" height="5" fill="#9370DB"/>
  
  <!-- Manguera -->
  <path d="M50 45 Q55 50, 60 45 Q65 40, 70 45" stroke="#000000" stroke-width="3" fill="none"/>
  
  <!-- Conexión de aire -->
  <circle cx="70" cy="45" r="3" fill="#696969"/>
  <circle cx="70" cy="45" r="1" fill="#A0A0A0"/>
  
  <!-- Indicadores -->
  <circle cx="25" cy="31" r="1" fill="#32CD32"/>
  <circle cx="35" cy="31" r="1" fill="#FF4500"/>
</svg>
