<svg width="82" height="62" viewBox="0 0 82 62" fill="none" xmlns="http://www.w3.org/2000/svg">
  <!-- Lata de imprimación -->
  <rect x="15" y="18" width="25" height="28" rx="2" fill="#F5F5DC" stroke="#D3D3D3" stroke-width="2"/>
  <ellipse cx="27.5" cy="18" rx="12.5" ry="2" fill="#FFFFFF"/>
  
  <!-- Etiqueta de imprimación -->
  <rect x="17" y="25" width="21" height="15" rx="1" fill="white" stroke="#D3D3D3"/>
  <line x1="19" y1="29" x2="36" y2="29" stroke="#696969" stroke-width="1"/>
  <line x1="19" y1="32" x2="33" y2="32" stroke="#696969" stroke-width="1"/>
  <line x1="19" y1="35" x2="35" y2="35" stroke="#696969" stroke-width="1"/>
  <line x1="19" y1="38" x2="30" y2="38" stroke="#696969" stroke-width="1"/>
  
  <!-- Masilla -->
  <rect x="45" y="20" width="18" height="22" rx="2" fill="#DEB887" stroke="#CD853F" stroke-width="2"/>
  <rect x="47" y="27" width="14" height="10" rx="1" fill="white" stroke="#CD853F"/>
  <circle cx="54" cy="32" r="2" fill="#DEB887"/>
  
  <!-- Espátula para masilla -->
  <rect x="50" y="15" width="1.5" height="8" fill="#8B4513"/>
  <path d="M49 23 L52 23 L52.5 27 L48.5 27 Z" fill="#C0C0C0" stroke="#A0A0A0"/>
  
  <!-- Sellador -->
  <rect x="68" y="25" width="8" height="20" rx="4" fill="#32CD32" stroke="#228B22" stroke-width="2"/>
  <rect x="70" y="22" width="4" height="5" fill="#696969"/>
  <circle cx="72" cy="20" r="1" fill="#A0A0A0"/>
</svg>
