<svg width="82" height="62" viewBox="0 0 82 62" fill="none" xmlns="http://www.w3.org/2000/svg">
  <!-- Casco de seguridad -->
  <path d="M15 25 C15 20, 20 15, 30 15 C40 15, 45 20, 45 25 L45 35 C45 38, 42 40, 30 40 C18 40, 15 38, 15 35 Z" fill="#FFD700" stroke="#FFA500" stroke-width="2"/>
  <ellipse cx="30" cy="22" rx="8" ry="3" fill="#FFFF99"/>
  
  <!-- Gafas de seguridad -->
  <ellipse cx="20" cy="50" rx="6" ry="4" fill="#87CEEB" stroke="#4682B4" stroke-width="1"/>
  <ellipse cx="35" cy="50" rx="6" ry="4" fill="#87CEEB" stroke="#4682B4" stroke-width="1"/>
  <path d="M26 50 L29 50" stroke="#4682B4" stroke-width="2"/>
  <path d="M14 50 L10 52" stroke="#4682B4" stroke-width="2"/>
  <path d="M41 50 L45 52" stroke="#4682B4" stroke-width="2"/>
  
  <!-- Guantes de protección -->
  <path d="M55 20 C53 18, 53 22, 55 24 C57 22, 60 22, 62 24 C64 22, 64 18, 62 20 C60 18, 57 18, 55 20" fill="#FF6347" stroke="#DC143C"/>
  <path d="M65 20 C63 18, 63 22, 65 24 C67 22, 70 22, 72 24 C74 22, 74 18, 72 20 C70 18, 67 18, 65 20" fill="#FF6347" stroke="#DC143C"/>
  
  <!-- Mascarilla -->
  <ellipse cx="60" cy="40" rx="8" ry="6" fill="white" stroke="#D3D3D3" stroke-width="2"/>
  <circle cx="57" cy="38" r="1" fill="#D3D3D3"/>
  <circle cx="63" cy="38" r="1" fill="#D3D3D3"/>
  <path d="M55 42 L65 42" stroke="#D3D3D3" stroke-width="1"/>
  <path d="M52 40 L50 42" stroke="#D3D3D3" stroke-width="1"/>
  <path d="M68 40 L70 42" stroke="#D3D3D3" stroke-width="1"/>
</svg>
