<?xml version="1.0" encoding="UTF-8"?>
<svg id="Capa_2" data-name="Capa 2" xmlns="http://www.w3.org/2000/svg" viewBox="0 0 144.33 70.4">
  <defs>
    <style>
      .cls-1 {
        fill: #15130e;
        fill-rule: evenodd;
      }

      .cls-2 {
        fill: #ef7d00;
      }
    </style>
  </defs>
  <g id="Capa_1-2" data-name="Capa 1">
    <path class="cls-2" d="M81.27,67.91c.13-.52.4-1.07.8-1.65.4-.58.9-1.2,1.49-1.85.6-.65,1.27-1.35,2.03-2.08.76-.73,1.55-1.5,2.38-2.31,1.57-1.52,3.21-3.1,4.93-4.75s3.39-3.33,5.01-5.04c.69-.74,1.24-1.35,1.66-1.82.42-.47.74-.85.97-1.15.23-.3.39-.55.49-.76.1-.21.19-.41.26-.61-.58-1.03-1.03-2.18-1.36-3.44-.33-1.26-.57-2.6-.72-4-.15-1.41-.25-2.84-.28-4.29-.04-1.46-.06-2.88-.06-4.28-.02-1.27-.01-2.56,0-3.86.02-1.3-.1-2.4-.37-3.29-.21-.68-.35-1.39-.43-2.14s0-1.6.25-2.57c.11-.41.28-.91.51-1.48.24-.57.54-1.12.9-1.64.36-.52.78-.98,1.25-1.39.47-.4.99-.65,1.56-.75.61-.1,1.11.02,1.53.37.41.35.74.82.99,1.42.25.6.42,1.26.51,1.98.09.73.14,1.4.14,2.03-.03.9-.07,2.03-.13,3.38-.05,1.35-.12,2.73-.19,4.14-.07,1.41-.13,2.75-.17,4.01-.04,1.26-.05,2.27-.02,3.01.02.94.08,1.81.17,2.62.09.81.22,1.5.37,2.07.15.57.34,1.01.55,1.32.21.31.45.44.72.4.21-.04.61-.38,1.2-1.05,2.32-2.67,4.75-5.52,7.3-8.55,2.54-3.03,5.03-6.03,7.47-8.99.9-1.09,1.71-2.09,2.42-3.01.71-.91,1.37-1.78,1.97-2.6.6-.82,1.16-1.62,1.67-2.38.51-.77,1.01-1.53,1.49-2.3l1.69-3.58c.17-.36.4-.74.7-1.14.29-.39.6-.76.94-1.1.34-.34.7-.63,1.09-.87.39-.24.8-.4,1.22-.47.54-.09.98-.06,1.32.11.34.16.59.41.74.74.16.33.23.73.23,1.2,0,.47-.07.97-.2,1.49-.15.59-.43,1.29-.85,2.09-.42.8-.9,1.64-1.46,2.5-.56.87-1.16,1.73-1.8,2.59-.64.86-1.25,1.64-1.83,2.35-4.13,4.96-8.32,9.99-12.57,15.08-4.25,5.09-8.5,10.01-12.75,14.73-3.78,4.21-7.42,8.14-10.94,11.78-3.52,3.64-6.7,6.85-9.55,9.6-.61.58-1.27,1.14-1.99,1.68-.72.54-1.41.86-2.08.98-.36.06-.63.03-.83-.1-.2-.12-.34-.3-.42-.54-.08-.24-.11-.52-.1-.85.01-.33.06-.65.14-.98Z"/>
    <path class="cls-2" d="M126.45,54.15c.16-.63.43-1.4.8-2.31.37-.91.73-2.02,1.06-3.33-.82.64-1.75,1.39-2.77,2.25-1.02.86-2.06,1.7-3.13,2.5-1.07.81-2.1,1.51-3.1,2.11-1,.6-1.89.96-2.66,1.09-.63.11-1.2.11-1.71,0-.51-.1-.93-.28-1.24-.54-.87-.73-1.44-1.51-1.7-2.35s-.23-1.86.08-3.09c.14-.55.33-1.12.58-1.73.24-.61.56-1.31.94-2.1,1.68-3.58,3.85-7.01,6.54-10.27,2.68-3.26,5.72-6.17,9.11-8.73,1.31-.99,2.55-1.7,3.72-2.12,1.17-.42,2.29-.72,3.38-.9.48-.08,1.01-.14,1.59-.17.58-.03,1.1-.06,1.56-.08.51-.19.92-.33,1.23-.43.31-.09.64-.17.97-.23.63-.11,1.13-.11,1.5,0s.65.28.82.53c.18.25.27.56.29.92s-.03.75-.13,1.17c-.14.57-.37,1.12-.66,1.66-.3.54-.6,1.09-.9,1.64l-8.55,17.96c-.32.95-.62,1.83-.88,2.63-.26.8-.57,1.55-.94,2.26-.11.21-.25.47-.42.78-.17.31-.39.62-.67.93-.28.31-.6.59-.96.84-.36.25-.8.42-1.3.5-.65.11-1.15.15-1.52.13-.36-.02-.63-.1-.8-.23s-.25-.3-.26-.52c0-.22.03-.48.11-.79ZM118.57,46.01c-.16.32-.36.77-.6,1.36-.24.58-.43,1.16-.58,1.73-.15.59-.2,1.11-.16,1.55.05.44.35.61.92.52.88-.15,1.75-.49,2.62-1.02.86-.53,1.7-1.14,2.52-1.82,1.09-.92,2.23-1.93,3.4-3.03,1.17-1.11,2.3-2.25,3.4-3.44,1.09-1.19,2.1-2.39,3.02-3.6.92-1.21,1.66-2.39,2.24-3.53.33-.66.66-1.42.98-2.27.33-.85.57-1.6.74-2.26.07-.28.08-.55.03-.8-.06-.25-.26-.35-.62-.29-1.02.17-2.11.55-3.25,1.14-1.14.59-2.28,1.31-3.42,2.18-1.14.86-2.27,1.84-3.37,2.93-1.11,1.1-2.16,2.25-3.14,3.45-.99,1.2-1.88,2.42-2.69,3.65-.81,1.23-1.48,2.42-2.03,3.56Z"/>
    <path class="cls-1" d="M14.09,18.78l-14.09,1.42v36.15l7.77-.78v-12.12l5.91-.6c8.39-.85,11.91-4.46,11.91-10.94v-4.51c0-6.48-3.11-9.48-11.5-8.63ZM17.82,31.92c0,2.49-.73,3.85-4.14,4.2l-5.91.6v-10.41l5.91-.6c3.26-.33,4.14.72,4.14,3.21v3Z"/>
    <polygon class="cls-1" points="28.53 53.42 35.99 52.67 35.99 27.44 28.53 28.19 28.53 53.42"/>
    <path class="cls-1" d="M84.42,22.03c-8.39.85-10.83,5.75-10.83,11.19v5.91c0,6.22,3.11,9.94,11.29,9.12,3.52-.36,7.2-1.5,9.48-2.56l-1.09-5.48c-2.23.9-5.34,1.63-7.67,1.86-3.42.34-4.56-.32-4.56-3.22v-.73l13.57-1.37v-5.28c0-5.49-1.81-10.28-10.2-9.43ZM87.58,31.86l-6.53.66v-1.09c0-1.76.83-3.3,3.42-3.56,2.59-.26,3.11,1.14,3.11,2.9v1.09Z"/>
    <path class="cls-1" d="M55.18,24.98c-2.9.29-6.94,1.63-10.05,3.45l-.78-1.84-5.54.56v25.23l7.46-.75v-16.68c1.61-1.04,4.09-2.23,5.44-2.36,1.3-.13,1.81.49,1.81,1.63v16.68l7.46-.75v-17.66c0-4.87-1.5-7.93-5.8-7.5Z"/>
    <path class="cls-1" d="M70.96,24.62c-.02-.42-.16-.84-.39-1.11-.23-.28-.56-.41-.84-.17-.24.19-.53.35-.75.49-.22.1-.45.2-.67.3-.1-.85-.29-1.52-.65-2.05-.68-.98-1.96-1.5-4.35-1.71l-.03-.03-.04.03-4.99-.47-5.03-.44c-1.33-.13-2.38-.28-3.23-.49-2.67-.58-2.3-1.33-2.21-3.62.06-.68.18-1.29.41-1.83.06-.22.21-.41.37-.6.19-.22.37-.38.61-.53.17,1.49.66,2.76,1.32,3.64.6.88,1.41,1.35,2.31,1.25l15.1-1.75,15.1-1.82c1.02-.11,1.96-.99,2.65-2.33.65-1.31,1.12-3.07,1.1-4.97,0-1.87-.42-3.52-1.11-4.67-.65-1.18-1.57-1.84-2.62-1.7l-15.07,1.78-15.1,1.82c-.96.11-1.85.89-2.51,2.04-.67,1.21-1.14,2.81-1.2,4.55-.63.28-1.09.62-1.49,1.03-.41.47-.7.95-.93,1.49-.32.73-.5,1.57-.58,2.37-.32,3.2-.31,4.72,3.13,5.8.97.28,2.16.47,3.68.6l5.03.44,4.96.44h.06c1.67.17,2.59.54,3.1,1.23.17.23.29.49.38.79l-.24.03c-.23,0-.48-.09-.68-.15-.2-.06-.45-.14-.69-.22-.29-.11-.61.1-.83.44-.22.33-.38.84-.36,1.26,0,3.84-.02,7.72.03,11.59-.02,3.88.03,7.75,0,11.63.07,1.33,2.23,1.69,3.29,1.53,1.19-.18,3.96-1.05,4.01-2.68,0-3.84-.03-7.75-.03-11.58.02-3.88-.03-7.75,0-11.63ZM51.82,9.88c-.13-.16-.34-.27-.6-.21-.12,0-.25,0-.35.02-.16.03-.26.06-.38.06.12-.45.3-.83.54-1.15.2-.29.47-.47.73-.53.41-.02.75.24,1,.7.25.46.39,1.07.4,1.85,0,.74-.2,1.41-.45,1.92-.23.54-.59.86-.97.91-.29.03-.58-.11-.79-.44-.21-.26-.44-.69-.53-1.17.13-.06.26-.06.39-.12.13,0,.29-.03.41-.02.22-.03.46-.18.62-.37.12-.22.22-.48.23-.77,0-.29-.12-.52-.25-.68Z"/>
    <path class="cls-1" d="M35.99,18.31c0-.99-.59-1.67-3.47-1.38-3.21.32-3.99,1.14-3.99,2.74,0,1.93,0,3.74,0,5.69l7.46-.79c0-2.07-.01-4.19,0-6.26Z"/>
  </g>
</svg>