<?xml version="1.0" encoding="UTF-8"?>
<svg id="Capa_2" xmlns="http://www.w3.org/2000/svg" version="1.1" viewBox="0 0 620.9 334">
  <!-- Generator: Adobe Illustrator 29.7.1, SVG Export Plug-In . SVG Version: 2.1.1 Build 8)  -->
  <defs>
    <style>
      .st0 {
        fill: #fff;
      }
    </style>
  </defs>
  <g id="Capa_1-2">
    <g>
      <path class="st0" d="M133.2,201.4c1.2,2.5,1.6,6.9,1.8,12.4.2,7.4,0,15.1-.4,22.6-.1,61.9-67.7,99.4-125.6,97.5-13.2-.9-9.4-8.7-4.2-17.3,19-31.7,12.4-68.5,13.5-103.7.2-4.1.4-9.8,2.5-12.5,1.7-2.1,4.6-2.2,7.2-2.2,5.6,0,14.4,0,24.6,0h66.2c7.5.3,11.8-1.1,14.3,3.1h0c0,0,0,0,0,0ZM77.4,219.9c-4.7,0-7.4,6.3-9.8,10.3-6.4,12.4-15.9,32.8-2.6,43.7,11.4,8.4,27.2-.7,28.5-14.1,1.3-10.5-3.4-21.1-8-30.4-2.6-4.8-4.5-8.6-8-9.4h-.1,0Z"/>
      <path class="st0" d="M21,181.7c.9-2.7,3.6-5.8,5.6-8.1,5.9-6.8,13.3-12.3,18-20,6.7-10.6,6.7-23,5.9-35.2-1.5-21.9-6-43.8-7.3-65.6-2-20.8-.3-43,22.4-51,11.9-4,26-1.5,34.7,8,8.2,8.8,9.9,22,9.7,33.7-.2,29.6-8.6,59.7-7.9,89.4.5,19.4,12.4,27.6,24.1,41,4.9,6.3,8.5,11.1-.7,10.7-18.2,0-67.8,0-95,0-5.7-.2-10.5.9-9.7-2.7h0c0,0,0-.1,0-.1Z"/>
    </g>
    <g>
      <path class="st0" d="M222.9,20.7c-15.8-.4-43.7,0-59.3,0-5.7-.4-5.1,5.6-5.1,9.6,0,28.3-.1,108.3,0,125.5.7,3.3,8.4,2.1,11.1,2.4h12.2c4.7.1,8.3-.9,8-6,0-6.5,0-18.6,0-27.4.2-5.6-1.4-12,6.5-11.7,17.4-.3,37.3,2,52.7-7.6,40.2-25.8,20.6-83.8-26-84.7h-.2ZM233.2,79.2c-6.6,6.4-16.6,4.9-25,5.1-4.6,0-9.5.2-14.1-.1-3-.2-4.5-1.7-4.3-4.6,0-6.2,0-17.4,0-25-.2-5.8,3.5-5.1,7.9-5.2h13c6.8.1,12.6-.6,18.6,2.3,10,4.8,12.1,19.9,4.1,27.5h-.1Z"/>
      <path class="st0" d="M286,157.2c.9.6,2.2.8,3.4.9,6.9,0,15.2.3,22-.2,1.8-.3,2.4-1.1,2.5-2.5.6-13.9,0-71.7.1-92,.4-6.4-1.3-7.7-7.8-7.4-5.2,0-11.4,0-16.7,0-1.8.1-5,.2-4.8,2.5,0,8.1,0,40.8,0,67.6,0,10.5,0,20,0,26.8,0,1.5,0,3.2,1.2,4.2h0c0,0,0,0,0,0Z"/>
      <path class="st0" d="M298.9,12.6c-26.1.9-21.8,40.5,3.9,35.8,14.3-2,19.3-19.8,10.2-30.1-3.3-3.8-8.2-5.8-13.9-5.7h-.2Z"/>
      <path class="st0" d="M387.5,53.5c-7.6,0-15.2,2.4-21.4,7-6.8,5.3-5.2-4-11.3-4.5-5.2-.5-11.4,0-16.6-.2-2.6.1-7.6-.6-7.5,3-.7,15.6,0,79.5-.1,95.3,0,1.4.2,2.8,1.7,3.4,6.1,1.5,13.5.3,19.9.6,3.4.2,8.4-.3,7.8-4.8,0-5.5,0-16.3,0-26.6.5-16.7-4.9-45.2,19.4-45.4,17.4.7,18.9,18.5,18.1,32.3.1,13.7-.3,31.6.2,41.2,1.1,5.9,16.2,2.6,21,3.4,8.7.4,8.6-1.8,8.3-9.9-.9-23.9,2.2-47.2-1.8-67.3-4.5-16.2-20.8-28.1-37.5-27.6h-.2,0Z"/>
      <path class="st0" d="M479.6,36.9c-.5-.6-1.5-.7-2.3-.7-4.7,0-18.1,0-23.2,0-4.1-.2-3.2,3.6-3.3,7v6.8c0,3.7,0,5.7-3.8,5.9-2.8.6-8.4-1.1-9.9,1.9-.8,5.5-.2,15.5-.3,20.4,0,2.1,1.2,3.1,3.3,3.2,2.4.3,7.1-.2,9.2.5,1.2.4,1.3,1.3,1.4,3.2v31.5c0,6.5-.3,10.2.9,15.8,2.2,11.6,12.2,21.1,23.6,24.1,8.5,2.1,18,2,26.5,1.3,1.5-.5,1.5-2,1.6-3.4,0-4.6,0-14.7,0-19.6.6-5.1-5-4-8.7-4.2-8.7.6-15-5.2-14.4-13.6.1-6.9-.3-25,.2-33.9.3-1.2,1.3-1.4,3.8-1.5,24.9-.5,18.3,4.1,19.2-20.3,0-4-.1-5.1-3.2-5.2-2,0-4,0-6.1,0-3.7-.4-10.4.9-13.1-.9-.5-.5-.6-1.2-.7-1.9-.6-4.1.6-12.3-.7-16.2v-.2c-.1,0,0,0,0,0Z"/>
      <path class="st0" d="M566.7,53.4c-28.6-.7-53.9,22.8-54,51.8-1.8,35.1,30.5,60.1,64.1,54.9,8.6-1.1,16.4-4,23.6-8.7,6-4.1,11.4-9.2,15.1-15.5,1.2-2.5,0-3.3-3.1-4.1-5.3-1.2-14.8-3.5-19.5-4.4-5-1.1-7.8,3.1-11.9,5-12.1,6.2-28.9,1.9-35.2-10.4-1.3-2.5-2-4-.3-4.4,16.4-.3,59.7.1,72.5-.1,1.2-.2,1.7-.9,2.1-2.3.6-2.2.8-5.8.8-8.4.9-29.4-24.7-54.3-53.8-53.5h-.5ZM543.9,94.8c5.1-16.1,27.3-21.4,39.7-10.2,3,2.6,6.5,6.8,7.2,10.5,0,.3-.2.5-.5.6-6.2.3-27.7,0-37.5,0-4,0-7.1,0-8.4,0-.4,0-.6-.3-.6-.8v-.2s0,0,0,0Z"/>
      <path class="st0" d="M257.6,185.5c-9.1,9.4-20.8,33.4-27.9,42.7-.5.6-1,1.5-1.7,1.6-2.2-.3-3.7-4.5-5.1-6.3-6.3-10.6-13.4-22.6-19.9-33.4-.9-1.5-1.9-3.1-3.3-4-3.7-2.3-8.4-1.2-12.6-1.4-7.1,0-14.9,0-21.8,0-1.9.1-8.5-.6-6.6,2.3,6.3,10.3,35.3,54.1,48.2,75.6,1.6,2.6,2.4,4.9,2.3,8,.1,11.4-.2,25.6-.1,37.3,0,5.4,0,9.3.4,12.8.9,3.8,6.9,2.1,9.9,2.5,7.5-.2,16.4.5,23.8-.3,4.9-1,2.6-7.6,3.2-12,.3-15.7-.7-33.6.4-45.4,1.8-5.5,5.1-8.6,8.3-13.9,11.8-17.7,32.6-48.6,41.6-63,.7-1,1.6-2.8.5-3.4-1.1-.6-2.7-.5-4-.5-9.9.5-25.7-1.4-35.4.8h-.1c0,0,0,0,0,0Z"/>
      <path class="st0" d="M325.7,185.5c-17.5,31.6-50.7,120.6-58.3,135.8-.6,2,3.6,1.7,4.9,1.9,7.1.2,15.6,0,22.7,0,2.3,0,5,.1,7.2-.4,4.7-1.1,5.4-7.2,7.4-11.1,2.1-5.4,3.8-9.6,10-8.9,5.8,0,15.8,0,24.7,0h11.3c2.8,0,6-.3,8.5.6,4.8,2,5.7,9.1,7.9,13.4,2.6,7.5,7.5,6.5,14,6.5,8-.1,16.7.3,24.1-.2,1.1-.2,2.5-.6,2.1-1.9-7.5-17.9-40.7-97.5-55.7-133.1-1.8-4.4-7.2-3.2-11.1-3.4-5,0-10.8,0-15.7,0-1.4,0-2.8.2-3.9.8h-.1ZM326.4,270.3c-.4-.8,0-2.1.4-3,2.9-7.8,7.7-18.9,11.1-27,.5-.9,1.4-4.1,2.6-2.6,3.5,7.1,9.6,22.9,12.8,30.8,1.1,3.2-3.1,2.9-5.2,2.9-5,0-10.7,0-16.1,0-1.8-.1-4.4.4-5.6-1h0Z"/>
      <path class="st0" d="M435.1,291.2c-22.8.8-20.2,37,3.5,33.2,13.1-1.8,17.5-18.5,9.3-27.9-3-3.5-7.5-5.4-12.6-5.3h-.2Z"/>
      <path class="st0" d="M448.2,275.6c1.1-1,1.2-2.8,1.3-4.3,1.1-21.9,3.8-70.9,4.3-83.8.3-3-3.5-2.9-5.6-2.9-6.4,0-14.5,0-20.9,0-3.1.3-10.4-1.2-10,3.2.6,13.1,3.7,71.9,4.4,85.5,0,1.5.5,2.5,2.2,3,4.4.9,8.5.3,13.2.5,3.4-.1,9.4.5,11.1-1h0Z"/>
    </g>
  </g>
</svg>