<?xml version="1.0" encoding="UTF-8"?>
<svg id="Capa_2" data-name="Capa 2" xmlns="http://www.w3.org/2000/svg" xmlns:xlink="http://www.w3.org/1999/xlink" viewBox="0 0 105.72 37.2">
  <defs>
    <style>
      .cls-1 {
        fill: url(#Degradado_sin_nombre_615);
      }

      .cls-2 {
        fill: #00c0b7;
      }

      .cls-3 {
        fill: #c7c7c7;
      }
    </style>
    <linearGradient id="Degradado_sin_nombre_615" data-name="Degradado sin nombre 615" x1="-212.88" y1="-216.07" x2="-107.17" y2="-216.07" gradientTransform="translate(212.88 230.87)" gradientUnits="userSpaceOnUse">
      <stop offset="0" stop-color="#c7c7c7"/>
      <stop offset=".1" stop-color="#c2c2c2" stop-opacity=".98"/>
      <stop offset=".24" stop-color="#b4b4b4" stop-opacity=".91"/>
      <stop offset=".4" stop-color="#9e9e9e" stop-opacity=".81"/>
      <stop offset=".58" stop-color="#7f7f7f" stop-opacity=".66"/>
      <stop offset=".76" stop-color="#585858" stop-opacity=".47"/>
      <stop offset=".91" stop-color="#353535" stop-opacity=".3"/>
    </linearGradient>
  </defs>
  <g id="Capa_1-2" data-name="Capa 1">
    <g>
      <g>
        <g>
          <path class="cls-2" d="M2,33.5c.98,0,1.67.36,1.66,1.11h-.59c0-.37-.37-.62-1.07-.62h-.13c-.7,0-1.08.26-1.08.79v.17c0,.54.39.81,1.08.81h.13c.71,0,1.08-.25,1.08-.62h.59c0,.72-.7,1.11-1.68,1.11h-.13c-.96,0-1.67-.4-1.67-1.3v-.17c0-.9.72-1.29,1.67-1.29h.13Z"/>
          <path class="cls-2" d="M5.61,34.16c.81,0,1.41.35,1.41,1.04v.04c0,.69-.59,1.03-1.41,1.03h-.12c-.82,0-1.41-.34-1.41-1.03v-.04c0-.69.59-1.04,1.41-1.04h.12ZM4.65,35.2v.04c0,.37.29.6.84.6h.12c.56,0,.84-.24.84-.6v-.04c0-.37-.29-.61-.84-.61h-.12c-.56,0-.84.24-.84.61Z"/>
          <path class="cls-2" d="M8.01,34.19v.34h.1c.15-.22.45-.37.89-.37h.1c.68,0,1.02.34,1.02.98v1.1h-.56v-1.02c0-.39-.22-.62-.72-.62h-.09c-.48,0-.74.24-.74.62v1.02h-.56v-2.04h.56Z"/>
          <path class="cls-2" d="M12.04,34.16c.76,0,1.37.34,1.37,1.04v.13h-2.33c.02.36.32.56.84.56h.12c.43,0,.73-.1.83-.35h.52c-.09.4-.51.73-1.34.73h-.12c-.77,0-1.37-.32-1.37-1.03v-.04c0-.7.6-1.04,1.37-1.04h.12ZM11.09,35h1.78c-.06-.29-.38-.46-.83-.46h-.13c-.48,0-.77.17-.83.46Z"/>
          <path class="cls-2" d="M15.3,34.16c.77,0,1.37.27,1.37.87h-.56c0-.28-.32-.45-.81-.45h-.12c-.51,0-.82.23-.82.62v.04c0,.38.31.59.82.59h.12c.47,0,.82-.14.82-.43h.56c0,.58-.62.86-1.38.86h-.12c-.83,0-1.38-.33-1.38-1.02v-.04c0-.69.56-1.05,1.38-1.05h.12Z"/>
          <path class="cls-2" d="M17.84,33.63v.56h1.43v.39h-1.43v.83c0,.29.17.45.46.45h.12c.29,0,.45-.16.45-.45v-.04h.5v.04c0,.59-.37.86-.93.86h-.12c-.62,0-1.04-.27-1.04-.86v-.83h-.41v-.39h.41v-.56h.56Z"/>
          <path class="cls-2" d="M21.13,34.16c.84,0,1.26.27,1.26.75v1.33h-.56v-.31h-.12c-.25.24-.59.34-1.08.34-.58,0-.93-.21-.93-.61,0-.44.33-.64,1.01-.64h1.13v-.11c0-.27-.26-.39-.7-.39h-.12c-.44,0-.7.11-.7.37h-.56c0-.47.43-.73,1.27-.73h.12ZM20.26,35.6c0,.19.19.29.62.29.36,0,.94-.09.94-.45v-.12h-1.03c-.37,0-.53.08-.53.28Z"/>
          <path class="cls-2" d="M23.4,34.19v.35h.09c.14-.24.45-.38.87-.38h.04c.39,0,.65.13.8.38h.12c.15-.24.45-.38.83-.38h.04c.6,0,.95.25.95.91v1.16h-.56v-1.1c0-.36-.21-.54-.63-.54h-.04c-.39,0-.64.19-.64.55v1.09h-.56v-1.1c0-.34-.21-.54-.62-.54h-.04c-.39,0-.64.2-.64.54v1.1h-.56v-2.04h.56Z"/>
          <path class="cls-2" d="M29.08,34.16c.81,0,1.41.35,1.41,1.04v.04c0,.69-.59,1.03-1.41,1.03h-.12c-.82,0-1.41-.34-1.41-1.03v-.04c0-.69.59-1.04,1.41-1.04h.12ZM28.12,35.2v.04c0,.37.29.6.84.6h.12c.56,0,.84-.24.84-.6v-.04c0-.37-.29-.61-.84-.61h-.12c-.56,0-.84.24-.84.61Z"/>
          <path class="cls-2" d="M32.21,34.16c.73,0,1.26.2,1.26.68v.04h-.56v-.04c0-.24-.29-.34-.7-.34h-.12c-.42,0-.67.08-.67.26,0,.21.24.25.88.28.89.04,1.22.2,1.22.57v.03c0,.41-.45.62-1.29.62h-.12c-.85,0-1.28-.21-1.28-.68v-.05h.56v.04c0,.23.23.34.71.34h.12c.52,0,.73-.08.73-.27s-.25-.25-.93-.28c-.79-.03-1.17-.16-1.17-.57v-.03c0-.43.54-.61,1.23-.61h.12Z"/>
        </g>
        <g>
          <path class="cls-3" d="M2,33.5c.98,0,1.67.36,1.66,1.11h-.59c0-.37-.37-.62-1.07-.62h-.13c-.7,0-1.08.26-1.08.79v.17c0,.54.39.81,1.08.81h.13c.71,0,1.08-.25,1.08-.62h.59c0,.72-.7,1.11-1.68,1.11h-.13c-.96,0-1.67-.4-1.67-1.3v-.17c0-.9.72-1.29,1.67-1.29h.13Z"/>
          <path class="cls-3" d="M5.61,34.16c.81,0,1.41.35,1.41,1.04v.04c0,.69-.59,1.03-1.41,1.03h-.12c-.82,0-1.41-.34-1.41-1.03v-.04c0-.69.59-1.04,1.41-1.04h.12ZM4.65,35.2v.04c0,.37.29.6.84.6h.12c.56,0,.84-.24.84-.6v-.04c0-.37-.29-.61-.84-.61h-.12c-.56,0-.84.24-.84.61Z"/>
          <path class="cls-3" d="M8.01,34.19v.34h.1c.15-.22.45-.37.89-.37h.1c.68,0,1.02.34,1.02.98v1.1h-.56v-1.02c0-.39-.22-.62-.72-.62h-.09c-.48,0-.74.24-.74.62v1.02h-.56v-2.04h.56Z"/>
          <path class="cls-3" d="M12.04,34.16c.76,0,1.37.34,1.37,1.04v.13h-2.33c.02.36.32.56.84.56h.12c.43,0,.73-.1.83-.35h.52c-.09.4-.51.73-1.34.73h-.12c-.77,0-1.37-.32-1.37-1.03v-.04c0-.7.6-1.04,1.37-1.04h.12ZM11.09,35h1.78c-.06-.29-.38-.46-.83-.46h-.13c-.48,0-.77.17-.83.46Z"/>
          <path class="cls-3" d="M15.3,34.16c.77,0,1.37.27,1.37.87h-.56c0-.28-.32-.45-.81-.45h-.12c-.51,0-.82.23-.82.62v.04c0,.38.31.59.82.59h.12c.47,0,.82-.14.82-.43h.56c0,.58-.62.86-1.38.86h-.12c-.83,0-1.38-.33-1.38-1.02v-.04c0-.69.56-1.05,1.38-1.05h.12Z"/>
          <path class="cls-3" d="M17.84,33.63v.56h1.43v.39h-1.43v.83c0,.29.17.45.46.45h.12c.29,0,.45-.16.45-.45v-.04h.5v.04c0,.59-.37.86-.93.86h-.12c-.62,0-1.04-.27-1.04-.86v-.83h-.41v-.39h.41v-.56h.56Z"/>
          <path class="cls-3" d="M21.13,34.16c.84,0,1.26.27,1.26.75v1.33h-.56v-.31h-.12c-.25.24-.59.34-1.08.34-.58,0-.93-.21-.93-.61,0-.44.33-.64,1.01-.64h1.13v-.11c0-.27-.26-.39-.7-.39h-.12c-.44,0-.7.11-.7.37h-.56c0-.47.43-.73,1.27-.73h.12ZM20.26,35.6c0,.19.19.29.62.29.36,0,.94-.09.94-.45v-.12h-1.03c-.37,0-.53.08-.53.28Z"/>
          <path class="cls-3" d="M23.4,34.19v.35h.09c.14-.24.45-.38.87-.38h.04c.39,0,.65.13.8.38h.12c.15-.24.45-.38.83-.38h.04c.6,0,.95.25.95.91v1.16h-.56v-1.1c0-.36-.21-.54-.63-.54h-.04c-.39,0-.64.19-.64.55v1.09h-.56v-1.1c0-.34-.21-.54-.62-.54h-.04c-.39,0-.64.2-.64.54v1.1h-.56v-2.04h.56Z"/>
          <path class="cls-3" d="M29.08,34.16c.81,0,1.41.35,1.41,1.04v.04c0,.69-.59,1.03-1.41,1.03h-.12c-.82,0-1.41-.34-1.41-1.03v-.04c0-.69.59-1.04,1.41-1.04h.12ZM28.12,35.2v.04c0,.37.29.6.84.6h.12c.56,0,.84-.24.84-.6v-.04c0-.37-.29-.61-.84-.61h-.12c-.56,0-.84.24-.84.61Z"/>
          <path class="cls-3" d="M32.21,34.16c.73,0,1.26.2,1.26.68v.04h-.56v-.04c0-.24-.29-.34-.7-.34h-.12c-.42,0-.67.08-.67.26,0,.21.24.25.88.28.89.04,1.22.2,1.22.57v.03c0,.41-.45.62-1.29.62h-.12c-.85,0-1.28-.21-1.28-.68v-.05h.56v.04c0,.23.23.34.71.34h.12c.52,0,.73-.08.73-.27s-.25-.25-.93-.28c-.79-.03-1.17-.16-1.17-.57v-.03c0-.43.54-.61,1.23-.61h.12Z"/>
        </g>
      </g>
      <path class="cls-2" d="M36.41,34.16c.76,0,1.37.34,1.37,1.04v.13h-2.33c.02.36.32.56.84.56h.12c.43,0,.73-.1.83-.35h.52c-.09.4-.51.73-1.34.73h-.12c-.77,0-1.37-.32-1.37-1.03v-.04c0-.7.6-1.04,1.37-1.04h.12ZM35.46,35h1.78c-.06-.29-.38-.46-.83-.46h-.12c-.48,0-.77.17-.83.46Z"/>
      <path class="cls-2" d="M38.77,33.25v2.98h-.56v-2.98h.56Z"/>
      <path class="cls-2" d="M41.71,33.22c.69,0,1.08.27,1.08.72v.02h-.54v-.02c0-.24-.21-.35-.55-.35h-.12c-.35,0-.55.13-.55.44v.16h1.09v.39h-1.09v1.65h-.56v-1.65h-.36v-.39h.36v-.16c0-.54.42-.81,1.12-.81h.12Z"/>
      <path class="cls-2" d="M44.58,36.23v-.34h-.1c-.15.22-.45.37-.89.37h-.1c-.68,0-1.02-.34-1.02-.98v-1.1h.56v1.02c0,.39.22.62.72.62h.09c.48,0,.74-.24.74-.62v-1.02h.56v2.04h-.56Z"/>
      <path class="cls-2" d="M46.41,33.63v.56h1.43v.39h-1.43v.83c0,.29.17.45.46.45h.12c.29,0,.45-.16.45-.45v-.04h.5v.04c0,.59-.37.86-.93.86h-.12c-.62,0-1.04-.27-1.04-.86v-.83h-.41v-.39h.41v-.56h.56Z"/>
      <path class="cls-2" d="M50.4,36.23v-.34h-.1c-.15.22-.45.37-.89.37h-.1c-.68,0-1.02-.34-1.02-.98v-1.1h.56v1.02c0,.39.22.62.72.62h.09c.48,0,.74-.24.74-.62v-1.02h.56v2.04h-.56Z"/>
      <path class="cls-2" d="M53.81,35.05v.11h-.52v-.11c0-.3-.22-.46-.63-.46s-.65.15-.65.46v1.19h-.56v-2.04h.56v.27h.09c.16-.19.39-.31.79-.31.61,0,.92.28.92.89Z"/>
      <path class="cls-2" d="M55.63,34.16c.81,0,1.41.35,1.41,1.04v.04c0,.69-.59,1.03-1.41,1.03h-.12c-.82,0-1.41-.34-1.41-1.03v-.04c0-.69.59-1.04,1.41-1.04h.12ZM54.67,35.2v.04c0,.37.29.6.84.6h.12c.56,0,.84-.24.84-.6v-.04c0-.37-.29-.61-.84-.61h-.12c-.56,0-.84.24-.84.61Z"/>
      <path class="cls-2" d="M57.81,36.34l-.12.31h-.29l.12-.39c-.13-.04-.21-.13-.21-.27h0c0-.17.12-.29.29-.29s.3.12.3.28h0c0,.09-.02.18-.1.35Z"/>
      <path class="cls-2" d="M59.96,33.25v1.28h.1c.15-.22.45-.37.89-.37h.1c.68,0,1.02.34,1.02.98v1.1h-.56v-1.02c0-.39-.22-.62-.72-.62h-.09c-.48,0-.74.24-.74.62v1.02h-.56v-2.98h.56Z"/>
      <path class="cls-2" d="M64.02,34.16c.81,0,1.41.35,1.41,1.04v.04c0,.69-.59,1.03-1.41,1.03h-.12c-.82,0-1.41-.34-1.41-1.03v-.04c0-.69.59-1.04,1.41-1.04h.12ZM63.06,35.2v.04c0,.37.29.6.84.6h.12c.56,0,.84-.24.84-.6v-.04c0-.37-.29-.61-.84-.61h-.12c-.56,0-.84.24-.84.61Z"/>
      <path class="cls-2" d="M66.11,34.19l.87,1.36h.19l.77-1.36h.54l-1.7,3.01h-.53l.54-.96-1.29-2.05h.61Z"/>
      <path class="cls-2" d="M68.68,36.27h-.03c-.15,0-.28-.11-.28-.28h0c0-.17.12-.29.28-.29h.03c.15,0,.28.12.28.28h0c0,.18-.13.29-.28.29Z"/>
      <g>
        <g>
          <polygon class="cls-3" points="0 0 6.14 0 16.09 9.97 25.72 0 32.6 0 32.6 4.24 21.88 14.63 32.6 25.34 32.6 29.58 25.72 29.58 16.09 19.66 6.14 29.57 0 29.58 0 24.96 10.37 14.79 0 4.8 0 0"/>
          <path class="cls-3" d="M37.69,0v29.58h31.28V0h-31.28ZM61.81,21.71l-17.14.03V7.16s17.14,0,17.14,0v14.55Z"/>
          <polygon class="cls-3" points="73.88 29.58 81.49 29.58 81.5 7.16 99.1 7.16 105.72 0 73.88 0 73.88 29.58"/>
        </g>
        <g>
          <polygon class="cls-1" points="0 0 6.14 0 16.09 9.97 25.72 0 32.6 0 32.6 4.24 21.88 14.63 32.6 25.34 32.6 29.58 25.72 29.58 16.09 19.66 6.14 29.57 0 29.58 0 24.96 10.37 14.79 0 4.8 0 0"/>
          <path class="cls-1" d="M37.69,0v29.58h31.28V0h-31.28ZM61.81,21.71l-17.14.03V7.16s17.14,0,17.14,0v14.55Z"/>
          <polygon class="cls-1" points="73.88 29.58 81.49 29.58 81.5 7.16 99.1 7.16 105.72 0 73.88 0 73.88 29.58"/>
        </g>
      </g>
    </g>
  </g>
</svg>