<?xml version="1.0" encoding="UTF-8"?>
<svg id="Capa_2" xmlns="http://www.w3.org/2000/svg" version="1.1" xmlns:xlink="http://www.w3.org/1999/xlink" viewBox="0 0 1014 1014">
  <!-- Generator: Adobe Illustrator 29.7.1, SVG Export Plug-In . SVG Version: 2.1.1 Build 8)  -->
  <defs>
    <style>
      .st0 {
        fill: #fff;
      }

      .st1 {
        fill: #f0f0f0;
      }

      .st2 {
        fill: none;
      }

      .st3 {
        fill: #841468;
      }

      .st4 {
        fill: #ffe200;
        fill-rule: evenodd;
      }

      .st5 {
        clip-path: url(#clippath);
      }
    </style>
    <clipPath id="clippath">
      <rect class="st2" y="1.5" width="1014" height="1011" rx="229.5" ry="229.5"/>
    </clipPath>
  </defs>
  <g class="st5">
    <rect class="st0" x="-79.3" y="-59.8" width="1160.4" height="1103.6"/>
    <path class="st3" d="M260.8-455.1h496.1c168.5,0,305.3,136.8,305.3,305.3v1360.3H-44.5V-149.8c0-168.5,136.8-305.3,305.3-305.3Z"/>
  </g>
  <g>
    <path class="st4" d="M972.6,522.7c0,12.7-5.6,23.6-16.8,32.7-9.8,8-21.8,13.1-35.8,15.3h-1.2c-1.5,0-4.8-4.4-10-13.2-5.1-8.8-7.7-14.2-7.7-16.1s.5-1.1,1.5-1.3c9.5-2.1,15.8-3.8,18.8-5.2,6.8-3.2,10.2-8.1,10.2-14.5s-2.2-8.7-6.7-13.7c-7.7-8.5-11.9-13.3-12.6-14.2-4.5-6.5-6.7-13.8-6.7-21.6,0-11.5,5.5-21,16.6-28.6,9-6.2,20.1-10.3,33.2-12.2.7,0,1.2-.1,1.7-.1,1,0,1.7.7,2.3,2.2,1.7,4.6,5.7,12.8,11.9,24.8.2.4.2.7.2.9,0,1.1-.6,1.6-1.7,1.6s-1.4,0-2.6-.3c-1.2-.2-2.2-.2-2.9-.2-4.7,0-8.8,1-12.3,3.1-4.2,2.4-6.4,5.7-6.4,9.9s2.3,8.5,7,14.2c8.3,10,12.7,15.3,13,15.8,4.7,6.9,7,13.7,7,20.6h0ZM159.5,484.3c0,15.1-4.1,27.4-12.4,36.8-8.9,10-21.2,15-36.8,15s-6.5,0-11.8-.4c-5.2-.3-9.2-.4-11.8-.4s-4.2,1.1-4.2,3.4.2,7.2.9,12.9c.6,5.7.9,10,.9,12.8s-.7,2.2-2.1,2.2c-4,0-10,0-18-.4-8-.2-13.9-.3-17.9-.3s-2.9-.9-2.9-2.7c0-7,0-17.4.3-31.4s.4-24.4.4-31.4c0-19.6-.9-40.3-2.7-62v-1.3c-.2-1.2.7-1.9,2.9-2.2,5-.6,16.3-.9,33.7-.9s20.1.1,29.6.4c15.5.4,28,5.2,37.5,14,9.7,9.2,14.5,21.1,14.5,35.9h-.1ZM120.5,485.8c0-14.6-7.4-21.9-22.3-21.9s-15.9.6-16.5,1.7c-.4.8-.6,8-.6,21.7s0,4.8.2,8.6c.2,3.8.2,6.6.2,8.6s5.9,1.9,17.7,1.9,21.3-6.9,21.3-20.6h0ZM212.8,496.4c0,7.4.2,18.5.6,33.4.4,14.9.6,26,.6,33.4s-.3,2-.9,2.3c-.2,0-1.1.2-2.6.4-4.3.5-10,.7-17.1.7s-15.6-.2-18.3-.7c-1.9-.4-2.8-1.3-2.8-2.9,0,1,.2-4.5.8-16.5,1.2-25.4,1.8-42,1.8-50s-.2-16.8-.7-30.1c-.4-13.5-.7-23.5-.7-30.2s.7-2.1,2.2-2.1,5.1.1,9.2.3c4.1.2,7.2.2,9.2.2s5,0,9-.2,7-.3,9-.3,2.9.7,2.9,2.1c0,6.7-.4,16.8-1.1,30.2-.7,13.3-1.1,23.4-1.1,30.1h0ZM364,437c0,7.2-.2,17.9-.9,32.2-.6,14.3-.9,25.1-.9,32.3v62c0,1.7-1,2.5-2.9,2.5s-3.9,0-7.1.2c-3.2,0-5.5.2-7.1.2s-4.2,0-7.6-.4c-3.4-.2-6-.4-7.7-.4s-2.6-1-4.2-3.1c-4.7-6.1-15.3-19.6-31.8-40.5-4.5-5.8-11.3-14.4-20.6-25.7-.2-.4-.7-.7-1.5-1.1-.5.4-.7,1.1-.7,2.1,0,7.3.2,18.2.6,32.7s.6,25.4.6,32.7-.9,3.3-2.6,3.3h-33.9c-1.9,0-2.9-.9-2.9-2.9,0-6.7.3-17,1-30.6.7-13.7,1.1-23.9,1.1-30.7s-.3-18-.9-32.4c-.6-14.3-.9-25.1-.9-32.2s1.2-2.1,3.8-2.1c3.8,0,8.5-.2,14-.7,1.3-.1,3.9-.5,7.7-1.2,3.3-.5,5.9-.8,7.7-.8s2.1,1.1,3.7,3.2l36.6,48c3.2,4.3,8.2,10.7,14.8,19,1.7,1.9,3.1,2.9,4.2,2.9s1.2-2.4,1.2-7.4-.3-16.5-1.1-29.7c-.7-13.2-1.1-23.1-1.1-29.8s.7-3.5,2.1-3.5c3.9,0,9.9-.1,17.8-.4s13.8-.5,17.8-.5,1.8,1,1.8,2.9h-.1ZM477.9,462.8c0,1.2-.7,1.9-2.1,1.9-2.6,0-12.4-.5-29.6-1.4-.4,15.8-.6,26.9-.6,33.2s.3,18.5.9,33.4.9,26,.9,33.4-.3,1.9-.9,2.2c-.2,0-1.1.2-2.7.4-3.9.5-9.7.7-17.3.7s-14.3-.2-17.7-.7c-1.9-.3-2.7-1.2-2.7-2.9,0-7.4.2-18.5.9-33.2.6-14.8,1-25.9,1-33.3s-.3-15.8-.8-32.7c-13.1,1.2-23.5,1.9-31.3,1.9s-1.6-.3-1.6-.9.4-3.2,1.4-7.2c1.1-4.4,1.6-7.1,1.7-8,.2-2.9.4-5.9.7-8.8.5-4.7,1.3-7,2.4-7h1.4c10.6,1.3,26.2,2,47,2s16.7-.6,32.5-1.8c8.5-.6,12.8-.9,12.9-.9,1.2,0,2,0,2.2.2s.3.7.4,1.8c0,1.7,0,4.1-.2,7.1-.1,3.3-.2,5.6-.2,7s.2,3.9.6,6.9c.4,3.1.6,5.3.6,6.9h0l.2-.2ZM588.8,536.7c0,2.7-.6,7.6-1.7,14.8-1.2,7.8-2.2,12.5-3.2,14-.7,1.2-1.9,1.8-3.2,1.8s-1.6,0-2.9-.3c-4.7-.6-18.7-.9-41.8-.9s-12.5,0-22.5,0-17.3,0-22.3,0-3.2-.9-3.2-2.7c0-7,.4-17.6,1.2-31.7.9-14,1.2-24.6,1.2-31.6s-.4-20.4-1.2-40c-.2-5-.6-12.5-1.1-22.4v-1.3c-.2-1.4.6-2.2,2.4-2.2,4.9,0,12.1.1,21.8.4,9.7.2,17,.4,21.8.4s12-.1,21.6-.4c9.6-.2,16.8-.4,21.6-.4s5.4,1.2,5.9,3.7c.3,1.4.8,5.8,1.5,13.2.7,7.2,1.1,11.7,1.1,13.3s-.7,2-2,2-1.1,0-2.1-.1c-17.4-1.4-33-2.1-46.9-2.1s-5.6.7-6.4,2.4c-.4.7-.5,3.1-.5,7.2s.7,7.1,2,8.5c1.1,1.2,3.2,1.7,6.4,1.7s1.9,0,3.8-.1c1.9,0,3.5-.1,4.7-.1,8.2,0,16.5-.2,25-.6.7,0,2.5-.2,5.4-.5,2.2-.2,4-.4,5.3-.4s2.4.7,2.4,2.2c0-1.3-.6,3.5-1.7,14.3-.6,5-.8,10-.8,15.1s-.9,1.9-2.8,1.9c0,0-3-.3-8.9-1-3.7-.3-12.2-.5-25.5-.5h-10.4c-2.7,0-4.2.6-4.7,1.9v5.8c0,3.6.3,7.9.9,9.2,1.2,2.4,5.4,3.8,12.6,4.2,0,0,4.7,0,14.3,0s8.6-.3,15.5-.9c6.8-.6,11.9-.9,15.3-.9s2.2,1.1,2.2,3.4h0v-.2ZM748.1,562.9c0,2-1,2.9-2.9,2.9h-34.7c-1.9,0-2.8-1.1-2.8-3.3,0-6.3.2-15.8.7-28.4.5-12.7.7-22.2.7-28.5s-.2-2.8-.9-2.9c-.7.4-5.1,10.1-13.2,29.1-4.7,11.2-9.4,22.3-14.1,33.4-.7,1.4-1.5,2.3-2.5,2.6-.3,0-1.6,0-3.9,0-3.4,0-5.4-.7-6-1.9-3.6-6.9-8.2-16.9-14-30-6.1-13.9-10.8-24-13.8-30.2-.2-.3-.4-.6-.9-1.1-.4.6-.7,1.5-.7,2.7,0,6.1.2,15.3.5,27.6s.5,21.5.5,27.6-.9,3.3-2.7,3.3h-32.7c-1.4,0-2.1-.2-2.4-.6-.3-.4-.4-1.1-.4-2.1,0-6.9.3-17.1,1-30.8s1.1-23.9,1.1-30.8-.4-20.9-1-40.8c0-5.2-.4-13-.9-23.3v-1.6c0-1.2,1.2-1.9,4.1-1.9s9-.1,16.1-.3c7.2-.2,12.6-.3,16.1-.3s1.7,1.3,3.1,3.9l28.7,60.2c2,4.1,3.7,6.1,5.1,6.1s2.2-2.4,4.6-7c6.6-13.2,16.3-33,29.3-59.5,1.1-2.4,2.3-3.7,3.6-3.7,1.9,0,4.7.1,8.6.3,3.9.2,6.7.2,8.7.2s4.1-.1,7.5-.4c3.3-.3,5.9-.5,7.5-.5s2.9.7,2.9,2.3c0,7.4-.3,18.4-.8,33.1-.6,14.7-.9,25.7-.9,33.1s.3,17.1.9,30.7c.6,13.7.9,23.9.9,30.6h0ZM895.7,563.6c0,1.1-.9,1.9-2.5,2.3-1.9.5-8,.7-18.2.7s-15.4-.2-18.1-.7c-2.2-.4-3.6-1.9-4.2-4.2-2.2-9-4-13.8-5.2-14.5-1.1-.4-9.9-.7-26.3-.7s-17,.3-17.7.9c-1.1,1-2.4,4.4-3.7,10-1.2,5.2-2.7,8-4.6,8.5-2.2.5-9.7.7-22.3.7s-15-.9-15-2.7,7.4-21.6,22.2-60c16-41.5,24.7-64.3,26.1-68.5.7-2.4,1.7-3.6,2.7-3.6,1.8,0,4.5.2,8.2.5s6.4.4,8.2.4,4.4-.1,7.8-.3c3.5-.2,6-.3,7.7-.3s2.4,1,3.4,3.1c3.2,6.6,12.6,29.2,28.1,67.7,15.5,38.8,23.4,59,23.4,60.7h0ZM826.2,477.9c-1.4,2.8-3.7,8.7-7,18-3.5,9.8-5.3,15.5-5.3,17.2s2,1.7,5.9,1.9c2,0,5.4.2,10,.2s6.7-.5,7.2-1.5c0-.3.2-.7.2-1.3,0-2.1-1.5-7.8-4.5-17.1-2.9-9-5.1-14.8-6.5-17.3h0Z"/>
    <g>
      <path class="st1" d="M94,410.1h-6.1v-31.8h14.3c3.1,0,5.7,1,7.8,3,2.1,2,3.2,4.4,3.2,7.3s-1,5.4-3.2,7.4c-2.1,2-4.7,3-7.8,3h-8.2v11.2h0ZM94,383.9v9.3h8.2c2.7,0,4.6-2,4.6-4.7s-2-4.6-4.6-4.6h-8.2Z"/>
      <path class="st1" d="M172.1,410.1v-31.8h6.1v31.8h-6.1Z"/>
      <path class="st1" d="M238.1,410.1v-31.8h5.4l16.8,21.4v-21.4h5.9v31.8h-5.4l-16.8-21.3v21.3h-5.9,0Z"/>
      <path class="st1" d="M324.4,383.9v-5.6h27.2v5.6h-10.5v26.2h-6.1v-26.2h-10.6Z"/>
      <path class="st1" d="M431.2,378.2h6.1v19.1c0,3.8-1.3,7-4,9.6-2.6,2.6-6,3.9-9.9,3.9s-7.2-1.3-9.9-3.9c-2.6-2.6-4-5.8-4-9.6v-19.1h6.1v19.1c0,2.2.7,4.1,2.2,5.6s3.3,2.2,5.5,2.2,4.1-.7,5.6-2.2,2.2-3.4,2.2-5.6v-19.1h0Z"/>
      <path class="st1" d="M511.5,378.2c3.1,0,5.7,1,7.8,3s3.2,4.4,3.2,7.3-2.4,7.6-6,9.3l7.3,12.3h-6.8l-6.7-11.2h-7.4v11.2h-6.1v-31.8h14.7ZM502.8,383.9v9.3h8.6c2.7,0,4.6-2,4.6-4.7s-2-4.6-4.6-4.6h-8.6Z"/>
      <path class="st1" d="M605.4,378.2v5.6h-17.4v7.3h14.9v5.6h-14.9v7.6h17.6v5.6h-23.7v-31.8h23.5Z"/>
      <path class="st1" d="M679.1,378.2c3.1,0,5.7,1,7.8,3s3.2,4.4,3.2,7.3-2.4,7.6-6,9.3l7.3,12.3h-6.8l-6.7-11.2h-7.4v11.2h-6.1v-31.8h14.7ZM670.5,383.9v9.3h8.6c2.7,0,4.6-2,4.6-4.7s-2-4.6-4.6-4.6h-8.6Z"/>
      <path class="st1" d="M749.6,410.1v-31.8h6.1v31.8h-6.1Z"/>
      <path class="st1" d="M813.3,410.1l13.6-31.8h5l13.6,31.8h-6.4l-2.5-6h-14.4l-2.5,6h-6.4,0ZM829.5,386.9l-4.9,11.5h9.7l-4.8-11.5Z"/>
      <path class="st1" d="M918.7,386.5c-.5-1.7-2.6-3.1-5.1-3.1s-4.8,1.5-4.8,3.4,1,2.2,2.9,3c.9.4,2.6.9,5.2,1.7,2,.5,2.8.7,4.7,1.8,1,.5,1.7,1.1,2.3,1.7,1.1,1.1,2.1,3.3,2.1,5.8s-1.1,5.5-3.3,7.4c-2.2,1.8-5,2.7-8.5,2.7s-5.9-.7-8.1-2.2c-2.2-1.5-3.7-3.3-4.4-5.5l6.1-1.8c.5,2,3,3.7,6.4,3.7s5.7-1.5,5.7-3.7-.6-1.7-1.1-2.2c-.3-.2-.7-.5-1.3-.8-1.1-.5-1.3-.5-2.5-1-3.8-1.1-6.4-2-7.7-2.7-3-1.6-4.6-4.1-4.6-7.3s1-5.2,3-7,4.6-2.7,7.8-2.7,5.2.7,7.3,2c2,1.3,3.4,3,4,5.1l-6.1,1.8h0Z"/>
    </g>
  </g>
</svg>