<?xml version="1.0" encoding="UTF-8"?>
<svg id="Capa_2" xmlns="http://www.w3.org/2000/svg" version="1.1" xmlns:xlink="http://www.w3.org/1999/xlink" viewBox="0 0 1014 1014">
  <!-- Generator: Adobe Illustrator 29.7.1, SVG Export Plug-In . SVG Version: 2.1.1 Build 8)  -->
  <defs>
    <style>
      .st0, .st1 {
        fill: #ffe200;
      }

      .st2 {
        fill: #fff;
      }

      .st3 {
        fill: none;
      }

      .st4 {
        fill: #841468;
      }

      .st1 {
        fill-rule: evenodd;
      }

      .st5 {
        clip-path: url(#clippath);
      }
    </style>
    <clipPath id="clippath">
      <rect class="st3" y="1.5" width="1014" height="1011" rx="229.5" ry="229.5"/>
    </clipPath>
  </defs>
  <g class="st5">
    <g>
      <rect class="st2" x="-79.3" y="-59.8" width="1160.4" height="1103.6"/>
      <path class="st4" d="M260.8-455.1h496.1c168.5,0,305.3,136.8,305.3,305.3v1360.3H-44.5V-149.8c0-168.5,136.8-305.3,305.3-305.3h0Z"/>
    </g>
  </g>
  <g>
    <path class="st1" d="M905.5,419.3c0,67.3-18.3,121.8-55.1,163.3-39.6,44.6-94.1,66.4-163.3,66.4s-29.1-.6-52.6-1.7c-23.3-1.4-40.7-1.9-52.3-1.9s-18.8,5-18.8,15.2,1.1,32.1,3.9,57.3c2.8,25.2,3.9,44.3,3.9,56.7s-3,9.7-9.1,9.7c-17.7,0-44.3-.6-79.7-1.7-35.4-.8-61.7-1.4-79.4-1.4s-12.7-3.9-12.7-11.9c0-31,.6-77.2,1.4-139.2,1.1-62,1.7-108.2,1.7-139.2,0-87.2-3.9-179.1-11.9-275.4l-.3-5.8c-.8-5.3,3.6-8.3,13-9.7,22.4-2.8,72.5-4.2,149.8-4.2s89.1.6,131.2,1.7c68.7,1.9,124.3,23,166.4,62.3,42.9,40.7,64.2,93.8,64.2,159.5h0ZM731.9,426c0-64.8-32.9-97.2-99.1-97.2s-70.6,2.5-73.1,7.5c-1.9,3.6-2.8,35.7-2.8,96.3s.3,21.3.8,38.2c.8,16.9,1.1,29.3,1.1,38.2s26.3,8.3,78.6,8.3,94.4-30.5,94.4-91.4h0Z"/>
    <g>
      <path class="st0" d="M342.6,550.7c2.2,4.3,2.7,12.1,3.1,21.7.4,12.9.1,26.5-.7,39.7-.2,108.8-118.9,174.5-220.6,171.3-23.3-1.6-16.4-15.3-7.4-30.4,33.3-55.7,21.8-120.3,23.8-182.2.4-7.2.7-17.2,4.4-21.9,3-3.8,8.2-3.8,12.7-3.9,9.8,0,25.3,0,43.1,0h116.4c13.1.5,20.7-2,25.2,5.5v.2c0,0,0,0,0,0ZM244.6,583.1c-8.2.1-13,11.1-17.1,18-11.3,21.9-28,57.6-4.5,76.7,20.1,14.7,47.8-1.2,50-24.9,2.2-18.5-6-37.1-14.1-53.4-4.6-8.5-8-15.2-14.1-16.5h-.2,0Z"/>
      <path class="st0" d="M145.3,516.1c1.5-4.7,6.3-10.2,9.8-14.3,10.3-12,23.3-21.6,31.7-35.2,11.8-18.5,11.8-40.4,10.4-61.8-2.7-38.5-10.5-76.9-12.8-115.3-3.5-36.6-.5-75.5,39.4-89.5,21-7,45.6-2.5,61,14.1,14.4,15.4,17.5,38.7,17.1,59.1-.4,51.9-15.1,105-13.8,157.1.9,34.1,21.9,48.5,42.3,72,8.6,11,15,19.5-1.2,18.7-32.1,0-119-.2-166.9,0-10-.3-18.4,1.7-17-4.7h0c0-.1,0-.2,0-.2Z"/>
    </g>
  </g>
</svg>