<?xml version="1.0" encoding="UTF-8"?>
<svg id="Capa_2" xmlns="http://www.w3.org/2000/svg" version="1.1" xmlns:xlink="http://www.w3.org/1999/xlink" viewBox="0 0 1014 1014">
  <!-- Generator: Adobe Illustrator 29.7.1, SVG Export Plug-In . SVG Version: 2.1.1 Build 8)  -->
  <defs>
    <style>
      .st0 {
        fill: #fff;
      }

      .st1 {
        fill: none;
      }

      .st2 {
        fill: #841468;
      }

      .st3 {
        fill: #ffe200;
        fill-rule: evenodd;
      }

      .st4 {
        clip-path: url(#clippath);
      }
    </style>
    <clipPath id="clippath">
      <rect class="st1" y="1.5" width="1014" height="1011" rx="229.5" ry="229.5"/>
    </clipPath>
  </defs>
  <g class="st4">
    <g>
      <rect class="st0" x="-79.3" y="-59.8" width="1160.4" height="1103.6"/>
      <path class="st2" d="M260.8-455.1h496.1c168.5,0,305.3,136.8,305.3,305.3v1360.3H-44.5V-149.8c0-168.5,136.8-305.3,305.3-305.3h0Z"/>
    </g>
  </g>
  <path class="st3" d="M798.2,418.9c0,70.3-19.1,127.3-57.6,170.6-41.4,46.6-98.3,69.4-170.6,69.4s-30.4-.6-55-1.8c-24.3-1.5-42.5-2-54.7-2s-19.6,5.2-19.6,15.9,1.1,33.5,4.1,59.9c2.9,26.3,4.1,46.3,4.1,59.2s-3.1,10.1-9.5,10.1c-18.5,0-46.3-.6-83.3-1.8-37-.8-64.5-1.5-83-1.5s-13.3-4.1-13.3-12.4c0-32.4.6-80.7,1.5-145.5,1.1-64.8,1.8-113.1,1.8-145.5,0-91.1-4.1-187.2-12.4-287.8l-.3-6.1c-.8-5.5,3.8-8.7,13.6-10.1,23.4-2.9,75.8-4.4,156.5-4.4s93.1.6,137.1,1.8c71.8,2,129.9,24,173.9,65.1,44.8,42.5,67.1,98,67.1,166.7h-.3ZM616.8,425.9c0-67.7-34.4-101.6-103.6-101.6s-73.8,2.6-76.4,7.8c-2,3.8-2.9,37.3-2.9,100.6s.3,22.3.8,39.9c.8,17.7,1.1,30.6,1.1,39.9s27.5,8.7,82.1,8.7,98.6-31.9,98.6-95.5h.1Z"/>
</svg>