<?xml version="1.0" encoding="UTF-8"?>
<svg id="Capa_2" xmlns="http://www.w3.org/2000/svg" version="1.1" viewBox="0 0 1014 1014">
  <!-- Generator: Adobe Illustrator 29.7.1, SVG Export Plug-In . SVG Version: 2.1.1 Build 8)  -->
  <defs>
    <style>
      .st0 {
        fill: #eb6313;
      }

      .st1 {
        fill: #fff;
      }
    </style>
  </defs>
  <rect class="st0" y="1.5" width="1014" height="1011" rx="229.5" ry="229.5"/>
  <g>
    <g>
      <path class="st1" d="M300.1,534.4c1.8,3.5,2.2,9.7,2.5,17.3.3,10.3.1,21.2-.5,31.7-.2,86.9-94.9,139.3-176.1,136.8-18.6-1.3-13.1-12.2-5.9-24.3,26.6-44.5,17.4-96,19-145.4.3-5.7.6-13.7,3.6-17.5,2.4-3,6.5-3,10.1-3.1,7.8,0,20.2,0,34.4,0h92.9c10.5.4,16.5-1.6,20.1,4.4h0c0,.1,0,.1,0,.1h0ZM221.9,560.3c-6.6,0-10.4,8.9-13.7,14.4-9,17.5-22.4,46-3.6,61.2,16,11.8,38.2-.9,39.9-19.8,1.8-14.8-4.8-29.7-11.3-42.7-3.7-6.8-6.4-12.1-11.2-13.1h-.1,0Z"/>
      <path class="st1" d="M142.7,506.7c1.2-3.7,5-8.1,7.8-11.4,8.2-9.6,18.6-17.2,25.3-28.1,9.4-14.8,9.4-32.2,8.3-49.3-2.2-30.8-8.3-61.4-10.2-92-2.8-29.2-.4-60.3,31.4-71.4,16.8-5.6,36.4-2,48.7,11.2,11.5,12.3,13.9,30.9,13.7,47.2-.3,41.4-12.1,83.8-11,125.4.7,27.2,17.5,38.7,33.8,57.5,6.9,8.8,11.9,15.6-1,15-25.6,0-95-.1-133.2,0-8-.2-14.7,1.3-13.6-3.8h0c0-.1,0-.1,0-.1Z"/>
    </g>
    <g>
      <path class="st1" d="M405.9,306.8c-19.6-.5-54.3.1-73.6,0-7.1-.4-6.4,6.9-6.3,12,.1,35.1.1,134.6.4,155.9.8,4.1,10.4,2.6,13.8,2.9h15.1c5.9.1,10.3-1.2,9.9-7.5,0-8.1,0-23.1,0-34.1.2-7-1.7-15,8-14.6,21.6-.5,46.4,2.4,65.5-9.6,49.8-32.2,25.3-104.2-32.5-105.1h-.2s0,0,0,0ZM418.8,379.4c-8.1,8-20.6,6.1-31.1,6.4-5.8,0-11.8.3-17.5-.1-3.7-.2-5.6-2.1-5.4-5.7,0-7.7,0-21.6,0-31.1-.3-7.2,4.3-6.4,9.8-6.5,5.3,0,10.8,0,16.1,0,8.4.1,15.6-.8,23.1,2.8,12.5,6,15.1,24.7,5.2,34.1l-.2.2h0Z"/>
      <path class="st1" d="M484.6,476.1c1.1.8,2.8,1,4.3,1.1,8.6,0,18.9.4,27.4-.3,2.2-.4,3-1.3,3-3.1.7-17.2-.2-89.1,0-114.4.5-8-1.7-9.5-9.8-9.2-6.5,0-14.1,0-20.8.1-2.2.2-6.1.2-6,3.1,0,10.1,0,50.8.1,84,0,13,0,24.8.1,33.3,0,1.9,0,4,1.6,5.2h.1c0,.1,0,.1,0,.1Z"/>
      <path class="st1" d="M500.2,296.4c-32.5,1.2-27,50.4,5,44.5,17.8-2.5,23.9-24.7,12.6-37.5-4.1-4.7-10.3-7.2-17.2-7.1h-.3s0,0,0,0Z"/>
      <path class="st1" d="M610.5,347.1c-9.5.1-18.9,3-26.5,8.7-8.4,6.6-6.5-5-14-5.5-6.5-.6-14.2,0-20.6-.2-3.3.2-9.5-.7-9.3,3.8-.8,19.4.2,98.8,0,118.4,0,1.8.2,3.4,2.1,4.3,7.6,1.8,16.7.3,24.7.7,4.2.2,10.4-.4,9.7-6,0-6.8,0-20.3,0-33.1.6-20.8-6.3-56.1,24-56.5,21.7.9,23.5,22.9,22.5,40,.2,17-.2,39.3.3,51.2,1.4,7.4,20.1,3.2,26.1,4.2,10.8.5,10.7-2.3,10.3-12.3-1.2-29.7,2.6-58.6-2.4-83.6-5.6-20.2-25.9-34.9-46.7-34.2h-.2,0Z"/>
      <path class="st1" d="M724.9,326.1c-.6-.7-1.8-.8-2.9-.9-5.8,0-22.5,0-28.8,0-5.1-.2-3.9,4.5-4.1,8.7,0,2.7,0,5.9,0,8.5,0,4.5,0,7-4.7,7.4-3.5.7-10.5-1.3-12.2,2.4-.9,6.9-.2,19.2-.3,25.4,0,2.6,1.5,3.8,4.2,3.9,3,.3,8.8-.2,11.4.6,1.5.5,1.7,1.7,1.7,3.9,0,7.6,0,27.2,0,39.2,0,8.1-.3,12.7,1.2,19.6,2.8,14.5,15.3,26.2,29.4,29.9,10.5,2.6,22.3,2.5,33,1.5,1.9-.6,1.9-2.5,2-4.2,0-5.7,0-18.3,0-24.3.7-6.4-6.2-4.9-10.9-5.2-10.8.7-18.7-6.5-18-16.9.1-8.5-.4-31,.1-42.2.3-1.5,1.6-1.8,4.7-1.9,30.9-.6,22.7,5,23.8-25.2,0-4.9-.2-6.4-4-6.5-2.5-.1-5,0-7.6,0-4.6-.5-12.9,1.2-16.2-1.1-.6-.6-.7-1.5-.8-2.4-.7-5.1.7-15.3-.9-20.1v-.2c-.1,0-.1,0-.1,0h0Z"/>
      <path class="st1" d="M833.1,346.5c-35.6-.8-66.9,28.5-66.9,64.5-2.2,43.6,38,74.6,79.8,68,10.7-1.4,20.4-5,29.3-10.8,7.5-5,14.2-11.5,18.7-19.3,1.5-3.1,0-4.1-3.9-5.1-6.6-1.5-18.4-4.3-24.2-5.4-6.2-1.3-9.7,3.9-14.8,6.3-15,7.8-35.9,2.5-43.8-12.9-1.6-3.1-2.5-4.9-.3-5.4,20.3-.4,74.2,0,90.1-.4,1.5-.3,2.1-1.2,2.6-2.8.7-2.7,1-7.2,1-10.4,1-36.6-30.8-67.5-67-66.4h-.6ZM804.9,398c6.3-20,33.8-26.7,49.3-12.7,3.7,3.2,8.1,8.5,9,13,0,.4-.2.6-.6.8-7.8.4-34.4,0-46.6.2-5,0-8.8.1-10.4,0-.5-.1-.8-.4-.7-1v-.2s0,0,0,0h0Z"/>
      <path class="st1" d="M449.4,511.4c-11.3,11.7-25.8,41.6-34.6,53.1-.6.8-1.3,1.8-2.1,1.9-2.8-.3-4.6-5.5-6.3-7.8-7.9-13.1-16.8-28.1-24.8-41.5-1.1-1.8-2.4-3.8-4.1-5-4.6-2.8-10.5-1.4-15.6-1.7-8.8,0-18.5,0-27.1,0-2.3.2-10.6-.7-8.2,2.9,7.9,12.8,44,67.1,60.2,93.8,2,3.2,3,6,2.9,9.9.2,14.1-.2,31.8,0,46.4.1,6.7,0,11.6.5,15.9,1.1,4.7,8.6,2.6,12.3,3.1,9.3-.3,20.4.5,29.6-.5,6.1-1.3,3.3-9.5,3.9-15,.4-19.5-1-41.8.4-56.4,2.2-6.9,6.4-10.7,10.2-17.3,14.6-22,40.4-60.5,51.6-78.4.8-1.2,2-3.5.6-4.3-1.3-.7-3.3-.6-5-.6-12.2.7-31.9-1.6-44,1.1h-.1c0,0,0,0,0,0h0Z"/>
      <path class="st1" d="M534,511.2c-21.7,39.2-62.6,150.1-72,168.9-.8,2.4,4.4,2.1,6.1,2.3,8.8.2,19.4,0,28.2,0,2.9,0,6.1.1,8.9-.5,5.9-1.3,6.7-9,9.1-13.8,2.5-6.8,4.7-11.9,12.5-11.1,7.2,0,19.6,0,30.7,0,4.9,0,9.3,0,14,0,3.5,0,7.4-.4,10.6.7,6,2.5,7.1,11.2,9.8,16.6,3.2,9.3,9.3,8,17.4,8,10-.2,20.7.3,30-.3,1.3-.2,3.1-.8,2.6-2.4-9.4-22.3-50.8-121-69.5-165.3-2.3-5.5-9-3.9-13.8-4.2-6.2,0-13.4,0-19.5,0-1.7,0-3.5.3-4.8,1h-.2c0,.1,0,.1,0,.1ZM535.2,616.6c-.5-1,0-2.6.4-3.8,3.6-9.7,9.5-23.5,13.8-33.6.6-1.2,1.7-5,3.2-3.2,4.4,8.8,12,28.4,16,38.2,1.4,3.9-3.9,3.6-6.4,3.6-6.2,0-13.3,0-20,0-2.2-.2-5.4.5-7-1.2h0c0,0,0-.1,0-.1Z"/>
      <path class="st1" d="M670.3,642.3c-28.4,1.1-25,46,4.5,41.2,16.3-2.2,21.6-23.1,11.5-34.7-3.7-4.3-9.4-6.7-15.7-6.6h-.3s0,0,0,0Z"/>
      <path class="st1" d="M686.5,622.9c1.4-1.3,1.5-3.5,1.7-5.3,1.3-27.2,4.5-88.2,5.1-104.1.4-3.7-4.4-3.5-7-3.6-7.9,0-18,0-26,0-3.8.4-12.9-1.5-12.5,4,.8,16.2,4.7,89.3,5.7,106.2,0,1.8.7,3.1,2.7,3.7,5.5,1.1,10.6.3,16.4.6,4.2-.2,11.7.6,13.8-1.3h.1c0,0,0-.1,0-.1Z"/>
    </g>
  </g>
</svg>