<?xml version="1.0" encoding="UTF-8"?>
<svg id="Capa_2" xmlns="http://www.w3.org/2000/svg" version="1.1" viewBox="0 0 620.9 128.2">
  <!-- Generator: Adobe Illustrator 29.7.1, SVG Export Plug-In . SVG Version: 2.1.1 Build 8)  -->
  <defs>
    <style>
      .st0 {
        fill: #f0f0f0;
      }

      .st1 {
        fill: #ffe200;
        fill-rule: evenodd;
      }
    </style>
  </defs>
  <path class="st1" d="M619.5,96.4c0,8.4-3.7,15.7-11.1,21.7-6.5,5.3-14.4,8.7-23.8,10.1h-.8c-1,0-3.2-2.9-6.7-8.7-3.4-5.8-5.1-9.4-5.1-10.7s.3-.7,1-.9c6.3-1.4,10.5-2.5,12.5-3.5,4.5-2.2,6.8-5.4,6.8-9.6s-1.5-5.8-4.4-9.1c-5.1-5.6-7.9-8.8-8.4-9.4-3-4.3-4.5-9.1-4.5-14.4,0-7.6,3.7-13.9,11-19,6-4.1,13.3-6.8,22.1-8.1h1.1c.7,0,1.2.5,1.5,1.5,1.2,3,3.8,8.5,7.9,16.5,0,.2.2.5.2.6,0,.7-.4,1.1-1.2,1.1s-.9,0-1.7-.2c-.8-.1-1.4-.2-1.9-.2-3.1,0-5.8.7-8.2,2.1-2.8,1.6-4.2,3.8-4.2,6.6s1.5,5.7,4.7,9.4c5.5,6.6,8.4,10.1,8.6,10.5,3.1,4.6,4.6,9.1,4.6,13.7h0ZM79.8,71c0,10.1-2.7,18.2-8.2,24.4-5.9,6.7-14.1,9.9-24.4,9.9s-4.3,0-7.9-.2c-3.5-.2-6.1-.3-7.8-.3s-2.8.7-2.8,2.3.2,4.8.6,8.6.6,6.6.6,8.5-.5,1.4-1.4,1.4c-2.6,0-6.6,0-11.9-.2-5.3-.1-9.2-.2-11.9-.2s-1.9-.6-1.9-1.8c0-4.6,0-11.5.2-20.8s.2-16.2.2-20.8c0-13-.6-26.8-1.8-41.2v-.9c-.2-.8.5-1.2,1.9-1.4,3.4-.4,10.8-.6,22.4-.6s13.3,0,19.6.2c10.3.3,18.6,3.4,24.9,9.3,6.4,6.1,9.6,14,9.6,23.8h0ZM53.9,72c0-9.7-4.9-14.5-14.8-14.5s-10.6.4-10.9,1.1c-.3.5-.4,5.3-.4,14.4s0,3.2.1,5.7.2,4.4.2,5.7,3.9,1.2,11.8,1.2,14.1-4.6,14.1-13.7h-.1ZM115.2,79c0,4.9,0,12.3.4,22.1.2,9.9.4,17.3.4,22.2s-.2,1.3-.6,1.5c0,0-.7.1-1.7.2-2.9.3-6.6.5-11.3.5s-10.4-.2-12.1-.5c-1.2-.2-1.9-.9-1.9-1.9,0,.7.2-3,.5-11,.8-16.8,1.2-27.9,1.2-33.2s-.2-11.1-.5-20-.5-15.6-.5-20.1.5-1.4,1.5-1.4,3.4,0,6.1.2c2.7.1,4.8.2,6.1.2s3.4,0,6-.2c2.6-.1,4.6-.2,6-.2s1.9.5,1.9,1.4c0,4.5-.2,11.1-.7,20.1-.5,8.9-.7,15.6-.7,20h-.1ZM215.5,39.5c0,4.8-.2,11.9-.6,21.4-.4,9.5-.6,16.7-.6,21.4v41.1c0,1.1-.7,1.7-1.9,1.7s-2.6,0-4.7.1c-2.1,0-3.7.1-4.7.1s-2.8,0-5-.2c-2.3-.2-4-.2-5.1-.2s-1.7-.7-2.8-2c-3.1-4.1-10.1-13-21.1-26.9-3-3.8-7.5-9.6-13.7-17.1-.2-.2-.5-.5-1-.7-.3.3-.5.7-.5,1.4,0,4.8.1,12.1.4,21.7.3,9.6.4,16.9.4,21.7s-.6,2.2-1.7,2.2h-22.5c-1.3,0-1.9-.6-1.9-1.9,0-4.5.2-11.3.7-20.3.5-9.1.7-15.8.7-20.4s-.2-11.9-.6-21.5c-.4-9.5-.6-16.6-.6-21.4s.8-1.4,2.5-1.4c2.5,0,5.6-.2,9.3-.5.9,0,2.6-.3,5.1-.8,2.2-.3,3.9-.5,5.1-.5s1.4.7,2.4,2.2l24.3,31.9c2.2,2.9,5.5,7.1,9.8,12.6,1.1,1.3,2,1.9,2.8,1.9s.8-1.6.8-4.9-.2-10.9-.7-19.7-.7-15.4-.7-19.8.5-2.3,1.4-2.3c2.6,0,6.5,0,11.8-.3,5.3-.2,9.2-.3,11.8-.3s1.2.7,1.2,1.9h0v-.2ZM291.1,56.7c0,.8-.5,1.2-1.4,1.2-1.7,0-8.2-.3-19.6-1-.3,10.5-.4,17.9-.4,22s.2,12.3.6,22.1c.4,9.9.6,17.3.6,22.2s-.2,1.3-.6,1.5c-.1,0-.7.2-1.8.3-2.6.3-6.4.5-11.5.5s-9.5-.2-11.8-.5c-1.2-.2-1.8-.8-1.8-1.9,0-4.9.2-12.2.6-22.1.4-9.8.7-17.2.7-22.1s-.2-10.5-.5-21.7c-8.7.8-15.6,1.3-20.8,1.3s-1-.2-1-.6.3-2.2.9-4.8c.7-2.9,1.1-4.7,1.2-5.3.2-1.9.3-3.9.5-5.8.3-3.1.9-4.7,1.6-4.7h.9c7,.9,17.4,1.3,31.2,1.3s11.1-.4,21.6-1.2c5.7-.4,8.5-.6,8.6-.6.8,0,1.3,0,1.5.2.1.1.2.5.2,1.2,0,1.2,0,2.7-.1,4.7,0,2.2-.1,3.7-.1,4.6s.1,2.6.4,4.6.4,3.5.4,4.6h-.1ZM364.8,105.7c0,1.8-.4,5-1.1,9.8-.8,5.2-1.5,8.3-2.1,9.3-.5.8-1.2,1.2-2.2,1.2s-1,0-1.9-.2c-3.1-.4-12.4-.6-27.7-.6s-8.3,0-14.9,0h-14.8c-3.3,0-2.2-.6-2.2-1.8,0-4.7.3-11.7.8-21,.6-9.3.8-16.3.8-21s-.2-13.6-.8-26.5c-.1-3.3-.4-8.3-.7-14.9v-.9c-.1-1,.4-1.4,1.6-1.4,3.2,0,8,0,14.5.2s11.3.2,14.5.2,7.9,0,14.3-.2,11.2-.2,14.3-.2,3.6.8,3.9,2.4c.2,1,.5,3.8,1,8.7.5,4.8.7,7.7.7,8.8s-.5,1.3-1.3,1.3h-1.4c-11.5-.9-21.9-1.4-31.1-1.4s-3.7.5-4.2,1.6c-.2.5-.3,2.1-.3,4.8s.5,4.7,1.3,5.6c.7.8,2.1,1.2,4.2,1.2h5.6c5.5,0,11-.1,16.6-.4.5,0,1.7-.2,3.6-.3,1.5-.2,2.6-.2,3.5-.2s1.6.5,1.6,1.4c0-.9-.4,2.3-1.2,9.5-.4,3.4-.5,6.7-.5,10s-.6,1.2-1.9,1.2c0,0-2-.2-5.9-.7-2.5-.2-8.1-.3-16.9-.3h-6.9c-1.8,0-2.8.4-3.1,1.2v3.8c0,2.3.2,5.2.6,6.1.8,1.6,3.6,2.5,8.4,2.8h9.5c6.4,0,5.7-.2,10.3-.6,4.5-.4,7.9-.6,10.2-.6s1.4.7,1.4,2.3h0v-.2ZM470.5,123.1c0,1.3-.7,1.9-1.9,1.9h-23c-1.2,0-1.9-.7-1.9-2.2,0-4.2.1-10.5.5-18.9.3-8.4.5-14.7.5-18.9s-.2-1.9-.6-1.9c-.5.2-3.4,6.7-8.7,19.3-3.1,7.4-6.2,14.8-9.4,22.1-.5,1-1,1.5-1.7,1.7h-2.6c-2.2,0-3.6-.5-4-1.3-2.4-4.6-5.4-11.2-9.3-19.9-4.1-9.2-7.2-15.9-9.1-20-.1-.2-.3-.4-.6-.7-.3.4-.5,1-.5,1.8,0,4.1.1,10.2.3,18.3.2,8.2.3,14.3.3,18.3s-.6,2.2-1.8,2.2h-21.7c-.9,0-1.4-.1-1.6-.4-.2-.2-.3-.7-.3-1.4,0-4.6.2-11.4.7-20.4.5-9.1.7-15.9.7-20.4s-.2-13.9-.7-27.1c0-3.5-.2-8.6-.6-15.4v-1.1c0-.8.8-1.2,2.7-1.2s6,0,10.7-.2c4.8-.1,8.4-.2,10.7-.2s1.2.9,2,2.6l19,40c1.3,2.7,2.5,4.1,3.4,4.1s1.5-1.6,3.1-4.7c4.4-8.7,10.8-21.9,19.4-39.5.7-1.6,1.5-2.4,2.4-2.4,1.3,0,3.1,0,5.7.2,2.6.1,4.5.2,5.8.2s2.7,0,5-.3c2.2-.2,3.9-.3,5-.3s1.9.5,1.9,1.5c0,4.9-.2,12.2-.5,22-.4,9.7-.6,17.1-.6,22s.2,11.3.6,20.4c.4,9.1.6,15.8.6,20.3h.1ZM568.5,123.6c0,.7-.6,1.2-1.7,1.5-1.3.3-5.3.5-12.1.5s-10.2-.2-12-.5c-1.5-.3-2.4-1.2-2.8-2.8-1.5-6-2.6-9.1-3.5-9.6-.7-.3-6.5-.5-17.5-.5s-11.3.2-11.8.6c-.7.7-1.6,2.9-2.5,6.7-.8,3.5-1.8,5.3-3,5.6-1.5.3-6.4.5-14.8.5s-10-.6-10-1.8,4.9-14.3,14.7-39.9c10.6-27.6,16.4-42.7,17.3-45.4.5-1.6,1.1-2.4,1.8-2.4,1.2,0,3,.1,5.5.3,2.4.2,4.3.3,5.5.3s2.9,0,5.2-.2c2.3-.1,4-.2,5.1-.2s1.6.7,2.3,2c2.1,4.4,8.4,19.4,18.6,44.9,10.3,25.7,15.5,39.1,15.5,40.3h.2ZM522.3,66.7c-.9,1.9-2.4,5.8-4.6,11.9-2.3,6.5-3.5,10.3-3.5,11.4s1.3,1.2,3.9,1.2,3.6.1,6.6.1,4.5-.3,4.8-1c0-.2,0-.5,0-.9,0-1.4-1-5.2-3-11.3-1.9-6-3.4-9.8-4.3-11.5h0Z"/>
  <g>
    <path class="st0" d="M36.3,21.7h-4V.6h9.5c2.1,0,3.8.7,5.2,2s2.1,2.9,2.1,4.9-.7,3.6-2.1,4.9c-1.4,1.3-3.1,2-5.2,2h-5.4v7.5-.2ZM36.3,4.3v6.2h5.4c1.8,0,3.1-1.3,3.1-3.1s-1.3-3.1-3.1-3.1h-5.4Z"/>
    <path class="st0" d="M88.2,21.7V.6h4v21.1h-4Z"/>
    <path class="st0" d="M131.9,21.7V.6h3.6l11.1,14.2V.6h3.9v21.1h-3.6l-11.1-14.2v14.2h-3.9Z"/>
    <path class="st0" d="M189.3,4.3V.6h18.1v3.7h-7v17.4h-4.1V4.3h-7Z"/>
    <path class="st0" d="M260.1.5h4v12.6c0,2.5-.9,4.6-2.7,6.4-1.8,1.7-4,2.6-6.6,2.6s-4.8-.8-6.6-2.6c-1.8-1.7-2.6-3.8-2.6-6.4V.5h4v12.6c0,1.5.5,2.7,1.5,3.7s2.2,1.5,3.7,1.5,2.7-.5,3.7-1.5,1.5-2.2,1.5-3.7V.5h.1Z"/>
    <path class="st0" d="M313.4.5c2.1,0,3.8.7,5.2,2,1.4,1.3,2.1,2.9,2.1,4.9s-1.6,5.1-4,6.2l4.8,8.1h-4.5l-4.4-7.5h-4.9v7.5h-4V.6h9.8-.1ZM307.7,4.3v6.2h5.7c1.8,0,3.1-1.3,3.1-3.1s-1.3-3.1-3.1-3.1h-5.7Z"/>
    <path class="st0" d="M375.8.5v3.7h-11.5v4.8h9.9v3.7h-9.9v5.1h11.7v3.7h-15.7V.4h15.6-.1Z"/>
    <path class="st0" d="M424.7.5c2.1,0,3.8.7,5.2,2,1.4,1.3,2.1,2.9,2.1,4.9s-1.6,5.1-4,6.2l4.8,8.1h-4.5l-4.4-7.5h-4.9v7.5h-4V.6h9.8-.1ZM419,4.3v6.2h5.7c1.8,0,3.1-1.3,3.1-3.1s-1.3-3.1-3.1-3.1h-5.7Z"/>
    <path class="st0" d="M471.5,21.7V.6h4v21.1h-4Z"/>
    <path class="st0" d="M513.8,21.7l9.1-21.1h3.3l9.1,21.1h-4.3l-1.7-4h-9.6l-1.7,4h-4.3.1ZM524.5,6.3l-3.2,7.7h6.4l-3.2-7.7Z"/>
    <path class="st0" d="M583.7,6c-.3-1.1-1.7-2.1-3.4-2.1s-3.2,1-3.2,2.2.6,1.4,1.9,2c.6.2,1.7.6,3.5,1.1,1.3.4,1.8.5,3.1,1.2.6.3,1.1.7,1.5,1.1.7.8,1.4,2.2,1.4,3.8s-.7,3.7-2.2,4.9c-1.4,1.2-3.3,1.8-5.6,1.8s-3.9-.5-5.4-1.4c-1.5-1-2.4-2.2-2.9-3.7l4-1.2c.3,1.3,2,2.4,4.2,2.4s3.8-1,3.8-2.4-.4-1.1-.8-1.5c-.2-.2-.5-.3-.9-.5-.8-.4-.9-.4-1.7-.6-2.5-.8-4.2-1.4-5.1-1.8-2-1.1-3-2.7-3-4.9s.7-3.4,2-4.6c1.4-1.2,3.1-1.8,5.2-1.8s3.5.5,4.8,1.4c1.4.9,2.3,2,2.7,3.4l-4,1.2h.1Z"/>
  </g>
</svg>