<?xml version="1.0" encoding="UTF-8"?>
<svg id="Capa_2" xmlns="http://www.w3.org/2000/svg" version="1.1" viewBox="0 0 620.9 334">
  <!-- Generator: Adobe Illustrator 29.7.1, SVG Export Plug-In . SVG Version: 2.1.1 Build 8)  -->
  <defs>
    <style>
      .st0 {
        fill: #f0f0f0;
      }

      .st1 {
        fill: #ffe200;
        fill-rule: evenodd;
      }
    </style>
  </defs>
  <path class="st1" d="M613.3,186.6c0,8.3-3.6,15.4-10.9,21.3-6.4,5.2-14.1,8.5-23.3,9.9-.3,0-.6,0-.8,0-1,0-3.1-2.8-6.5-8.6-3.3-5.7-5-9.2-5-10.5s.3-.7,1-.9c6.2-1.3,10.3-2.5,12.2-3.4,4.4-2.1,6.6-5.3,6.6-9.4s-1.5-5.6-4.3-8.9c-5-5.5-7.7-8.6-8.2-9.2-2.9-4.3-4.4-9-4.4-14.1,0-7.5,3.6-13.7,10.8-18.6,5.8-4.1,13.1-6.7,21.6-7.9.4,0,.8,0,1.1,0,.6,0,1.1.5,1.5,1.5,1.1,3,3.7,8.4,7.7,16.1.1.2.2.4.2.6,0,.7-.4,1.1-1.1,1.1s-.9,0-1.7-.2c-.8-.1-1.4-.2-1.9-.2-3,0-5.7.6-8,2-2.8,1.5-4.1,3.7-4.1,6.4s1.5,5.6,4.6,9.2c5.4,6.5,8.2,9.9,8.5,10.3,3,4.5,4.5,8.9,4.5,13.4h0ZM84.6,161.7c0,9.9-2.7,17.8-8.1,23.9-5.8,6.5-13.8,9.7-23.9,9.7s-4.3,0-7.7-.2c-3.4-.2-6-.3-7.7-.3s-2.8.7-2.8,2.2.2,4.7.6,8.4c.4,3.7.6,6.5.6,8.3s-.4,1.4-1.3,1.4c-2.6,0-6.5,0-11.7-.2-5.2-.1-9-.2-11.6-.2s-1.9-.6-1.9-1.7c0-4.5,0-11.3.2-20.4.2-9.1.2-15.9.2-20.4,0-12.8-.6-26.2-1.7-40.3v-.9c-.2-.8.5-1.2,1.9-1.4,3.3-.4,10.6-.6,21.9-.6s13.1,0,19.2.2c10.1.3,18.2,3.4,24.4,9.1,6.3,6,9.4,13.7,9.4,23.4h0ZM59.2,162.7c0-9.5-4.8-14.2-14.5-14.2s-10.3.4-10.7,1.1c-.3.5-.4,5.2-.4,14.1s0,3.1.1,5.6c.1,2.5.2,4.3.2,5.6s3.9,1.2,11.5,1.2,13.8-4.5,13.8-13.4h0ZM119.2,169.6c0,4.8.1,12,.4,21.7.2,9.7.4,16.9.4,21.7s-.2,1.3-.6,1.5c-.1,0-.7.1-1.7.2-2.8.3-6.5.5-11.1.5s-10.2-.2-11.9-.5c-1.2-.2-1.8-.9-1.8-1.9,0,.6.2-2.9.5-10.7.8-16.5,1.2-27.3,1.2-32.5s-.2-10.9-.4-19.6c-.3-8.8-.4-15.3-.4-19.7s.5-1.3,1.5-1.3,3.3,0,6,.2c2.7.1,4.7.2,6,.2s3.3,0,5.8-.2c2.6-.1,4.5-.2,5.8-.2s1.9.4,1.9,1.3c0,4.4-.2,10.9-.7,19.7-.5,8.7-.7,15.2-.7,19.6h0ZM217.6,130.9c0,4.7-.2,11.6-.6,20.9-.4,9.3-.6,16.3-.6,21v40.3c0,1.1-.6,1.6-1.9,1.6s-2.6,0-4.6.1c-2.1,0-3.6.1-4.6.1s-2.8,0-4.9-.2c-2.2-.2-3.9-.2-5-.2s-1.7-.6-2.8-2c-3.1-4-9.9-12.7-20.7-26.3-2.9-3.8-7.4-9.4-13.4-16.7-.2-.2-.5-.5-1-.7-.3.3-.5.7-.5,1.3,0,4.7.1,11.8.4,21.3.3,9.4.4,16.5.4,21.2s-.6,2.1-1.7,2.1h-22.1c-1.3,0-1.9-.6-1.9-1.9,0-4.4.2-11,.6-19.9.4-8.9.7-15.5.7-20s-.2-11.7-.6-21c-.4-9.3-.6-16.3-.6-21s.8-1.3,2.5-1.3c2.5,0,5.5-.2,9.1-.5.9,0,2.6-.3,5-.8,2.1-.3,3.8-.5,5-.5s1.3.7,2.4,2.1l23.8,31.2c2.1,2.8,5.4,6.9,9.6,12.3,1.1,1.3,2,1.9,2.8,1.9s.8-1.6.8-4.8-.2-10.7-.7-19.3c-.5-8.6-.7-15-.7-19.4s.4-2.3,1.3-2.3c2.6,0,6.4,0,11.6-.3,5.1-.2,9-.3,11.6-.3s1.2.6,1.2,1.9h0ZM291.6,147.7c0,.8-.4,1.2-1.4,1.2-1.7,0-8.1-.3-19.2-.9-.3,10.3-.4,17.5-.4,21.6s.2,12,.6,21.7c.4,9.7.6,16.9.6,21.7s-.2,1.3-.6,1.5c-.1,0-.7.2-1.8.3-2.6.3-6.3.5-11.2.5s-9.3-.2-11.5-.5c-1.2-.2-1.8-.8-1.8-1.9,0-4.8.2-12,.6-21.6.4-9.6.6-16.8.6-21.6s-.2-10.3-.5-21.3c-8.5.8-15.3,1.3-20.4,1.3s-1-.2-1-.6.3-2.1.9-4.7c.7-2.9,1.1-4.6,1.1-5.2.2-1.9.3-3.8.4-5.7.3-3.1.9-4.6,1.5-4.6s.4,0,.9,0c6.9.9,17.1,1.3,30.6,1.3s10.9-.4,21.2-1.2c5.6-.4,8.3-.6,8.4-.6.8,0,1.3,0,1.5.2.1.1.2.5.2,1.2,0,1.1,0,2.6-.1,4.6,0,2.1-.1,3.6-.1,4.5s.1,2.5.4,4.5c.3,2,.4,3.4.4,4.5h0ZM363.8,195.8c0,1.7-.4,4.9-1.1,9.6-.8,5.1-1.5,8.1-2.1,9.1-.5.8-1.2,1.2-2.1,1.2s-1,0-1.9-.2c-3.1-.4-12.2-.6-27.2-.6s-8.1,0-14.6,0c-6.4,0-11.3,0-14.5,0s-2.1-.6-2.1-1.7c0-4.6.3-11.4.8-20.6.6-9.1.8-16,.8-20.6s-.2-13.3-.8-26c-.1-3.2-.4-8.1-.7-14.6v-.9c-.1-.9.4-1.4,1.5-1.4,3.2,0,7.9,0,14.2.2,6.3.2,11,.2,14.2.2s7.8,0,14-.2c6.2-.2,10.9-.2,14-.2s3.5.8,3.9,2.4c.2.9.5,3.8,1,8.6.4,4.7.7,7.6.7,8.6s-.4,1.3-1.3,1.3-.7,0-1.3,0c-11.3-.9-21.5-1.3-30.5-1.3s-3.6.5-4.1,1.5c-.2.4-.3,2-.3,4.7s.4,4.6,1.3,5.5c.7.8,2.1,1.1,4.1,1.1s1.3,0,2.5,0c1.2,0,2.3,0,3.1,0,5.4,0,10.7-.1,16.3-.4.5,0,1.6-.2,3.5-.3,1.5-.2,2.6-.2,3.4-.2s1.5.5,1.5,1.4c0-.9-.4,2.3-1.1,9.3-.4,3.3-.5,6.5-.5,9.8s-.6,1.2-1.8,1.2c0,0-1.9-.2-5.8-.6-2.4-.2-7.9-.3-16.6-.3h-6.8c-1.7,0-2.8.4-3.1,1.2,0,.2,0,1.5,0,3.8s.2,5.1.6,6c.8,1.5,3.5,2.5,8.2,2.8,0,0,3,0,9.3,0s5.6-.2,10.1-.6c4.4-.4,7.7-.6,10-.6s1.4.7,1.4,2.2h0ZM467.4,212.8c0,1.3-.6,1.9-1.9,1.9h-22.6c-1.2,0-1.8-.7-1.8-2.1,0-4.1.1-10.3.4-18.5.3-8.2.5-14.4.5-18.5s-.2-1.8-.6-1.9c-.5.2-3.3,6.6-8.6,18.9-3.1,7.3-6.1,14.5-9.2,21.7-.4.9-1,1.5-1.6,1.7-.2,0-1.1,0-2.6,0-2.2,0-3.5-.4-3.9-1.3-2.3-4.5-5.3-11-9.1-19.5-4-9-7-15.6-9-19.6-.1-.2-.3-.4-.6-.7-.3.4-.4,1-.4,1.8,0,4,.1,10,.3,18,.2,8,.3,14,.3,18s-.6,2.1-1.8,2.1h-21.3c-.9,0-1.4-.1-1.6-.4-.2-.2-.3-.7-.3-1.3,0-4.5.2-11.1.6-20,.4-8.9.7-15.6.7-20s-.2-13.6-.6-26.6c0-3.4-.2-8.4-.6-15.1v-1.1c0-.8.8-1.2,2.6-1.2s5.8,0,10.5-.2c4.7-.1,8.2-.2,10.5-.2s1.1.9,2,2.6l18.6,39.2c1.3,2.7,2.4,4,3.3,4s1.5-1.5,3-4.6c4.3-8.6,10.6-21.4,19.1-38.7.7-1.6,1.5-2.4,2.4-2.4,1.3,0,3.1,0,5.6.2,2.5.1,4.4.2,5.6.2s2.7,0,4.9-.3c2.1-.2,3.8-.3,4.9-.3s1.9.5,1.9,1.5c0,4.8-.2,12-.5,21.5-.4,9.5-.6,16.7-.6,21.5s.2,11.1.6,20c.4,8.9.6,15.5.6,19.9h0ZM563.4,213.2c0,.7-.6,1.2-1.6,1.5-1.3.3-5.2.5-11.8.5s-10-.2-11.8-.5c-1.5-.3-2.4-1.2-2.7-2.8-1.5-5.8-2.6-9-3.4-9.4-.7-.3-6.4-.4-17.1-.4s-11.1.2-11.5.6c-.7.6-1.5,2.8-2.4,6.5-.8,3.4-1.8,5.2-3,5.5-1.5.3-6.3.5-14.5.5s-9.8-.6-9.8-1.8,4.8-14,14.4-39c10.4-27,16.1-41.8,16.9-44.5.5-1.6,1.1-2.4,1.8-2.4,1.2,0,2.9.1,5.4.3,2.4.2,4.2.3,5.4.3s2.9,0,5.1-.2c2.3-.1,3.9-.2,5-.2s1.5.6,2.2,2c2.1,4.3,8.2,19,18.2,44,10.1,25.2,15.2,38.4,15.2,39.5h0ZM518.1,157.5c-.9,1.8-2.4,5.7-4.5,11.7-2.3,6.4-3.4,10.1-3.4,11.2s1.3,1.1,3.9,1.2c1.3,0,3.5.1,6.5.1s4.4-.3,4.7-1c0-.2.1-.5.1-.9,0-1.3-1-5.1-2.9-11.1-1.9-5.9-3.3-9.6-4.2-11.3h0Z"/>
  <g>
    <path class="st0" d="M42,113.4h-4v-20.7h9.3c2,0,3.7.7,5.1,1.9,1.4,1.3,2.1,2.9,2.1,4.8s-.7,3.5-2.1,4.8c-1.4,1.3-3,1.9-5.1,1.9h-5.3v7.3ZM42,96.4v6.1h5.3c1.7,0,3-1.3,3-3s-1.3-3-3-3h-5.3Z"/>
    <path class="st0" d="M92.8,113.4v-20.7h4v20.7h-4Z"/>
    <path class="st0" d="M135.7,113.4v-20.7h3.5l10.9,13.9v-13.9h3.8v20.7h-3.5l-10.9-13.9v13.9h-3.8Z"/>
    <path class="st0" d="M191.8,96.4v-3.7h17.7v3.7h-6.9v17h-4v-17h-6.9Z"/>
    <path class="st0" d="M261.3,92.7h4v12.4c0,2.5-.9,4.6-2.6,6.2-1.7,1.7-3.9,2.5-6.4,2.5s-4.7-.8-6.4-2.5c-1.7-1.7-2.6-3.8-2.6-6.2v-12.4h4v12.4c0,1.4.5,2.7,1.4,3.6,1,1,2.2,1.4,3.6,1.4s2.7-.5,3.6-1.4c1-1,1.4-2.2,1.4-3.6v-12.4Z"/>
    <path class="st0" d="M313.4,92.7c2,0,3.7.7,5.1,1.9,1.4,1.3,2.1,2.9,2.1,4.8,0,2.7-1.5,5-3.9,6l4.7,8h-4.4l-4.3-7.3h-4.8v7.3h-4v-20.7h9.6ZM307.8,96.4v6.1h5.6c1.7,0,3-1.3,3-3s-1.3-3-3-3h-5.6Z"/>
    <path class="st0" d="M374.6,92.7v3.7h-11.3v4.7h9.7v3.7h-9.7v5h11.4v3.7h-15.4v-20.7h15.3Z"/>
    <path class="st0" d="M422.5,92.7c2,0,3.7.7,5.1,1.9,1.4,1.3,2.1,2.9,2.1,4.8,0,2.7-1.5,5-3.9,6l4.7,8h-4.4l-4.3-7.3h-4.8v7.3h-4v-20.7h9.6ZM416.9,96.4v6.1h5.6c1.7,0,3-1.3,3-3s-1.3-3-3-3h-5.6Z"/>
    <path class="st0" d="M468.3,113.4v-20.7h4v20.7h-4Z"/>
    <path class="st0" d="M509.8,113.4l8.9-20.7h3.2l8.9,20.7h-4.2l-1.6-3.9h-9.4l-1.6,3.9h-4.2ZM520.3,98.4l-3.2,7.5h6.3l-3.1-7.5Z"/>
    <path class="st0" d="M578.3,98.1c-.3-1.1-1.7-2-3.3-2s-3.1,1-3.1,2.2.6,1.4,1.9,2c.6.2,1.7.6,3.4,1.1,1.3.4,1.8.5,3.1,1.2.6.3,1.1.7,1.5,1.1.7.7,1.4,2.1,1.4,3.8s-.7,3.6-2.2,4.8c-1.4,1.2-3.3,1.8-5.5,1.8s-3.8-.5-5.3-1.4c-1.4-1-2.4-2.2-2.8-3.6l4-1.2c.3,1.3,2,2.4,4.1,2.4s3.7-1,3.7-2.4-.4-1.1-.7-1.4c-.2-.1-.5-.3-.9-.5-.7-.4-.9-.4-1.7-.6-2.5-.7-4.1-1.3-5-1.8-2-1.1-3-2.7-3-4.8s.7-3.4,2-4.5c1.3-1.2,3-1.7,5.1-1.7s3.4.4,4.7,1.3c1.3.9,2.2,2,2.6,3.3l-4,1.2Z"/>
  </g>
</svg>