<?xml version="1.0" encoding="UTF-8"?>
<svg id="Capa_2" xmlns="http://www.w3.org/2000/svg" version="1.1" viewBox="0 0 675.3 274">
  <!-- Generator: Adobe Illustrator 29.7.1, SVG Export Plug-In . SVG Version: 2.1.1 Build 8)  -->
  <defs>
    <style>
      .st0 {
        fill: #fde414;
      }

      .st1 {
        fill: #f7e100;
      }

      .st2 {
        fill: #fff;
      }

      .st3 {
        fill: #841468;
      }
    </style>
  </defs>
  <path class="st3" d="M632.8,274H0V42.5C0,19,19,0,42.5,0h590.3C656.3,0,675.3,19,675.3,42.5v189c0,23.5-19,42.5-42.5,42.5Z"/>
  <rect class="st1" x="40.3" y="113.4" width="594" height="6.7" rx="3.3" ry="3.3"/>
  <g>
    <path class="st2" d="M45.1,171.1v14.1h-4.7v-36.9h16.2c3.4,0,6.3,1.1,8.5,3.3,2.3,2.2,3.4,4.9,3.4,8.1s-1.1,5.9-3.4,8.1c-2.3,2.2-5.1,3.3-8.5,3.3h-11.4ZM56.5,152.8h-11.4v13.9h11.4c2,0,3.7-.7,5-2s2-3,2-5-.7-3.7-2-5c-1.3-1.3-3-2-5-2Z"/>
    <path class="st2" d="M99.5,173.1h-23.6c.3,2.5,1.4,4.5,3.3,6.2,1.8,1.6,4.1,2.4,6.8,2.4s6.2-1.3,8.1-4l4.3,1.4c-1.3,2.1-3,3.8-5.2,5-2.2,1.2-4.6,1.8-7.3,1.8-4.2,0-7.6-1.4-10.4-4.1-2.8-2.7-4.2-6.2-4.2-10.2s1.4-7.5,4.1-10.2c2.7-2.7,6.1-4.1,10.1-4.1s7.4,1.4,10.1,4.1c2.7,2.7,4.1,6.1,4.1,10.2s0,.6-.1,1.5ZM75.9,169.5h19c-.4-2.4-1.5-4.3-3.3-5.9-1.8-1.5-3.9-2.3-6.3-2.3s-4.4.8-6.2,2.3c-1.7,1.5-2.8,3.5-3.2,5.9Z"/>
    <path class="st2" d="M117.3,157.3c4.1,0,7.5,1.5,10,4.5v-16h4.4v39.6h-4.4v-3.9c-2.6,3-5.9,4.5-10,4.5s-7.1-1.4-9.7-4.1c-2.6-2.7-3.9-6.1-3.9-10.2s1.3-7.5,3.9-10.2c2.6-2.7,5.8-4.1,9.7-4.1ZM117.8,161.7c-2.6,0-4.9.9-6.7,2.8-1.8,1.9-2.7,4.2-2.7,7s.9,5.2,2.7,7.1c1.9,1.9,4.1,2.8,6.7,2.8s4.9-.9,6.7-2.8c1.8-1.9,2.7-4.2,2.7-7.1s-.9-5.2-2.7-7c-1.8-1.9-4-2.8-6.7-2.8Z"/>
    <path class="st2" d="M139.2,153.4c-.6-.6-.8-1.3-.8-2.2s.3-1.6.8-2.2,1.3-.9,2.2-.9,1.6.3,2.2.9c.6.6.9,1.3.9,2.2s-.3,1.6-.9,2.2c-.6.6-1.3.8-2.2.8s-1.6-.3-2.2-.8ZM143.7,185.3h-4.4v-27.4h4.4v27.4Z"/>
    <path class="st2" d="M169.8,163.8l-4.2.7c-.3-1.1-.9-1.9-2-2.5-1-.6-2.3-.9-3.9-.9s-2.8.3-3.8,1-1.5,1.5-1.5,2.6,1,2.6,2.9,3.2l6.7,2.4c4.2,1.5,6.3,4,6.3,7.5s-1,4.5-2.8,5.9c-1.9,1.4-4.4,2.1-7.4,2.1s-5.3-.6-7.2-1.9c-1.9-1.3-3-3-3.4-5.2l4.2-.7c.3,1.2,1,2.2,2.2,2.9,1.2.7,2.6,1.1,4.4,1.1s3.1-.4,4.2-1.1c1.1-.7,1.7-1.7,1.7-2.8,0-1.7-1.2-2.9-3.6-3.7l-6.5-2.3c-3.8-1.3-5.8-3.6-5.8-6.9s.9-4.4,2.7-5.8c1.8-1.4,4.2-2.1,7.1-2.1s4.8.6,6.6,1.8c1.7,1.2,2.8,2.8,3.2,4.8Z"/>
    <path class="st2" d="M195.9,185.3h-4.7v-36.9h4.7v16h21.9v-16h4.8v36.9h-4.8v-16.5h-21.9v16.5Z"/>
    <path class="st2" d="M233.1,181.8c-2.7-2.8-4.1-6.2-4.1-10.2s1.4-7.5,4.1-10.2,6.2-4.1,10.2-4.1,7.5,1.4,10.2,4.1c2.7,2.7,4.1,6.1,4.1,10.2s-1.4,7.5-4.1,10.2c-2.8,2.7-6.2,4.1-10.2,4.1s-7.5-1.4-10.2-4.1ZM243.3,181.4c2.8,0,5.1-.9,7-2.8,1.9-1.9,2.8-4.3,2.8-7.1s-.9-5.2-2.8-7c-1.9-1.9-4.2-2.8-7-2.8s-5.1.9-6.9,2.8c-1.9,1.9-2.8,4.2-2.8,7s.9,5.1,2.8,7.1c1.9,1.9,4.2,2.8,6.9,2.8Z"/>
    <path class="st2" d="M269.1,188.5l1.6-4-10.9-26.6h4.6l8.6,21.3,8.9-21.3h4.6l-13.5,32.1c-1,2.5-2.3,4.3-3.9,5.5-1.6,1.1-3.6,1.7-6.1,1.7h-1.3v-4.3h1.3c2.9,0,4.9-1.5,6.2-4.4Z"/>
    <path class="st2" d="M293.3,184.1c0,1-.2,1.9-.5,2.8-.4.9-.8,1.6-1.2,2.2s-1,1.1-1.5,1.6c-.5.5-1,.8-1.2,1-.3.2-.5.3-.6.4l-1.5-1.5c.2-.2.5-.4.7-.8.3-.4.8-.9,1.2-1.7.5-.8.7-1.6.7-2.2-.8-.1-1.4-.5-2-1.1-.5-.6-.8-1.3-.8-2.1s.3-1.6.9-2.2,1.4-.9,2.3-.9,1.9.4,2.5,1.2,1,1.9,1,3.2Z"/>
    <path class="st1" d="M312.8,145.6h18.6c4,0,7.4,1.3,10.2,3.9,2.8,2.5,4.1,5.7,4.1,9.5s-.6,4.8-1.9,6.8-3,3.7-5.2,4.8l8.6,14.7h-10l-7.7-13h-7.7v13h-9v-39.7ZM331.4,153.9h-9.6v10.1h9.6c1.4,0,2.6-.5,3.6-1.4.9-1,1.4-2.2,1.4-3.6s-.5-2.6-1.4-3.6c-.9-1-2.1-1.4-3.6-1.4Z"/>
    <path class="st1" d="M379.1,173.6h-21.9c.5,1.6,1.4,2.8,2.7,3.7s2.8,1.4,4.5,1.4,4.4-.9,5.8-2.6l8.2,1.9c-1.4,2.5-3.3,4.5-5.8,5.9-2.5,1.4-5.3,2.1-8.4,2.1-4.6,0-8.4-1.5-11.5-4.4-3.1-2.9-4.6-6.6-4.6-11.1s1.5-8.1,4.5-11c3-3,6.7-4.5,11.2-4.5s8.1,1.5,11.1,4.5c3,2.9,4.5,6.6,4.5,11s-.1,2.1-.3,3.1ZM357.2,167.3h13.5c-.5-1.5-1.4-2.7-2.7-3.6-1.2-.9-2.7-1.4-4.3-1.4s-2.9.5-4.1,1.4c-1.2.9-2.1,2.1-2.6,3.6Z"/>
    <path class="st1" d="M412.7,165.2l-8.6,2.5c-.5-1.3-1.4-2.3-2.5-3.1s-2.4-1.2-3.9-1.2-3.6.7-4.9,2c-1.3,1.3-2,3-2,5s.7,3.7,2,5.1,3,2,4.9,2,2.7-.4,3.9-1.2c1.1-.8,2-1.8,2.5-3.1l8.6,2.5c-1.1,3.1-3,5.6-5.7,7.4-2.7,1.8-5.7,2.7-9.2,2.7s-8.3-1.5-11.3-4.4c-3-3-4.5-6.7-4.5-11.1s1.5-8.1,4.5-11.1c3-2.9,6.7-4.4,11.3-4.4s6.5.9,9.2,2.7c2.7,1.8,4.6,4.3,5.7,7.4Z"/>
    <path class="st1" d="M416.4,152.2c-1-1-1.5-2.2-1.5-3.7s.5-2.8,1.5-3.7c1.1-1,2.3-1.5,3.8-1.5s2.8.5,3.7,1.5c1,.9,1.5,2.2,1.5,3.7s-.5,2.8-1.5,3.7c-1,1-2.2,1.5-3.7,1.5s-2.7-.5-3.8-1.5ZM424.4,185.3h-8.5v-29.5h8.5v29.5Z"/>
    <path class="st1" d="M429.2,185.3v-42.5h8.5v15c2.3-1.8,5-2.7,8.1-2.7s7.3,1.5,10,4.4c2.7,3,4,6.7,4,11.1s-1.3,8-4,11.1c-2.7,2.9-6,4.4-10,4.4s-5.7-.9-8.1-2.7v2h-8.5ZM444.4,163.4c-1.9,0-3.4.7-4.7,2-1.3,1.4-1.9,3-1.9,5s.6,3.7,1.9,5.1c1.3,1.4,2.8,2,4.7,2s3.4-.7,4.6-2c1.3-1.4,1.9-3.1,1.9-5.1s-.6-3.7-1.9-5c-1.2-1.4-2.8-2-4.6-2Z"/>
    <path class="st1" d="M464,152.2c-1-1-1.5-2.2-1.5-3.7s.5-2.8,1.5-3.7c1.1-1,2.3-1.5,3.8-1.5s2.8.5,3.7,1.5c1,.9,1.5,2.2,1.5,3.7s-.5,2.8-1.5,3.7c-1,1-2.2,1.5-3.7,1.5s-2.7-.5-3.8-1.5ZM472.1,185.3h-8.5v-29.5h8.5v29.5Z"/>
    <path class="st1" d="M499.9,163.1l-7.8,1.2c-.5-1.7-2-2.5-4.4-2.5s-3.3.6-3.3,1.9.8,1.4,2.3,2l5.3,1.7c2.9.9,5.1,2.1,6.4,3.5,1.3,1.4,2,3.3,2,5.5s-1.1,5.4-3.3,7c-2.2,1.6-5.1,2.5-8.9,2.5s-6.6-.8-8.8-2.3c-2.2-1.5-3.5-3.7-3.9-6.5l7.8-1.1c.6,2,2.2,2.9,5,2.9s2.1-.2,2.8-.6c.7-.4,1.1-.9,1.1-1.6s-1-1.7-2.9-2.3l-5.4-1.6c-2.7-.8-4.7-1.8-5.9-3.2-1.2-1.4-1.8-3.1-1.8-5.3,0-3.2,1.1-5.5,3.2-7.1,2.1-1.6,5-2.4,8.8-2.4s6.1.7,8.2,2.1c2,1.4,3.2,3.4,3.6,5.9Z"/>
    <path class="st1" d="M527.2,185.3h-9v-39.7h9v15.5h17.2v-15.5h9v39.7h-9v-15.9h-17.2v15.9Z"/>
    <path class="st1" d="M562,181.6c-3-3-4.5-6.7-4.5-11.1s1.5-8.1,4.5-11c3-3,6.7-4.5,11.3-4.5s8.2,1.5,11.2,4.5c3,2.9,4.5,6.6,4.5,11s-1.5,8-4.5,11.1c-3,2.9-6.8,4.4-11.2,4.4s-8.3-1.5-11.3-4.4ZM573.3,177.6c2,0,3.6-.7,4.9-2,1.4-1.4,2-3.1,2-5s-.7-3.6-2-5c-1.3-1.4-2.9-2.1-4.9-2.1s-3.6.7-4.9,2c-1.3,1.4-2,3.1-2,5s.7,3.6,2,5c1.3,1.4,3,2,4.9,2Z"/>
    <path class="st1" d="M600.3,185.5l.2-.5-11.2-29.3h8.8l6.4,18.2,6.6-18.2h8.8l-12.5,32.5c-1.4,3.4-3.2,5.9-5.4,7.4s-5.2,2.3-8.8,2.3h-1v-8.1h1.1c3.7,0,6-1.5,7.1-4.4Z"/>
    <path class="st1" d="M627.3,176.4c1.4,0,2.6.5,3.5,1.4.9.9,1.4,2.1,1.4,3.5s-.5,2.6-1.4,3.5-2.1,1.4-3.5,1.4-2.5-.5-3.4-1.4-1.4-2.1-1.4-3.5.5-2.6,1.4-3.5c.9-.9,2-1.4,3.4-1.4ZM630.9,172.3h-7l-1-26.8h9l-1,26.8Z"/>
  </g>
  <g>
    <path class="st0" d="M56.1,220.6c0-.2,0-.5,0-.7,0-.6-.2-1.2-.4-1.8,0-.2-.1-.5-.2-.7-.1-.3-.2-.7-.4-1-.2-.4-.4-.9-.6-1.3-.1-.2-.2-.4-.4-.6-.6-1-1.4-1.9-2.2-2.8-.2-.2-.3-.3-.5-.5-.2-.2-.4-.3-.5-.5-.6-.5-1.3-1-2-1.4h0c-.3-.2-.6-.3-.9-.5,0,0,0,0,0,0-.2-.1-.4-.2-.6-.3h0c-.2,0-.4-.2-.7-.3-.1,0-.2,0-.3-.1-1.7-.6-3.5-.8-5.3-.8-.7,0-1.3.1-2,.2-.2,0-.4,0-.6.1-.2,0-.4,0-.6.2,0,0,0,0-.1,0-.3,0-.6.2-.8.3h0c-.5.2-1,.4-1.5.7t0,0c-.4.2-.8.4-1.1.6-3.8,2.4-6.5,6.6-6.9,11.2-.2,2.9.7,6.2,2.1,9.3,0,.2.2.4.3.6.4.9.9,1.8,1.3,2.7.1.2.2.4.3.6,0,0,.1.2.2.3.2.3.3.6.5.9.1.2.2.4.3.6.2.4.4.7.7,1.1.1.2.2.4.3.5.3.5.7,1,1,1.5.3.4.5.8.8,1.2.1.2.4.5.6,1,0,0,.1.2.2.3,0,0,0,0,0,.1.2.2.3.5.5.8,0,.1.2.2.2.3,1.7,2.5,4.2,5.8,4.9,5.9.4,0,1-.4,1.5-1.1,0-.1.2-.2.3-.3.2-.2.4-.4.5-.7,0-.1.2-.2.3-.3.2-.3.4-.6.6-.8,0-.1.1-.2.2-.3.2-.2.3-.4.4-.6,3.8-5.2,10.9-15.9,10.9-22.3s0-1,0-1.5ZM43.2,228.8c-9.1,1.5-10.1-11.2-2.8-12.4,8.8-1.5,10,11.2,2.8,12.4Z"/>
    <g>
      <g>
        <path class="st1" d="M82.6,241.9h-6.4l13.7-31.9h5l13.7,31.9h-6.4l-2.5-6h-14.4l-2.5,6ZM97.2,230.3l-4.8-11.6-4.9,11.6h9.7Z"/>
        <path class="st1" d="M117,241.9h-5.7v-34.2h5.7v34.2Z"/>
        <path class="st1" d="M119.9,223.2v-5h3.4v-4.6h5.7v4.6h5.9v5h-5.9v10.4c0,.8.3,1.5.8,2.1.5.5,1.2.8,2.1.8h3v5.4h-3.5c-2.2,0-4.2-.7-5.7-2.1-1.5-1.4-2.3-3.2-2.3-5.3v-11.3h-3.4Z"/>
        <path class="st1" d="M149,217.6c2.7,0,5.1.9,7.2,2.6v-1.9h5.6v23.7h-5.6v-1.9c-2.1,1.7-4.5,2.6-7.2,2.6s-6-1.2-8.2-3.6c-2.2-2.4-3.3-5.4-3.3-9s1.1-6.6,3.3-8.9c2.2-2.4,5-3.6,8.2-3.6ZM154.2,225.2c-1.2-1.3-2.7-2-4.5-2s-3.3.7-4.6,2c-1.2,1.3-1.8,2.9-1.8,4.9s.6,3.6,1.8,4.9c1.2,1.3,2.7,2,4.6,2s3.3-.7,4.5-2c1.2-1.3,1.9-3,1.9-4.9s-.6-3.5-1.9-4.9Z"/>
        <path class="st1" d="M194.7,209.4c3.3,0,6.3.8,9,2.5,2.6,1.6,4.7,3.8,6.1,6.5l-5.9,2.2c-.9-1.7-2.2-3-3.8-3.9-1.6-.9-3.4-1.4-5.4-1.4-3,0-5.5,1-7.5,3.1-2,2.1-3,4.6-3,7.7s1,5.6,2.9,7.7c1.9,2,4.3,3.1,7.2,3.1s4.1-.6,5.9-1.9c1.8-1.2,3-2.9,3.7-4.9h-10.1v-5.6h17c0,.9,0,1.4,0,1.6,0,4.7-1.6,8.6-4.7,11.9-3.1,3.2-7.1,4.8-11.8,4.8s-8.6-1.6-11.8-4.7c-3.2-3.2-4.7-7.2-4.7-11.9s1.6-8.7,4.8-11.8c3.2-3.2,7.2-4.8,12.1-4.8Z"/>
        <path class="st1" d="M220.7,218.3v2.9c1.6-2.4,4.2-3.6,7.8-3.6v6.3c-.8-.3-1.5-.5-2.3-.5-1.6,0-2.9.5-3.9,1.6-1,1-1.5,2.4-1.5,3.9v13h-5.7v-23.7h5.7Z"/>
        <path class="st1" d="M241.4,217.6c2.7,0,5.1.9,7.2,2.6v-1.9h5.6v23.7h-5.6v-1.9c-2.1,1.7-4.5,2.6-7.2,2.6s-6-1.2-8.2-3.6c-2.2-2.4-3.3-5.4-3.3-9s1.1-6.6,3.3-8.9c2.2-2.4,5-3.6,8.2-3.6ZM246.7,225.2c-1.2-1.3-2.7-2-4.5-2s-3.3.7-4.6,2c-1.2,1.3-1.8,2.9-1.8,4.9s.6,3.6,1.8,4.9c1.2,1.3,2.7,2,4.6,2s3.3-.7,4.5-2c1.2-1.3,1.9-3,1.9-4.9s-.6-3.5-1.9-4.9Z"/>
        <path class="st1" d="M282.5,225.4l-5.7,1.7c-.5-1.2-1.3-2.1-2.4-2.8-1.1-.7-2.3-1-3.6-1s-3.5.7-4.7,2c-1.3,1.3-1.9,2.9-1.9,4.9s.6,3.6,1.9,4.9c1.3,1.3,2.9,2,4.7,2s2.5-.3,3.6-1c1.1-.7,1.9-1.6,2.4-2.8l5.7,1.7c-.9,2.4-2.4,4.3-4.5,5.7-2.1,1.4-4.5,2.1-7.2,2.1s-6.5-1.2-9-3.6c-2.4-2.4-3.6-5.4-3.6-9s1.2-6.6,3.6-8.9c2.4-2.4,5.4-3.6,9-3.6s5.1.7,7.2,2.1c2.1,1.4,3.6,3.3,4.5,5.7Z"/>
        <path class="st1" d="M288.8,216.2c-1,0-1.9-.3-2.6-1-.7-.7-1-1.6-1-2.6s.3-1.9,1-2.6c.7-.7,1.5-1,2.6-1s1.9.3,2.6,1c.7.7,1,1.5,1,2.6s-.3,1.9-1,2.6c-.7.7-1.6,1-2.6,1ZM291.7,241.9h-5.7v-23.7h5.7v23.7Z"/>
        <path class="st1" d="M307.2,217.6c2.7,0,5.1.9,7.2,2.6v-1.9h5.7v23.7h-5.7v-1.9c-2.1,1.7-4.5,2.6-7.2,2.6s-6-1.2-8.2-3.6c-2.2-2.4-3.3-5.4-3.3-9s1.1-6.6,3.3-8.9c2.2-2.4,5-3.6,8.2-3.6ZM312.4,225.2c-1.2-1.3-2.7-2-4.5-2s-3.3.7-4.6,2c-1.2,1.3-1.8,2.9-1.8,4.9s.6,3.6,1.8,4.9c1.2,1.3,2.7,2,4.6,2s3.3-.7,4.5-2c1.2-1.3,1.9-3,1.9-4.9s-.6-3.5-1.9-4.9Z"/>
      </g>
      <g>
        <path class="st2" d="M341.2,242.9l1-2.5-6.8-16.7h2.9l5.4,13.3,5.5-13.3h2.9l-8.4,20.1c-.6,1.6-1.5,2.7-2.5,3.4-1,.7-2.3,1.1-3.8,1.1h-.8v-2.7h.8c1.8,0,3.1-.9,3.9-2.7Z"/>
        <path class="st2" d="M371.4,223.3c2.6,0,4.7.9,6.3,2.8v-2.4h2.8v17.2h-2.8v-2.4c-1.6,1.9-3.7,2.8-6.3,2.8s-4.4-.8-6-2.5c-1.6-1.7-2.4-3.8-2.4-6.4s.8-4.7,2.4-6.4c1.6-1.7,3.6-2.6,6-2.6ZM371.7,226.1c-1.7,0-3,.6-4.2,1.8-1.1,1.2-1.7,2.6-1.7,4.4s.6,3.2,1.7,4.4c1.2,1.2,2.6,1.7,4.2,1.7s3.1-.6,4.2-1.7c1.1-1.2,1.7-2.6,1.7-4.4s-.6-3.2-1.7-4.4c-1.1-1.2-2.5-1.8-4.2-1.8Z"/>
        <path class="st2" d="M387.9,240.9h-2.8v-24.8h2.8v24.8Z"/>
        <path class="st2" d="M395.4,231.2v9.7h-2.8v-17.2h2.8v2.9c1.3-2.2,3.3-3.3,6.1-3.3h.5v3.1c-.4-.1-.8-.2-1.2-.2-1.5,0-2.8.5-3.8,1.4-1,1-1.6,2.1-1.6,3.5Z"/>
        <path class="st2" d="M420.9,233.2h-14.8c.2,1.5.9,2.8,2,3.9,1.1,1,2.6,1.5,4.2,1.5s3.9-.8,5.1-2.5l2.7.9c-.8,1.3-1.9,2.4-3.2,3.1-1.4.7-2.9,1.1-4.5,1.1-2.6,0-4.8-.8-6.5-2.5-1.7-1.7-2.6-3.8-2.6-6.4s.8-4.7,2.5-6.4c1.7-1.7,3.8-2.6,6.3-2.6s4.6.9,6.3,2.6c1.7,1.7,2.5,3.8,2.5,6.4s0,.4,0,1ZM406.2,231h11.9c-.3-1.5-1-2.7-2.1-3.7-1.1-.9-2.4-1.4-4-1.4s-2.8.5-3.9,1.4c-1.1.9-1.7,2.2-2,3.7Z"/>
        <path class="st2" d="M432.1,223.3c2.6,0,4.7.9,6.3,2.8v-10h2.8v24.8h-2.8v-2.4c-1.6,1.9-3.7,2.8-6.3,2.8s-4.4-.8-6-2.5c-1.6-1.7-2.4-3.8-2.4-6.4s.8-4.7,2.4-6.4c1.6-1.7,3.6-2.6,6-2.6ZM432.4,226.1c-1.7,0-3,.6-4.2,1.8-1.1,1.2-1.7,2.6-1.7,4.4s.6,3.2,1.7,4.4c1.2,1.2,2.6,1.7,4.2,1.7s3.1-.6,4.2-1.7c1.1-1.2,1.7-2.6,1.7-4.4s-.6-3.2-1.7-4.4c-1.1-1.2-2.5-1.8-4.2-1.8Z"/>
        <path class="st2" d="M462.5,233.2h-14.8c.2,1.5.9,2.8,2,3.9,1.1,1,2.6,1.5,4.2,1.5s3.9-.8,5.1-2.5l2.7.9c-.8,1.3-1.9,2.4-3.2,3.1-1.4.7-2.9,1.1-4.5,1.1-2.6,0-4.8-.8-6.5-2.5-1.7-1.7-2.6-3.8-2.6-6.4s.8-4.7,2.5-6.4c1.7-1.7,3.8-2.6,6.3-2.6s4.6.9,6.3,2.6c1.7,1.7,2.5,3.8,2.5,6.4s0,.4,0,1ZM447.8,231h11.9c-.3-1.5-1-2.7-2.1-3.7-1.1-.9-2.4-1.4-4-1.4s-2.8.5-3.9,1.4c-1.1.9-1.7,2.2-2,3.7Z"/>
        <path class="st2" d="M473.7,223.3c2.6,0,4.7.9,6.3,2.8v-10h2.8v24.8h-2.8v-2.4c-1.6,1.9-3.7,2.8-6.3,2.8s-4.4-.8-6-2.5c-1.6-1.7-2.4-3.8-2.4-6.4s.8-4.7,2.4-6.4c1.6-1.7,3.6-2.6,6-2.6ZM474,226.1c-1.7,0-3,.6-4.2,1.8-1.1,1.2-1.7,2.6-1.7,4.4s.6,3.2,1.7,4.4c1.2,1.2,2.6,1.7,4.2,1.7s3.1-.6,4.2-1.7c1.1-1.2,1.7-2.6,1.7-4.4s-.6-3.2-1.7-4.4c-1.1-1.2-2.5-1.8-4.2-1.8Z"/>
        <path class="st2" d="M489,238.7c-1.7-1.7-2.5-3.9-2.5-6.4s.8-4.7,2.5-6.4,3.8-2.6,6.4-2.6,4.7.9,6.4,2.6c1.7,1.7,2.6,3.8,2.6,6.4s-.9,4.7-2.6,6.4c-1.7,1.7-3.9,2.5-6.4,2.5s-4.7-.8-6.4-2.5ZM495.5,238.5c1.7,0,3.2-.6,4.4-1.7,1.2-1.2,1.7-2.7,1.7-4.4s-.6-3.2-1.7-4.4c-1.2-1.2-2.6-1.8-4.4-1.8s-3.2.6-4.3,1.8c-1.2,1.2-1.7,2.6-1.7,4.4s.6,3.2,1.7,4.4c1.2,1.2,2.6,1.7,4.3,1.7Z"/>
        <path class="st2" d="M511,231.2v9.7h-2.8v-17.2h2.8v2.9c1.3-2.2,3.3-3.3,6.1-3.3h.5v3.1c-.4-.1-.8-.2-1.2-.2-1.5,0-2.8.5-3.8,1.4-1,1-1.6,2.1-1.6,3.5Z"/>
        <path class="st2" d="M536.5,233.2h-14.8c.2,1.5.9,2.8,2,3.9,1.1,1,2.6,1.5,4.2,1.5s3.9-.8,5.1-2.5l2.7.9c-.8,1.3-1.9,2.4-3.2,3.1-1.4.7-2.9,1.1-4.5,1.1-2.6,0-4.8-.8-6.5-2.5-1.7-1.7-2.6-3.8-2.6-6.4s.8-4.7,2.5-6.4c1.7-1.7,3.8-2.6,6.3-2.6s4.6.9,6.3,2.6c1.7,1.7,2.5,3.8,2.5,6.4s0,.4,0,1ZM521.8,231h11.9c-.3-1.5-1-2.7-2.1-3.7-1.1-.9-2.4-1.4-4-1.4s-2.8.5-3.9,1.4c-1.1.9-1.7,2.2-2,3.7Z"/>
        <path class="st2" d="M551.8,227.4l-2.6.5c-.2-.7-.6-1.2-1.2-1.6-.6-.4-1.5-.6-2.5-.6s-1.7.2-2.4.6-.9,1-.9,1.6.6,1.6,1.8,2l4.2,1.5c2.6,1,3.9,2.5,3.9,4.7s-.6,2.8-1.8,3.7c-1.2.9-2.7,1.3-4.7,1.3s-3.3-.4-4.5-1.2c-1.2-.8-1.9-1.9-2.1-3.3l2.6-.5c.2.7.6,1.4,1.4,1.8.7.5,1.6.7,2.7.7s1.9-.2,2.7-.7c.7-.5,1.1-1.1,1.1-1.8,0-1-.8-1.8-2.3-2.3l-4.1-1.4c-2.4-.8-3.6-2.3-3.6-4.3s.6-2.7,1.7-3.6c1.1-.9,2.6-1.3,4.5-1.3s3,.4,4.1,1.1c1.1.7,1.8,1.7,2,3Z"/>
      </g>
    </g>
  </g>
  <g>
    <g>
      <path class="st2" d="M40.3,36.8h34.3v7h-26.8v12.8h23.2v7h-23.2v13.3h27.1v7h-34.6v-47.1Z"/>
      <path class="st2" d="M89.3,83.9h-7.3v-47.1h6.7l27,34.1v-34.1h7.3v47.1h-6.7l-27-34.1v34.1Z"/>
      <path class="st2" d="M154.5,83.9h-6.1l-20-47.1h7.9l15.2,36.3,15.2-36.3h7.9l-20.1,47.1Z"/>
      <path class="st2" d="M187.6,83.9h-7.5v-47.1h7.5v47.1Z"/>
      <path class="st2" d="M219.7,84.8c-7,0-12.8-2.3-17.4-7-4.7-4.7-7-10.5-7-17.4s2.3-12.8,7-17.4,10.5-7,17.4-7,12.8,2.3,17.4,7c4.7,4.6,7.1,10.4,7.1,17.4s-2.4,12.8-7.1,17.4c-4.7,4.7-10.5,7-17.4,7ZM219.7,77.5c4.8,0,8.7-1.6,11.8-4.9,3.2-3.3,4.8-7.4,4.8-12.2s-1.6-8.9-4.8-12.2c-3.1-3.3-7.1-4.9-11.8-4.9s-8.7,1.6-11.8,4.9c-3.2,3.3-4.8,7.4-4.8,12.2s1.6,8.9,4.8,12.2c3.1,3.3,7.1,4.9,11.8,4.9Z"/>
      <path class="st1" d="M265.8,60.4c0-7,2.4-12.8,7.2-17.4,4.8-4.7,10.8-7,17.9-7s9.4,1.2,13.5,3.6c4,2.4,7.1,5.7,9.1,9.9l-10.4,3.8c-1.2-2.2-2.8-4-5-5.2-2.2-1.3-4.6-1.9-7.2-1.9-4.1,0-7.4,1.4-10,4.1-2.6,2.7-4,6.1-4,10.1s1.3,7.3,3.8,10.1c2.6,2.7,5.7,4.1,9.6,4.1s5.2-.7,7.4-2.2c2.3-1.5,3.9-3.4,4.9-5.9h-13.5v-9.1h25.6c.1.8.2,1.7.2,2.6,0,7-2.3,12.9-7,17.7-4.6,4.8-10.5,7.1-17.6,7.1s-12.7-2.3-17.5-7c-4.7-4.6-7.1-10.4-7.1-17.4Z"/>
      <path class="st1" d="M320.3,36.8h22.1c4.8,0,8.8,1.5,12.1,4.6,3.3,3,4.9,6.8,4.9,11.2s-.8,5.7-2.3,8.1c-1.5,2.4-3.6,4.3-6.2,5.7l10.2,17.5h-11.8l-9.1-15.5h-9.1v15.5h-10.7v-47.1ZM342.4,46.7h-11.4v12h11.4c1.7,0,3.1-.6,4.2-1.7s1.7-2.6,1.7-4.3-.6-3.1-1.7-4.3-2.5-1.7-4.2-1.7Z"/>
      <path class="st1" d="M374,83.9h-11.2l19.8-47.1h8.8l19.8,47.1h-11.1l-3.2-7.9h-19.7l-3.2,7.9ZM393,66.4l-5.9-14.5-5.9,14.5h11.8Z"/>
      <path class="st1" d="M422,46.7h-14.5v-9.8h39.7v9.8h-14.5v37.3h-10.6v-37.3Z"/>
      <path class="st1" d="M462.5,83.9h-10.7v-47.1h10.7v47.1Z"/>
      <path class="st1" d="M502.1,47l-10.6,2.5c-.3-1.1-1-2-2.2-2.7s-2.5-1-4.1-1-3,.4-4,1.1c-1.1.7-1.6,1.6-1.6,2.8s1.3,2.7,3.9,3.8c.9.4,3.3,1.1,7.1,2.2,2.9.9,5.2,1.8,7.1,3,4.1,2.2,6.2,5.9,6.5,11.2,0,4.6-1.6,8.2-4.9,11-3.3,2.7-7.5,4.1-12.7,4.1s-8.9-1.1-12.3-3.4c-3.4-2.2-5.6-5.1-6.6-8.7l10.7-2.6c.4,1.4,1.3,2.5,2.8,3.4,1.5.9,3.3,1.3,5.4,1.3s3.6-.4,4.9-1.2c1.3-.8,2-1.8,2-3.1s-.4-1.6-1.2-2.3c-1-.9-3-1.8-5.9-2.8l-.7-.2c-2.3-.7-3.5-1-3.6-1.1l-3.3-1.2c-1.6-.7-2.7-1.2-3.2-1.5-2.6-1.8-4.1-3.3-4.8-4.3-1.3-2.1-1.9-4.4-1.9-6.9,0-4.3,1.5-7.8,4.4-10.4,3-2.7,6.9-4,11.7-4s7.9,1.1,11,3.2c3.1,2.1,5.1,4.7,6,7.9Z"/>
    </g>
    <g>
      <path class="st1" d="M547.6,59.6l.6-6.2h-5.4c-2.9,0-7.1.5-9.8,0-.9,0-2-1-2.3-1.9-.6-1.7.9-3.5,2.6-3.6h15.5l.7-6.1c-1.9,0-3.9-.1-5.9,0-2.1,0-6.5.6-8.2-.5-2.3-1.6-.8-4.7,1.7-4.9h13c.1-.2.3-3,.4-3.5.4-2.1,1.9-3.9,4.1-4.1h43.4c2.1.9,3.9,2.9,3.6,5.4l-.7,5.6v.3h12c1.4,0,3.1,1.3,3.9,2.3,3.5,4.3,6.7,11.5,10.8,15,2.1,1.8,5.6,2.8,5.4,6-.2,4.7-1.5,9.8-1.8,14.6-.2,1-2.3,2.4-3.2,2.4h-3.2v-2.6c0-3.1-3.1-6.7-5.7-8.1-8.4-4.5-18.7,1.9-20.6,10.7h-23.9v-2.3c0-2.6-2.3-5.9-4.4-7.4-7.4-5.6-17.4-1.2-20.9,6.7-.2.5-.9,2.5-1,2.7-.6.6-2.5-.5-2.8-1.1-.2-.4-.2-1-.3-1.4,0-4.1.9-8.2,1.3-12.4h-10.4c-.3,0-1.3-.8-1.5-1.1-1.1-1.4-.5-3.4,1.1-4.1,1.1-.5,4.1-.3,5.5-.3h6.2v-.2h0ZM586,37c-.8,0-1.6.3-2.1.9l-11.1,13.8c-.6.7-1.2.6-1.8,0-1.6-1.6-4.3-6.5-6.5-6.7-2.5-.3-4.5,2.7-3.1,4.8,2.7,3,5.1,6.7,8,9.6,1.7,1.7,3.5,1.9,5.2,0l14.2-17.7c1.1-2-.3-4.7-2.7-4.7h0ZM603.1,46l-1.5,10.8c0,1.3,2.4.7,3.2.7,4.7,0,9.4.2,14-.1.6-.3.7-.6.5-1.3l-6.8-9.8c-.6-.6-4.3-.4-5.3-.3-1.3,0-2.8-.2-4.2,0h0Z"/>
      <path class="st1" d="M562.1,71.5c9.4-.7,12.4,9.8,6.8,16.5-6.7,8-20,3-16.8-8,1.3-4.6,5.2-8.1,9.9-8.4h0ZM561.7,78.3c-4.6.6-5.5,7.6.2,6.8,2.5-.3,4.5-3.5,2.7-5.7-.6-.8-1.9-1.3-2.9-1.2h0Z"/>
      <path class="st1" d="M612.9,71.5c8.5-.3,11.6,8.2,7.4,14.9-6.2,10-21.5,5.3-17.7-6.8,1.4-4.5,5.5-7.8,10.3-8.1h0ZM611.9,78.4c-5,.6-4.5,8.2.8,6.6,4.3-1.3,3.9-7.2-.8-6.6h0Z"/>
      <path class="st1" d="M547.6,59.6h-6.2,6.2Z"/>
      <path class="st1" d="M607.3,45.8s-.2,0-.5.1c-1.3,0-2.5,0-3.7,0,1.3-.3,2.8,0,4.2,0h0Z"/>
    </g>
  </g>
</svg>