<svg width="24" height="24" viewBox="0 0 24 24" fill="none" xmlns="http://www.w3.org/2000/svg">
  <rect width="24" height="24" rx="4" fill="#009EE3"/>
  <path d="M7.5 6C6.67157 6 6 6.67157 6 7.5V16.5C6 17.3284 6.67157 18 7.5 18H16.5C17.3284 18 18 17.3284 18 16.5V7.5C18 6.67157 17.3284 6 16.5 6H7.5Z" fill="white"/>
  <path d="M12 8.5C13.933 8.5 15.5 10.067 15.5 12C15.5 13.933 13.933 15.5 12 15.5C10.067 15.5 8.5 13.933 8.5 12C8.5 10.067 10.067 8.5 12 8.5Z" fill="#009EE3"/>
  <path d="M12 10C12.5523 10 13 10.4477 13 11V13C13 13.5523 12.5523 14 12 14C11.4477 14 11 13.5523 11 13V11C11 10.4477 11.4477 10 12 10Z" fill="white"/>
  <path d="M10.5 11.5H13.5" stroke="white" stroke-width="0.5" stroke-linecap="round"/>
</svg>
