<?xml version="1.0" encoding="UTF-8"?>
<svg id="Capa_2" xmlns="http://www.w3.org/2000/svg" version="1.1" viewBox="0 0 675.3 274">
  <!-- Generator: Adobe Illustrator 29.7.1, SVG Export Plug-In . SVG Version: 2.1.1 Build 8)  -->
  <defs>
    <style>
      .st0 {
        fill: #f7e100;
      }

      .st1 {
        fill: #fff;
      }

      .st2 {
        fill: #841468;
      }
    </style>
  </defs>
  <path class="st2" d="M632.8,274H42.5c-23.5,0-42.5-19-42.5-42.5V42.5C0,19,19,0,42.5,0h590.3C656.3,0,675.3,19,675.3,42.5v189c0,23.5-19,42.5-42.5,42.5Z"/>
  <path class="st0" d="M633.2,274h-219c-23.5,0-42.5-19-42.5-42.5V42.5C371.7,19,390.7,0,414.2,0h219C656.7,0,675.7,19,675.7,42.5v189c0,23.5-19,42.5-42.5,42.5Z"/>
  <g>
    <path class="st1" d="M36.9,60.6h45.7v9.3h-35.6v17h30.9v9.3h-30.9v17.7h36.1v9.3h-46.1v-62.7Z"/>
    <path class="st1" d="M102.1,123.3h-9.7v-62.7h8.9l35.9,45.4v-45.4h9.7v62.7h-8.9l-35.9-45.4v45.4Z"/>
    <path class="st1" d="M189,123.3h-8.1l-26.7-62.7h10.6l20.2,48.3,20.2-48.3h10.6l-26.8,62.7Z"/>
    <path class="st1" d="M233.1,123.3h-10v-62.7h10v62.7Z"/>
    <path class="st1" d="M275.7,124.4c-9.3,0-17-3.1-23.2-9.3-6.2-6.2-9.3-13.9-9.3-23.2s3.1-17,9.3-23.2c6.2-6.2,13.9-9.3,23.2-9.3s17,3.1,23.2,9.3c6.3,6.1,9.4,13.9,9.4,23.2s-3.1,17-9.4,23.2c-6.2,6.2-13.9,9.3-23.2,9.3ZM275.7,114.8c6.3,0,11.6-2.2,15.8-6.5,4.2-4.4,6.4-9.9,6.4-16.3s-2.1-11.9-6.4-16.3c-4.2-4.4-9.4-6.5-15.8-6.5s-11.6,2.2-15.8,6.5c-4.2,4.4-6.4,9.9-6.4,16.3s2.1,11.9,6.4,16.3c4.2,4.4,9.4,6.5,15.8,6.5Z"/>
  </g>
  <g>
    <path class="st0" d="M27.5,174c0-9.3,3.2-17,9.6-23.2,6.4-6.2,14.3-9.3,23.8-9.3s12.5,1.6,17.9,4.8c5.4,3.2,9.4,7.6,12.1,13.2l-13.8,5.1c-1.6-3-3.8-5.3-6.6-7-2.9-1.7-6.1-2.5-9.6-2.5-5.4,0-9.9,1.8-13.3,5.5-3.5,3.6-5.3,8.1-5.3,13.4s1.7,9.7,5.1,13.4c3.4,3.6,7.6,5.5,12.7,5.5s6.9-1,9.9-3c3-2,5.2-4.6,6.5-7.8h-17.9v-12.1h34c.2,1.1.3,2.2.3,3.4,0,9.3-3.1,17.2-9.3,23.6-6.1,6.3-13.9,9.5-23.4,9.5s-16.9-3.1-23.3-9.3c-6.3-6.1-9.4-13.9-9.4-23.2Z"/>
    <path class="st0" d="M100.1,142.7h29.4c6.4,0,11.8,2,16.1,6.1,4.4,4,6.5,9,6.5,15s-1,7.5-3,10.8c-2,3.3-4.8,5.8-8.2,7.6l13.5,23.3h-15.8l-12.1-20.6h-12.2v20.6h-14.2v-62.7ZM129.5,155.8h-15.1v15.9h15.1c2.3,0,4.1-.8,5.6-2.3s2.2-3.4,2.2-5.7-.7-4.2-2.2-5.7-3.4-2.3-5.6-2.3Z"/>
    <path class="st0" d="M171.5,205.4h-14.9l26.4-62.7h11.7l26.3,62.7h-14.8l-4.3-10.6h-26.2l-4.3,10.6ZM196.9,182.1l-7.9-19.3-7.9,19.3h15.8Z"/>
    <path class="st0" d="M235.5,155.8h-19.3v-13.1h52.8v13.1h-19.3v49.6h-14.1v-49.6Z"/>
    <path class="st0" d="M289.3,205.4h-14.2v-62.7h14.2v62.7Z"/>
    <path class="st0" d="M342.1,156.2l-14.1,3.3c-.4-1.4-1.4-2.6-2.9-3.5s-3.3-1.4-5.4-1.4-3.9.5-5.4,1.4c-1.4,1-2.1,2.2-2.1,3.7s1.7,3.6,5.2,5c1.3.5,4.4,1.5,9.4,3,3.8,1.1,7,2.4,9.4,3.9,5.4,2.9,8.3,7.8,8.6,14.9,0,6.1-2.2,11-6.5,14.6-4.4,3.6-10,5.5-16.9,5.5s-11.8-1.5-16.4-4.5c-4.5-2.9-7.4-6.8-8.8-11.6l14.2-3.4c.5,1.9,1.7,3.4,3.8,4.6,2,1.2,4.4,1.8,7.2,1.8s4.7-.6,6.5-1.7c1.8-1.1,2.7-2.5,2.7-4.1s-.5-2.2-1.6-3c-1.4-1.2-4-2.4-7.8-3.7l-.9-.3c-3-.9-4.6-1.4-4.7-1.4l-4.4-1.6c-2.1-1-3.6-1.6-4.3-2.1-3.4-2.4-5.5-4.4-6.4-5.7-1.7-2.8-2.5-5.9-2.5-9.1,0-5.7,2-10.4,5.9-13.9,4-3.6,9.2-5.4,15.6-5.4s10.5,1.4,14.7,4.2c4.1,2.7,6.8,6.2,8,10.5Z"/>
  </g>
  <g>
    <g>
      <path class="st2" d="M431.2,227.8h-12.1v-53.4h12.1v20.8h23.1v-20.8h12v53.4h-12v-21.4h-23.1v21.4Z"/>
      <path class="st2" d="M478,222.8c-4-4-6-9-6-14.9s2-10.8,6-14.8c4-4,9.1-6,15.2-6s11.1,2,15.1,6c4.1,4,6.1,8.9,6.1,14.8s-2,10.8-6.1,14.9c-4.1,4-9.1,5.9-15.1,5.9s-11.2-2-15.2-5.9ZM493.2,217.5c2.6,0,4.8-.9,6.6-2.7,1.8-1.9,2.7-4.1,2.7-6.8s-.9-4.9-2.7-6.7c-1.7-1.9-3.9-2.8-6.6-2.8s-4.9.9-6.6,2.7c-1.8,1.9-2.7,4.1-2.7,6.8s.9,4.9,2.7,6.8c1.8,1.8,4,2.7,6.6,2.7Z"/>
      <path class="st2" d="M529.5,228.1l.2-.6-15-39.3h11.8l8.6,24.5,8.9-24.5h11.8l-16.9,43.8c-1.8,4.6-4.3,7.9-7.3,10-3,2.1-7,3.1-11.9,3.1h-1.4v-10.9h1.4c4.9,0,8.1-2,9.5-5.9Z"/>
      <path class="st2" d="M565.8,215.8c1.9,0,3.4.6,4.7,1.8,1.2,1.2,1.9,2.8,1.9,4.7s-.6,3.4-1.9,4.7-2.8,1.8-4.7,1.8-3.4-.6-4.6-1.8-1.8-2.8-1.8-4.7.6-3.4,1.8-4.7c1.2-1.2,2.7-1.8,4.6-1.8ZM570.6,210.4h-9.4l-1.4-36h12.1l-1.4,36Z"/>
    </g>
    <path class="st2" d="M425.9,66.7v20.1h-6.8v-52.6h23.1c4.9,0,8.9,1.6,12.2,4.7,3.3,3.1,4.9,7,4.9,11.6s-1.6,8.5-4.9,11.6c-3.3,3.1-7.3,4.7-12.2,4.7h-16.3ZM442.2,40.6h-16.3v19.8h16.3c2.9,0,5.2-1,7.1-2.9,1.9-1.9,2.9-4.3,2.9-7.1s-1-5.2-2.9-7.1c-1.9-1.9-4.3-2.8-7.1-2.8Z"/>
    <path class="st2" d="M503.3,69.5h-33.6c.5,3.5,2,6.4,4.7,8.8,2.6,2.3,5.8,3.5,9.6,3.5s8.8-1.9,11.6-5.6l6.2,2c-1.8,3-4.3,5.4-7.4,7.1-3.1,1.7-6.6,2.6-10.3,2.6-5.9,0-10.9-1.9-14.9-5.8-4-3.9-5.9-8.8-5.9-14.6s1.9-10.6,5.8-14.5c3.9-3.9,8.6-5.9,14.3-5.9s10.5,2,14.3,5.9c3.9,3.9,5.8,8.7,5.8,14.5s0,.9-.2,2.2ZM469.8,64.4h27.1c-.6-3.4-2.2-6.1-4.7-8.3-2.5-2.2-5.5-3.2-9-3.2s-6.3,1.1-8.8,3.2c-2.5,2.2-4,4.9-4.6,8.3Z"/>
    <path class="st2" d="M528.7,47c5.9,0,10.6,2.1,14.3,6.4v-22.8h6.3v56.3h-6.3v-5.6c-3.7,4.3-8.4,6.4-14.3,6.4s-10-1.9-13.7-5.8c-3.7-3.9-5.5-8.7-5.5-14.6s1.8-10.7,5.5-14.5c3.7-3.9,8.2-5.9,13.7-5.9ZM529.4,53.3c-3.8,0-6.9,1.4-9.5,4.1-2.6,2.7-3.8,6-3.8,10s1.3,7.4,3.8,10.1c2.7,2.7,5.8,4,9.5,4s7-1.3,9.5-4c2.6-2.7,3.9-6,3.9-10.1s-1.3-7.4-3.9-10c-2.6-2.7-5.7-4.1-9.5-4.1Z"/>
    <path class="st2" d="M557.4,37.9l13.7-8.9,3,5.6-14.5,7.1-2.2-3.8ZM566.3,86.8h-6.3v-39.1h6.3v39.1Z"/>
    <path class="st2" d="M606.1,91.7l2.1-5.1-13.9-33.8h5.8l10.9,27,11.2-27h5.8l-17.1,40.8c-1.3,3.2-3,5.5-5,6.9-2,1.4-4.6,2.2-7.7,2.2h-1.6v-5.4h1.6c3.7,0,6.3-1.9,7.8-5.6Z"/>
    <g>
      <path class="st2" d="M419.1,103.5h23.8c4.9,0,8.9,1.6,12.2,4.7,3.3,3.1,4.9,7,4.9,11.6s-1,6.7-3,9.4c-2,2.7-4.6,4.7-8,5.8l12.9,21.1h-7.6l-12.3-20.1h-16.1v20.1h-6.8v-52.6ZM442.9,109.8h-17.1v19.8h17.1c2.9,0,5.2-1,7.1-2.9s2.9-4.3,2.9-7.1-1-5.2-2.9-7.1c-1.9-1.9-4.3-2.8-7.1-2.8Z"/>
      <path class="st2" d="M506.5,138.7h-33.6c.5,3.5,2,6.4,4.7,8.8,2.6,2.3,5.8,3.5,9.6,3.5s8.8-1.9,11.6-5.6l6.2,2c-1.8,3-4.3,5.4-7.4,7.1-3.1,1.7-6.6,2.6-10.3,2.6-5.9,0-10.9-1.9-14.9-5.8-4-3.9-5.9-8.8-5.9-14.6s1.9-10.6,5.8-14.5c3.9-3.9,8.6-5.9,14.3-5.9s10.5,2,14.3,5.9c3.9,3.9,5.8,8.7,5.8,14.5s0,.9-.2,2.2ZM473,133.6h27.1c-.6-3.4-2.2-6.1-4.7-8.3-2.5-2.2-5.5-3.2-9-3.2s-6.3,1.1-8.8,3.2c-2.5,2.2-4,4.9-4.6,8.3Z"/>
      <path class="st2" d="M551.6,128l-6.3,1.9c-1.2-2.3-2.8-4-5-5.4-2.2-1.3-4.6-2-7.3-2-4,0-7.2,1.4-9.8,4.1-2.7,2.7-4,6-4,10s1.3,7.3,4,10.1c2.7,2.7,5.9,4,9.8,4s5.1-.7,7.3-2c2.2-1.3,3.8-3.1,5-5.4l6.3,1.9c-1.6,3.7-4.1,6.5-7.4,8.6-3.3,2.1-7.1,3.2-11.2,3.2s-10.6-1.9-14.6-5.8c-3.9-4-5.8-8.8-5.8-14.6s1.9-10.6,5.8-14.5c3.9-3.9,8.8-5.9,14.6-5.9s7.9,1.1,11.2,3.2c3.3,2.1,5.8,5,7.4,8.6Z"/>
      <path class="st2" d="M559.7,110.7c-.8-.9-1.2-1.9-1.2-3.2s.4-2.3,1.2-3.1,1.9-1.3,3.2-1.3,2.3.4,3.2,1.3c.9.8,1.3,1.8,1.3,3.1s-.4,2.3-1.3,3.2c-.9.8-1.9,1.2-3.2,1.2s-2.3-.4-3.2-1.2ZM566,156.1h-6.3v-39.1h6.3v39.1Z"/>
      <path class="st2" d="M576.6,156.1v-56.3h6.3v22.8c3.7-4.3,8.4-6.4,14.2-6.4s10.1,2,13.7,5.9c3.7,3.9,5.6,8.7,5.6,14.5s-1.9,10.6-5.6,14.6c-3.7,3.9-8.3,5.8-13.7,5.8s-10.5-2.1-14.2-6.4v5.6h-6.3ZM596.5,122.5c-3.8,0-6.9,1.4-9.5,4.1-2.6,2.7-3.8,6-3.8,10s1.3,7.4,3.8,10.1c2.7,2.7,5.8,4,9.5,4s7-1.3,9.5-4c2.6-2.7,3.9-6,3.9-10.1s-1.3-7.4-3.9-10c-2.6-2.7-5.7-4.1-9.5-4.1Z"/>
      <path class="st2" d="M622.5,107.2l13.7-8.9,3,5.6-14.5,7.1-2.2-3.8ZM631.4,156.1h-6.3v-39.1h6.3v39.1Z"/>
    </g>
  </g>
</svg>