<?xml version="1.0" encoding="UTF-8"?>
<svg id="Capa_2" xmlns="http://www.w3.org/2000/svg" version="1.1" viewBox="0 0 675.3 274">
  <!-- Generator: Adobe Illustrator 29.7.1, SVG Export Plug-In . SVG Version: 2.1.1 Build 8)  -->
  <defs>
    <style>
      .st0 {
        fill: #f7e100;
      }

      .st1 {
        fill: #fff;
      }

      .st2 {
        fill: #841468;
      }
    </style>
  </defs>
  <path class="st2" d="M632.8,274H42.5c-23.5,0-42.5-19-42.5-42.5V42.5C0,19,19,0,42.5,0h590.3C656.3,0,675.3,19,675.3,42.5v189c0,23.5-19,42.5-42.5,42.5Z"/>
  <path class="st0" d="M633.2,274h-219c-23.5,0-42.5-19-42.5-42.5V42.5C371.7,19,390.7,0,414.2,0h219C656.7,0,675.7,19,675.7,42.5v189c0,23.5-19,42.5-42.5,42.5Z"/>
  <g>
    <g>
      <path class="st1" d="M36.9,60.6h45.7v9.3h-35.6v17h30.9v9.3h-30.9v17.7h36.1v9.3h-46.1v-62.7h-.1Z"/>
      <path class="st1" d="M102.1,123.3h-9.7v-62.7h8.9l35.9,45.4v-45.4h9.7v62.7h-8.9l-35.9-45.4v45.4h0Z"/>
      <path class="st1" d="M189,123.3h-8.1l-26.7-62.7h10.6l20.2,48.3,20.2-48.3h10.6l-26.8,62.7Z"/>
      <path class="st1" d="M233.1,123.3h-10v-62.7h10v62.7Z"/>
      <path class="st1" d="M275.7,124.4c-9.3,0-17-3.1-23.2-9.3-6.2-6.2-9.3-13.9-9.3-23.2s3.1-17,9.3-23.2c6.2-6.2,13.9-9.3,23.2-9.3s17,3.1,23.2,9.3c6.3,6.1,9.4,13.9,9.4,23.2s-3.1,17-9.4,23.2c-6.2,6.2-13.9,9.3-23.2,9.3ZM275.7,114.8c6.3,0,11.6-2.2,15.8-6.5,4.2-4.4,6.4-9.9,6.4-16.3s-2.1-11.9-6.4-16.3c-4.2-4.4-9.4-6.5-15.8-6.5s-11.6,2.2-15.8,6.5c-4.2,4.4-6.4,9.9-6.4,16.3s2.1,11.9,6.4,16.3c4.2,4.4,9.4,6.5,15.8,6.5Z"/>
    </g>
    <g>
      <path class="st0" d="M27.5,174c0-9.3,3.2-17,9.6-23.2,6.4-6.2,14.3-9.3,23.8-9.3s12.5,1.6,17.9,4.8,9.4,7.6,12.1,13.2l-13.8,5.1c-1.6-3-3.8-5.3-6.6-7-2.9-1.7-6.1-2.5-9.6-2.5-5.4,0-9.9,1.8-13.3,5.5-3.5,3.6-5.3,8.1-5.3,13.4s1.7,9.7,5.1,13.4c3.4,3.6,7.6,5.5,12.7,5.5s6.9-1,9.9-3,5.2-4.6,6.5-7.8h-17.9v-12.1h34c.2,1.1.3,2.2.3,3.4,0,9.3-3.1,17.2-9.3,23.6-6.1,6.3-13.9,9.5-23.4,9.5s-16.9-3.1-23.3-9.3c-6.3-6.1-9.4-13.9-9.4-23.2h0Z"/>
      <path class="st0" d="M100.1,142.7h29.4c6.4,0,11.8,2,16.1,6.1,4.4,4,6.5,9,6.5,15s-1,7.5-3,10.8-4.8,5.8-8.2,7.6l13.5,23.3h-15.8l-12.1-20.6h-12.2v20.6h-14.2v-62.7h0ZM129.5,155.8h-15.1v15.9h15.1c2.3,0,4.1-.8,5.6-2.3s2.2-3.4,2.2-5.7-.7-4.2-2.2-5.7-3.4-2.3-5.6-2.3h0Z"/>
      <path class="st0" d="M171.5,205.4h-14.9l26.4-62.7h11.7l26.3,62.7h-14.8l-4.3-10.6h-26.2l-4.3,10.6h.1ZM196.9,182.1l-7.9-19.3-7.9,19.3h15.8,0Z"/>
      <path class="st0" d="M235.5,155.8h-19.3v-13.1h52.8v13.1h-19.3v49.6h-14.1v-49.6h0Z"/>
      <path class="st0" d="M289.3,205.4h-14.2v-62.7h14.2v62.7Z"/>
      <path class="st0" d="M342.1,156.2l-14.1,3.3c-.4-1.4-1.4-2.6-2.9-3.5s-3.3-1.4-5.4-1.4-3.9.5-5.4,1.4c-1.4,1-2.1,2.2-2.1,3.7s1.7,3.6,5.2,5c1.3.5,4.4,1.5,9.4,3,3.8,1.1,7,2.4,9.4,3.9,5.4,2.9,8.3,7.8,8.6,14.9,0,6.1-2.2,11-6.5,14.6-4.4,3.6-10,5.5-16.9,5.5s-11.8-1.5-16.4-4.5c-4.5-2.9-7.4-6.8-8.8-11.6l14.2-3.4c.5,1.9,1.7,3.4,3.8,4.6,2,1.2,4.4,1.8,7.2,1.8s4.7-.6,6.5-1.7c1.8-1.1,2.7-2.5,2.7-4.1s-.5-2.2-1.6-3c-1.4-1.2-4-2.4-7.8-3.7l-.9-.3c-3-.9-4.6-1.4-4.7-1.4l-4.4-1.6c-2.1-1-3.6-1.6-4.3-2.1-3.4-2.4-5.5-4.4-6.4-5.7-1.7-2.8-2.5-5.9-2.5-9.1,0-5.7,2-10.4,5.9-13.9,4-3.6,9.2-5.4,15.6-5.4s10.5,1.4,14.7,4.2c4.1,2.7,6.8,6.2,8,10.5h-.1Z"/>
    </g>
  </g>
  <g>
    <path class="st2" d="M408,62.9h12.3v52.9h32.4v11.4h-44.7V62.9Z"/>
    <path class="st2" d="M471.3,127.2h-11.5V58.3h11.5v68.9Z"/>
    <path class="st2" d="M529.1,107.5h-37.9c.9,3.1,2.6,5.7,5.1,7.6,2.5,1.9,5.5,2.9,8.9,2.9s8.5-1.7,11.2-5.1l11.1,3.2c-2.2,3.9-5.3,6.9-9.2,9.1-4,2.2-8.3,3.3-13.1,3.3-7.4,0-13.5-2.4-18.5-7.2-4.9-4.9-7.4-10.9-7.4-18.1s2.4-13.2,7.2-18,10.8-7.3,17.9-7.3,13,2.4,17.8,7.3c4.8,4.8,7.3,10.8,7.3,18s-.1,2.6-.4,4.2ZM491.3,98.6h26.4c-.9-3-2.6-5.4-5.1-7.3-2.5-1.8-5.2-2.8-8.4-2.8s-5.7.9-8.1,2.8c-2.4,1.8-4,4.3-4.9,7.3Z"/>
    <path class="st2" d="M558.1,78c5.4,0,10.2,1.7,14.5,5.1v-3.8h11.4v46.5c0,6.6-2.3,12.1-6.9,16.6-4.5,4.5-10.1,6.7-16.8,6.7s-10-1.4-14.3-4.1c-4.4-2.7-7.4-6.1-9-10.2l11.5-3.3c.9,1.8,2.4,3.3,4.5,4.5,2.1,1.2,4.5,1.7,7,1.7s6.5-1.2,9-3.5c2.4-2.3,3.7-5.1,3.7-8.5v-2.5c-4.3,3.4-9.1,5.1-14.5,5.1s-12.1-2.4-16.6-7.2c-4.4-4.8-6.6-10.9-6.6-18.1s2.2-13.2,6.6-18c4.5-4.8,10-7.3,16.6-7.3ZM568.6,93.4c-2.5-2.6-5.5-4-9.1-4s-6.7,1.3-9.2,4c-2.5,2.6-3.7,5.9-3.7,9.8s1.2,7.2,3.7,9.8c2.4,2.6,5.5,4,9.2,4s6.6-1.3,9.1-4c2.5-2.7,3.8-6,3.8-9.8s-1.3-7.1-3.8-9.8Z"/>
    <path class="st2" d="M615.2,128.5c-6.6,0-12.1-2.4-16.6-7.2-4.4-4.8-6.6-10.9-6.6-18.1s2.2-13.2,6.6-18c4.5-4.8,10-7.3,16.6-7.3s10.2,1.7,14.5,5.1v-3.8h11.4v47.8h-11.4v-3.8c-4.3,3.4-9.1,5.1-14.5,5.1ZM607.5,93.4c-2.5,2.6-3.7,5.9-3.7,9.8s1.2,7.2,3.7,9.8c2.4,2.6,5.5,4,9.2,4s6.6-1.3,9.1-4c2.5-2.7,3.8-6,3.8-9.8s-1.3-7.1-3.8-9.8c-2.5-2.6-5.5-4-9.1-4s-6.7,1.3-9.2,4ZM632.9,64.5l-20.1,8.5-3.8-7,18.7-11.7,5.1,10.1Z"/>
    <path class="st2" d="M444.6,208.3h-12.3v-64.3h12.3v26.1h31.5v-26.1h12.4v64.3h-12.4v-26.8h-31.5v26.8Z"/>
    <path class="st2" d="M504.1,202.5c-4.8-4.8-7.2-10.9-7.2-18.1s2.4-13.2,7.2-18,10.9-7.3,18.1-7.3,13.3,2.4,18.1,7.3c4.8,4.8,7.3,10.8,7.3,18s-2.4,13.3-7.3,18.1c-4.9,4.8-10.9,7.2-18.1,7.2s-13.2-2.4-18.1-7.2ZM522.2,170.6c-3.8,0-7,1.3-9.6,4-2.6,2.6-3.9,5.9-3.9,9.8s1.3,7.2,3.9,9.8c2.6,2.6,5.8,4,9.6,4s7-1.3,9.6-4c2.6-2.6,3.9-5.9,3.9-9.8s-1.3-7.2-3.9-9.8c-2.6-2.6-5.8-4-9.6-4Z"/>
    <path class="st2" d="M566.6,210.7l1.3-3.3-18.4-46.9h11.9l12.2,32.2,12.5-32.2h11.9l-21.6,54c-2,5-4.7,8.7-8,11-3.3,2.3-7.6,3.4-12.9,3.4h-1.8v-10.9h1.8c5.5,0,9.2-2.5,11.1-7.3Z"/>
    <path class="st2" d="M603,202.4c0-2,.7-3.7,2.1-5.1s3.1-2.1,5.1-2.1,3.8.7,5.2,2.1,2.1,3.1,2.1,5.1-.7,3.8-2.1,5.2-3.1,2.1-5.2,2.1-3.7-.7-5.1-2.1-2.1-3.1-2.1-5.2ZM615.2,188h-9.8l-1.3-44h12.3l-1.2,44Z"/>
  </g>
</svg>