<?xml version="1.0" encoding="UTF-8"?>
<svg id="Capa_2" xmlns="http://www.w3.org/2000/svg" version="1.1" viewBox="0 0 675.3 274">
  <!-- Generator: Adobe Illustrator 29.7.1, SVG Export Plug-In . SVG Version: 2.1.1 Build 8)  -->
  <defs>
    <style>
      .st0 {
        fill: #f7e100;
      }

      .st1 {
        fill: #fff;
      }

      .st2 {
        fill: #841468;
      }
    </style>
  </defs>
  <g>
    <path class="st2" d="M572.2,274H42.5c-23.5,0-42.5-19-42.5-42.5V42.5C0,19,19,0,42.5,0h529.7C595.7,0,614.7,19,614.7,42.5v189c0,23.5-19,42.5-42.5,42.5Z"/>
    <path class="st0" d="M633.2,274h-219c-23.5,0-42.5-19-42.5-42.5V42.5C371.7,19,390.7,0,414.2,0h219C656.7,0,675.7,19,675.7,42.5v189c0,23.5-19,42.5-42.5,42.5Z"/>
  </g>
  <g>
    <g>
      <path class="st1" d="M36.9,55.7h51.8v10.6h-40.4v19.3h35.1v10.6h-35.1v20.1h41v10.6h-52.3V55.5h-.1Z"/>
      <path class="st1" d="M110.9,126.8h-11V55.7h10.1l40.7,51.5v-51.5h11v71.1h-10.1l-40.7-51.5v51.5h0Z"/>
      <path class="st1" d="M209.5,126.8h-9.2l-30.3-71.1h12l22.9,54.8,22.9-54.8h12l-30.4,71.1Z"/>
      <path class="st1" d="M259.5,126.8h-11.3V55.7h11.3v71.1Z"/>
      <path class="st1" d="M307.8,128c-10.6,0-19.3-3.5-26.3-10.6-7-7-10.6-15.8-10.6-26.3s3.5-19.3,10.6-26.3c7-7,15.8-10.6,26.3-10.6s19.3,3.5,26.3,10.6c7.1,6.9,10.7,15.8,10.7,26.3s-3.5,19.3-10.7,26.3c-7,7-15.8,10.6-26.3,10.6ZM307.8,117.1c7.1,0,13.2-2.5,17.9-7.4,4.8-5,7.3-11.2,7.3-18.5s-2.4-13.5-7.3-18.5c-4.8-5-10.7-7.4-17.9-7.4s-13.2,2.5-17.9,7.4c-4.8,5-7.3,11.2-7.3,18.5s2.4,13.5,7.3,18.5c4.8,5,10.7,7.4,17.9,7.4Z"/>
    </g>
    <g>
      <path class="st0" d="M27.5,187.1c0-9.3,3.2-17,9.6-23.2,6.4-6.2,14.3-9.3,23.8-9.3s12.5,1.6,17.9,4.8,9.4,7.6,12.1,13.2l-13.8,5.1c-1.6-3-3.8-5.3-6.6-7-2.9-1.7-6.1-2.5-9.6-2.5-5.4,0-9.9,1.8-13.3,5.5-3.5,3.6-5.3,8.1-5.3,13.4s1.7,9.7,5.1,13.4c3.4,3.6,7.6,5.5,12.7,5.5s6.9-1,9.9-3,5.2-4.6,6.5-7.8h-17.9v-12.1h34c.2,1.1.3,2.2.3,3.4,0,9.3-3.1,17.2-9.3,23.6-6.1,6.3-13.9,9.5-23.4,9.5s-16.9-3.1-23.3-9.3c-6.3-6.1-9.4-13.9-9.4-23.2h0Z"/>
      <path class="st0" d="M100.1,155.8h29.4c6.4,0,11.8,2,16.1,6.1,4.4,4,6.5,9,6.5,15s-1,7.5-3,10.8-4.8,5.8-8.2,7.6l13.5,23.3h-15.8l-12.1-20.6h-12.2v20.6h-14.2v-62.7h0ZM129.5,168.9h-15.1v15.9h15.1c2.3,0,4.1-.8,5.6-2.3s2.2-3.4,2.2-5.7-.7-4.2-2.2-5.7-3.4-2.3-5.6-2.3h0Z"/>
      <path class="st0" d="M171.5,218.5h-14.9l26.4-62.7h11.7l26.3,62.7h-14.8l-4.3-10.6h-26.2l-4.3,10.6h.1ZM196.9,195.2l-7.9-19.3-7.9,19.3h15.8,0Z"/>
      <path class="st0" d="M235.5,168.9h-19.3v-13.1h52.8v13.1h-19.3v49.6h-14.1v-49.6h0Z"/>
      <path class="st0" d="M289.3,218.5h-14.2v-62.7h14.2v62.7Z"/>
      <path class="st0" d="M342.1,169.3l-14.1,3.3c-.4-1.4-1.4-2.6-2.9-3.5s-3.3-1.4-5.4-1.4-3.9.5-5.4,1.4c-1.4,1-2.1,2.2-2.1,3.7s1.7,3.6,5.2,5c1.3.5,4.4,1.5,9.4,3,3.8,1.1,7,2.4,9.4,3.9,5.4,2.9,8.3,7.8,8.6,14.9,0,6.1-2.2,11-6.5,14.6-4.4,3.6-10,5.5-16.9,5.5s-11.8-1.5-16.4-4.5c-4.5-2.9-7.4-6.8-8.8-11.6l14.2-3.4c.5,1.9,1.7,3.4,3.8,4.6,2,1.2,4.4,1.8,7.2,1.8s4.7-.6,6.5-1.7c1.8-1.1,2.7-2.5,2.7-4.1s-.5-2.2-1.6-3c-1.4-1.2-4-2.4-7.8-3.7l-.9-.3c-3-.9-4.6-1.4-4.7-1.4l-4.4-1.6c-2.1-1-3.6-1.6-4.3-2.1-3.4-2.4-5.5-4.4-6.4-5.7-1.7-2.8-2.5-5.9-2.5-9.1,0-5.7,2-10.4,5.9-13.9,4-3.6,9.2-5.4,15.6-5.4s10.5,1.4,14.7,4.2c4.1,2.7,6.8,6.2,8,10.5h-.1Z"/>
    </g>
  </g>
  <g>
    <g>
      <path class="st2" d="M421.8,218.9h-18.7v-82.3h18.7v32.1h35.6v-32.1h18.6v82.3h-18.6v-33.1h-35.6v33.1Z"/>
      <path class="st2" d="M497.7,208.2c-8.2-8.1-12.3-18.2-12.3-30.5s4.1-22.4,12.3-30.5c8.3-8.2,18.6-12.2,30.8-12.2s22.5,4.1,30.8,12.2c8.3,8.1,12.5,18.2,12.5,30.5s-4.2,22.4-12.5,30.5c-8.3,8.2-18.6,12.2-30.8,12.2s-22.5-4.1-30.8-12.2ZM528.6,202.6c6.7,0,12.4-2.4,17.1-7.1,4.5-4.8,6.8-10.7,6.8-17.8s-2.3-13-6.8-17.6c-4.5-4.8-10.2-7.2-17.1-7.2s-12.4,2.4-16.9,7.2c-4.5,4.6-6.8,10.5-6.8,17.6s2.3,13,6.8,17.8c4.5,4.7,10.2,7.1,16.9,7.1Z"/>
      <path class="st2" d="M600.7,185.1l-30.8-48.5h21.4l18.7,31.1,19.3-31.1h21.3l-31.3,48.1v34.2h-18.6v-33.9Z"/>
    </g>
    <g>
      <path class="st2" d="M403.1,54.5h8.7v46.4h28.5v8.1h-37.2v-54.5Z"/>
      <path class="st2" d="M447.7,54.5h8.7v46.4h28.5v8.1h-37.2v-54.5Z"/>
      <path class="st2" d="M492.2,54.5h39.7v8.1h-31v14.8h26.8v8.1h-26.8v15.4h31.4v8.1h-40.1v-54.5Z"/>
      <path class="st2" d="M566,53.5c5.6,0,10.6,1.3,15.1,4,4.5,2.6,7.9,6.3,10.3,10.8l-8.5,3.1c-1.7-3-4-5.3-7-7-3-1.7-6.3-2.5-9.9-2.5-5.6,0-10.3,1.9-14.1,5.7-3.7,3.8-5.6,8.6-5.6,14.2s1.8,10.4,5.4,14.2c3.6,3.8,8.1,5.7,13.4,5.7s8.2-1.3,11.7-3.9c3.4-2.5,5.6-5.9,6.6-10.1h-19.3v-8.1h29.2c.1,1.3.2,2.2.2,2.5-.1,8-2.8,14.7-8.2,20-5.3,5.3-12,8-19.9,8s-14.7-2.7-20.1-8.1c-5.3-5.3-8-12.1-8-20.2s2.7-14.8,8.2-20.2c5.6-5.4,12.4-8.1,20.5-8.1Z"/>
      <path class="st2" d="M605.4,109h-9.2l23.6-54.5h7.1l23.7,54.5h-9.2l-4.8-11.2h-26.3l-4.8,11.2ZM633.1,89.7l-9.7-22.8-9.7,22.8h19.5Z"/>
    </g>
  </g>
</svg>