<?xml version="1.0" encoding="UTF-8"?>
<svg id="Capa_2" xmlns="http://www.w3.org/2000/svg" version="1.1" viewBox="0 0 1358.4 320.8">
  <!-- Generator: Adobe Illustrator 29.7.1, SVG Export Plug-In . SVG Version: 2.1.1 Build 8)  -->
  <defs>
    <style>
      .st0 {
        fill: #007638;
      }

      .st1 {
        fill: #ffd549;
      }

      .st2 {
        isolation: isolate;
      }

      .st3 {
        fill: #fffceb;
      }

      .st4 {
        fill: #ea5a17;
      }
    </style>
  </defs>
  <rect class="st0" y="0" width="746.9" height="274" rx="40.2" ry="40.2"/>
  <g>
    <rect class="st4" x="809.3" y="62.2" width="549.1" height="90.7" rx="30.6" ry="30.6"/>
    <g>
      <path class="st3" d="M849.2,84.4h6.9v36.9h22.7v6.4h-29.6v-43.4h0Z"/>
      <path class="st3" d="M890.8,127.8h-6.5v-46.5h6.5v46.5Z"/>
      <path class="st3" d="M930.5,114h-26.8c.5,2.5,1.7,4.6,3.7,6.2s4.3,2.4,7,2.4,6.5-1.3,8.6-4l6.3,1.9c-1.5,2.5-3.5,4.5-6.2,5.9-2.6,1.4-5.5,2.2-8.7,2.2-5,0-9.1-1.6-12.3-4.8-3.3-3.2-5-7.2-5-12.1s1.6-8.8,4.8-12.1c3.2-3.2,7.2-4.8,12-4.8s8.8,1.6,11.9,4.8c3.2,3.2,4.8,7.2,4.8,12.1s0,.9-.1,2.4ZM903.8,108.9h20.2c-.6-2.4-1.8-4.3-3.7-5.9-1.9-1.5-4.1-2.3-6.6-2.3s-4.5.8-6.3,2.3c-1.8,1.5-3,3.5-3.6,5.9h0Z"/>
      <path class="st3" d="M950.8,94.7c4.2,0,7.8,1.4,10.7,4.3v-3.5h6.5v31.1c0,4.5-1.6,8.3-4.7,11.3-3.1,3.1-6.9,4.6-11.4,4.6s-6.4-.9-9.3-2.5c-2.8-1.6-4.8-3.8-6-6.5l6.5-1.9c.7,1.3,1.8,2.4,3.4,3.2,1.6.9,3.3,1.3,5.2,1.3,2.8,0,5.1-.9,7.1-2.7,1.9-1.8,2.8-4,2.8-6.7v-2.4c-3,2.8-6.5,4.3-10.7,4.3s-8.3-1.6-11.3-4.8c-3-3.2-4.5-7.2-4.5-12.1s1.5-8.9,4.5-12.1c3.1-3.2,6.8-4.8,11.3-4.8h0ZM951.5,101.2c-2.8,0-5.1,1-7,3-1.9,1.9-2.8,4.4-2.8,7.4s1,5.5,2.8,7.5c1.9,2,4.3,3,7,3s5.2-1,7.1-3c1.9-2,2.8-4.5,2.8-7.5s-1-5.5-2.8-7.4c-1.9-2-4.3-3-7.1-3Z"/>
      <path class="st3" d="M990.1,94.7c4.2,0,7.8,1.4,10.7,4.3v-3.5h6.5v32.2h-6.5v-3.5c-3,2.8-6.5,4.3-10.7,4.3s-8.3-1.6-11.3-4.8c-3-3.2-4.5-7.2-4.5-12.1s1.5-8.9,4.5-12.1c3.1-3.2,6.8-4.8,11.3-4.8h0ZM990.8,101.2c-2.8,0-5.1,1-7,3-1.9,1.9-2.8,4.4-2.8,7.4s1,5.5,2.8,7.5c1.9,2,4.3,3,7,3s5.2-1,7.1-3c1.9-2,2.8-4.5,2.8-7.5s-1-5.5-2.8-7.4c-1.9-2-4.3-3-7.1-3Z"/>
      <path class="st3" d="M1045.9,94.7c4.2,0,7.8,1.4,10.7,4.3v-3.5h6.4v31.1c0,4.5-1.6,8.3-4.7,11.3-3.1,3.1-6.9,4.6-11.4,4.6s-6.4-.9-9.3-2.5c-2.8-1.6-4.8-3.8-6-6.5l6.5-1.9c.7,1.3,1.8,2.4,3.4,3.2,1.6.9,3.3,1.3,5.2,1.3,2.8,0,5.1-.9,7.1-2.7,1.9-1.8,2.8-4,2.8-6.7v-2.4c-3,2.8-6.6,4.3-10.7,4.3s-8.3-1.6-11.3-4.8c-3-3.2-4.5-7.2-4.5-12.1s1.5-8.9,4.5-12.1c3.1-3.2,6.8-4.8,11.3-4.8h0ZM1046.6,101.2c-2.8,0-5.1,1-7,3-1.9,1.9-2.8,4.4-2.8,7.4s.9,5.5,2.8,7.5c1.9,2,4.3,3,7,3s5.2-1,7.1-3c1.9-2,2.8-4.5,2.8-7.5s-.9-5.5-2.8-7.4c-1.9-2-4.3-3-7.1-3Z"/>
      <path class="st3" d="M1077.2,95.6v4.7c2.4-3.7,6.3-5.5,11.5-5.5v7.2c-.7-.3-1.7-.5-2.8-.5-2.5,0-4.6.8-6.2,2.4-1.7,1.5-2.5,3.5-2.5,5.9v18h-6.4v-32.2h6.4Z"/>
      <path class="st3" d="M1106.7,94.7c4.2,0,7.8,1.4,10.7,4.3v-3.5h6.4v32.2h-6.4v-3.5c-3,2.8-6.6,4.3-10.7,4.3s-8.3-1.6-11.3-4.8c-3-3.2-4.5-7.2-4.5-12.1s1.5-8.9,4.5-12.1c3.1-3.2,6.8-4.8,11.3-4.8h0ZM1107.4,101.2c-2.8,0-5.1,1-7,3-1.9,1.9-2.8,4.4-2.8,7.4s.9,5.5,2.8,7.5c1.9,2,4.3,3,7,3s5.2-1,7.1-3c1.9-2,2.8-4.5,2.8-7.5s-.9-5.5-2.8-7.4c-1.9-2-4.3-3-7.1-3Z"/>
      <path class="st3" d="M1128.5,101.2v-5.6h4.9v-6.4h6.4v6.4h8.6v5.6h-8.6v15.9c0,1.3.4,2.4,1.2,3.2.8.9,1.9,1.3,3.1,1.3h4.2v6.2h-4.7c-2.9,0-5.3-.9-7.3-2.8-2-1.9-3-4.3-3-7.1v-16.7h-4.9Z"/>
      <path class="st3" d="M1154.2,90.8c-.8-.8-1.2-1.8-1.2-3s.4-2.2,1.2-3c.8-.8,1.8-1.2,3-1.2s2.2.4,3,1.2c.8.8,1.2,1.8,1.2,3s-.4,2.2-1.2,3-1.8,1.2-3,1.2-2.2-.4-3-1.2ZM1160.5,127.8h-6.4v-32.2h6.4s0,32.2,0,32.2Z"/>
      <path class="st3" d="M1191,102.9l-6.1,1.1c-.7-2.4-2.8-3.6-6.3-3.6s-2.8.3-3.8.9-1.5,1.5-1.5,2.5,1,2.5,3.1,3.2l7.2,2.5c2.8,1,4.8,2.3,6,3.8s1.9,3.3,1.9,5.5c0,3.1-1.1,5.5-3.4,7.2-2.3,1.7-5.3,2.5-9,2.5s-6.6-.8-8.9-2.4-3.6-3.8-4.1-6.6l6.1-.9c.3,1.3,1.1,2.3,2.3,3.1s2.8,1.2,4.7,1.2,3.2-.3,4.4-1.1c1.1-.7,1.7-1.7,1.7-2.8s-1.3-2.8-3.9-3.7l-7.2-2.4c-2.5-.9-4.3-2-5.5-3.3-1.1-1.4-1.7-3.1-1.7-5.2,0-3.1,1.1-5.5,3.3-7.1,2.2-1.7,5.1-2.5,8.7-2.5s5.9.7,8.1,2.2c2.1,1.5,3.4,3.5,3.8,6h0Z"/>
      <path class="st3" d="M1214.1,127.8v-46.5h6.4v19c2.4-3.7,6-5.5,10.8-5.5s6.9,1.2,9.4,3.6c2.5,2.4,3.7,5.5,3.7,9.1v20.4h-6.4v-18.5c0-2.4-.8-4.4-2.4-5.9-1.6-1.6-3.6-2.4-6.1-2.4s-4.7.8-6.4,2.4c-1.7,1.6-2.5,3.6-2.5,6v18.5h-6.4,0Z"/>
      <path class="st3" d="M1267.6,128.6c-4.8,0-8.9-1.6-12.1-4.8-3.2-3.2-4.8-7.2-4.8-12.1s1.6-8.9,4.8-12.1,7.2-4.8,12.1-4.8,8.9,1.6,12.1,4.8c3.3,3.2,4.9,7.2,4.9,12.1s-1.6,8.9-4.9,12.1c-3.2,3.2-7.2,4.8-12.1,4.8ZM1267.6,122.2c3,0,5.4-1,7.3-3,2-2,3-4.5,3-7.5s-1-5.5-3-7.4c-1.9-2-4.3-3-7.3-3s-5.3,1-7.3,3c-1.9,2-2.9,4.5-2.9,7.4s1,5.4,2.9,7.5c2,2,4.4,3,7.3,3Z"/>
      <path class="st3" d="M1297.7,130.5l1.4-3.5-12.6-31.4h6.6l9.2,23.4,9.5-23.4h6.6l-15.2,37.1c-1.3,3.1-3,5.4-5,6.9-2.1,1.4-4.7,2.2-7.9,2.2h-1.4v-6.2h1.4c1.9,0,3.4-.4,4.6-1.2,1.2-.8,2.1-2.1,2.8-3.8h0Z"/>
    </g>
  </g>
  <g>
    <path class="st1" d="M78.7,137.2l2.1-19.7c-5.6,0-11.3-.1-17,0-9.2.2-22.4,1.6-31.2.4-2.9-.4-6.3-3.3-7.3-6-2.1-5.3,2.8-11.2,8.2-11.5h49.4c0-.1,2.2-19.3,2.2-19.3-6.2-.2-12.4-.5-18.7-.4-6.6,0-20.7,2.1-25.9-1.5-7.2-5-2.6-15,5.4-15.6l41.3-.2c.5-.4,1.1-9.4,1.4-11.1,1.3-6.6,6-12.4,12.9-13.2h137.9c6.8,2.8,12.3,9.2,11.5,17l-2.4,17.8.5.9h37.7c4.5,0,9.7,4,12.4,7.3,11.3,13.5,21.4,36.6,34.3,47.6,6.7,5.7,17.7,9.1,17.3,19.1-.6,14.9-4.8,31.1-5.7,46.2-.7,3.1-7.1,7.6-10,7.6h-10.1v-8.4c0-9.8-9.9-21.1-18.1-25.6-26.6-14.4-59.4,6.1-65.4,33.9h-75.9v-7.1c0-8.4-7.2-18.7-13.8-23.5-23.6-17.7-55.3-3.7-66.5,21.3-.7,1.6-2.7,8-3.3,8.7-1.8,1.8-8-1.6-9-3.5-.7-1.3-.6-3.2-.9-4.6.2-13.1,2.9-26.1,3.9-39.2h-33.2c-1,0-4-2.5-4.7-3.4-3.4-4.4-1.5-10.7,3.4-12.9,3.4-1.5,13.1-.8,17.4-.8h19.7ZM200.8,65.4c-2.5,0-5.1,1.1-6.9,2.8l-35.4,43.9c-2.1,2.4-3.8,1.8-5.8-.2-5.2-5-13.6-20.5-20.6-21.4-8-1.1-14.4,8.5-9.8,15.4,8.7,9.4,16.3,21.3,25.3,30.5,5.4,5.5,11.1,5.9,16.5.2l45.2-56.4c3.4-6.4-1.1-14.8-8.5-14.8h0ZM254.9,94l-4.7,34.1c0,4.2,7.6,2.3,10,2.3,14.8-.3,29.9.6,44.5-.5,2.1-.8,2.4-2.1,1.6-4.1l-21.5-31.2c-2.1-1.7-13.5-1.2-16.7-1.1-4.3.3-9.1-.6-13.3.4h0Z"/>
    <path class="st1" d="M124.9,175.1c29.9-2.2,39.4,31.3,21.7,52.2-21.4,25.3-63.3,9.4-53.4-25.5,4.1-14.5,16.4-25.6,31.6-26.6ZM123.6,196.5c-14.7,2.1-17.6,24,.7,21.7,8.1-1,14.2-11.1,8.6-18-2-2.5-6.2-4.2-9.3-3.8Z"/>
    <path class="st1" d="M286.1,175.1c27-1,36.7,25.9,23.6,47.1-19.6,31.8-68.3,16.7-56.3-21.6,4.5-14.2,17.6-25,32.7-25.6h0ZM283.1,196.9c-15.8,2.1-14.4,26.2,2.6,21,13.6-4.1,12.4-23.1-2.6-21Z"/>
    <path class="st1" d="M78.7,137.2h-19.7c6.6,0,13.2,0,19.7,0Z"/>
    <path class="st1" d="M268.2,93.5c0,0-.7.4-1.5.5-3.9.1-7.9-.2-11.8,0,4.2-1,8.9-.2,13.3-.4Z"/>
  </g>
  <g class="st2">
    <path class="st3" d="M398.4,40.6h43.3v11.4h-30.9v11.8h26.2v11.3h-26.2v12.4h31.3v11.3h-43.7v-58.3Z"/>
    <path class="st3" d="M460.7,98.9h-11.8v-58.3h11l29,37.1v-37.1h11.8v58.3h-10.9l-29.1-37.1v37.1Z"/>
    <path class="st3" d="M540.1,98.9h-10.1l-24.3-58.3h12.9l16.5,40.6,16.4-40.6h12.9l-24.3,58.3Z"/>
    <path class="st3" d="M581.7,98.9h-12.3v-58.3h12.3v58.3Z"/>
    <path class="st3" d="M597.6,91.3c-5.8-5.8-8.7-13-8.7-21.5s2.9-15.7,8.7-21.5c5.9-5.8,13.2-8.7,21.8-8.7s15.9,2.9,21.8,8.7c5.8,5.8,8.7,13,8.7,21.5s-2.9,15.7-8.7,21.5c-5.8,5.8-13,8.6-21.8,8.6s-16-2.9-21.8-8.6ZM601.8,69.7c0,5.2,1.7,9.6,5,13.1,3.3,3.5,7.6,5.3,12.7,5.3s9.3-1.8,12.6-5.3c3.4-3.6,5.1-7.9,5.1-13.1s-1.7-9.5-5.1-13c-3.3-3.5-7.5-5.3-12.6-5.3s-9.4,1.8-12.7,5.3c-3.3,3.5-5,7.9-5,13Z"/>
  </g>
  <g class="st2">
    <path class="st3" d="M397,147.6c0-8.6,3-15.8,8.9-21.6,5.9-5.8,13.3-8.6,22.1-8.6s11.5,1.5,16.5,4.4c5,3,8.7,7,11.2,12.1l-11.9,4.4c-1.5-2.8-3.7-5-6.5-6.6-2.8-1.6-5.9-2.4-9.3-2.4-5.2,0-9.5,1.8-12.9,5.3-3.5,3.5-5.2,7.9-5.2,13s1.6,9.6,4.9,13.1c3.3,3.5,7.5,5.3,12.4,5.3s7.1-1,10.1-3.1c3-2,5-4.8,6.1-8.2h-17.7v-10.5h31.7c0,.3,0,.8.1,1.6s.1,1.3.1,1.5c-.1,8.8-3,16.1-8.7,21.8-5.8,5.8-13,8.7-21.6,8.7s-15.9-2.9-21.7-8.6c-5.8-5.8-8.7-13-8.7-21.5Z"/>
    <path class="st3" d="M464.9,118.4h27.1c6,0,10.9,1.8,14.8,5.5,4,3.7,6,8.3,6,13.8s-1,7.1-2.9,10.1c-1.9,3-4.5,5.3-7.8,6.9l12.9,21.8h-13.7l-11.6-19.6h-12.3v19.6h-12.3v-58.3ZM492.1,129.8h-14.8v16h14.8c2.3,0,4.2-.8,5.7-2.3,1.5-1.5,2.2-3.4,2.2-5.7s-.7-4.2-2.2-5.7c-1.5-1.5-3.4-2.2-5.7-2.2Z"/>
  </g>
  <g class="st2">
    <path class="st3" d="M533.5,176.6h-12.9l24.7-58.3h10.1l24.7,58.3h-12.9l-4.2-10.3h-25.3l-4.2,10.3ZM558.4,155.2l-8-19.3-8,19.3h16.1Z"/>
  </g>
  <g class="st2">
    <path class="st3" d="M596.5,129.8h-18.6v-11.4h49.4v11.4h-18.6v46.9h-12.3v-46.9Z"/>
    <path class="st3" d="M645.9,176.6h-12.3v-58.3h12.3v58.3Z"/>
    <path class="st3" d="M695.4,130.9l-12.2,2.9c-.4-1.4-1.4-2.7-3-3.7-1.6-1-3.5-1.5-5.5-1.5s-4,.5-5.5,1.6c-1.5,1-2.2,2.4-2.2,4s1.8,3.7,5.4,5.1c1,.4,3.9,1.3,8.5,2.7,3.6,1,6.6,2.2,8.9,3.6,5.1,2.6,7.7,7.1,8,13.6,0,5.6-2,10.1-6,13.5-4,3.3-9.2,5-15.6,5s-10.8-1.4-15.1-4.1c-4.1-2.8-6.8-6.3-8-10.6l12.3-3c.5,1.8,1.7,3.4,3.7,4.6,2,1.2,4.4,1.8,7.1,1.8s4.9-.6,6.7-1.7c1.8-1.1,2.7-2.5,2.7-4.3.3-1.4-.7-2.9-3.3-4.4-.5-.2-1.2-.6-2.3-1-1.2-.5-2-.7-2.2-.8l-2.4-.8-5.1-1.6-4.6-1.8c-1.8-.7-3.3-1.5-4.5-2.4-4.7-3.5-6.9-7.7-6.5-12.5,0-5.2,1.8-9.5,5.5-12.8,3.7-3.3,8.5-4.9,14.4-4.9s9.8,1.3,13.6,3.9c3.9,2.5,6.3,5.7,7.3,9.7Z"/>
  </g>
  <g class="st2">
    <path class="st3" d="M400.1,194.1h33.1v3.9h-28.8v17.2h25.6v3.9h-25.6v17.8h29.2v3.9h-33.4v-46.6Z"/>
    <path class="st3" d="M455.8,216.9l-17.5-22.8h5l15,19.6,15-19.6h5l-17.5,22.8,18.1,23.7h-5l-15.7-20.5-15.6,20.5h-5l18.1-23.7Z"/>
    <path class="st3" d="M490.6,222v18.7h-4.2v-46.6h20.1c4.2,0,7.6,1.3,10.4,4,2.8,2.7,4.1,6,4.1,9.9s-1.4,7.2-4.1,9.9c-2.7,2.7-6.2,4-10.4,4h-15.9ZM506.5,197.9h-15.9v20.1h15.9c2.9,0,5.3-.9,7.2-2.8,2-1.9,3-4.3,3-7.2s-1-5.2-3-7.2c-1.9-1.9-4.3-2.9-7.2-2.9Z"/>
    <path class="st3" d="M530.3,194.1h20.8c4.2,0,7.7,1.3,10.4,4,2.8,2.7,4.1,6,4.1,9.9s-.9,6-2.8,8.5c-1.9,2.4-4.4,4.1-7.5,4.9l11.9,19.3h-4.7l-11.7-18.7h-16.4v18.7h-4.2v-46.6ZM551.1,197.9h-16.6v20.1h16.6c2.9,0,5.3-.9,7.3-2.8,2-1.9,3-4.3,3-7.2s-1-5.2-3-7.2c-1.9-1.9-4.4-2.9-7.3-2.9Z"/>
    <path class="st3" d="M575.6,194.1h33.1v3.9h-28.8v17.2h25.6v3.9h-25.6v17.8h29.2v3.9h-33.4v-46.6Z"/>
  </g>
  <g class="st2">
    <path class="st3" d="M656,203.9l-4.1,1.1c-.4-2.2-1.7-4-3.9-5.4-2.2-1.4-4.7-2.1-7.7-2.1s-5.9.8-8.1,2.4c-2.2,1.6-3.2,3.7-3.2,6.1s1.3,4.6,4,5.9c2.2,1.1,5.2,2.1,9.1,3,4.2,1,7.5,2.2,10,3.7,3.4,1.9,5.1,4.9,5.1,9s-1.6,7.2-4.7,9.7c-3.1,2.5-7.1,3.8-11.9,3.8s-8.2-1.1-11.2-3.2c-3.1-2.1-5-4.8-5.7-8l4.1-1.2c.4,2.4,1.8,4.4,4.2,5.9,2.4,1.6,5.3,2.3,8.7,2.3s6.5-.9,8.8-2.6c2.4-1.7,3.6-3.9,3.6-6.6s-.6-3.3-1.9-4.6c-1.2-1.1-2.4-2-3.9-2.6-1.4-.6-3.5-1.2-6.2-1.8-1.7-.4-3.3-.8-4.7-1.2-1.2-.4-2.6-.9-4.3-1.5-1.7-.8-3-1.5-3.9-2.3-2.3-2.2-3.4-4.7-3.4-7.7s1.4-6.7,4.3-9.2c2.9-2.4,6.5-3.6,11-3.6s7.6,1,10.4,3c2.9,1.9,4.7,4.4,5.4,7.5Z"/>
  </g>
  <g class="st2">
    <path class="st3" d="M698.3,203.9l-4.1,1.1c-.4-2.2-1.7-4-3.9-5.4-2.2-1.4-4.7-2.1-7.7-2.1s-5.9.8-8.1,2.4c-2.2,1.6-3.2,3.7-3.2,6.1s1.3,4.6,4,5.9c2.2,1.1,5.2,2.1,9.1,3,4.2,1,7.5,2.2,10,3.7,3.4,1.9,5.1,4.9,5.1,9s-1.6,7.2-4.7,9.7c-3.1,2.5-7.1,3.8-11.9,3.8s-8.2-1.1-11.2-3.2c-3.1-2.1-5-4.8-5.7-8l4.1-1.2c.4,2.4,1.8,4.4,4.2,5.9,2.4,1.6,5.3,2.3,8.7,2.3s6.5-.9,8.8-2.6c2.4-1.7,3.6-3.9,3.6-6.6s-.6-3.3-1.9-4.6c-1.2-1.1-2.4-2-3.9-2.6s-3.5-1.2-6.2-1.8c-1.7-.4-3.3-.8-4.7-1.2-1.2-.4-2.6-.9-4.3-1.5-1.7-.8-3-1.5-3.9-2.3-2.3-2.2-3.4-4.7-3.4-7.7s1.4-6.7,4.3-9.2c2.9-2.4,6.5-3.6,11-3.6s7.6,1,10.4,3c2.9,1.9,4.7,4.4,5.4,7.5Z"/>
  </g>
  <g>
    <path class="st0" d="M846.8,207.9h-21.9c.5,1.8,1.5,3.3,2.9,4.4,1.5,1.1,3.2,1.7,5.1,1.7s4.9-1,6.5-2.9l6.4,1.9c-1.3,2.2-3,4-5.3,5.2-2.3,1.3-4.8,1.9-7.5,1.9-4.2,0-7.8-1.4-10.7-4.1-2.8-2.8-4.2-6.3-4.2-10.4s1.4-7.6,4.1-10.4c2.8-2.8,6.2-4.2,10.3-4.2s7.5,1.4,10.3,4.2c2.8,2.8,4.2,6.2,4.2,10.4s0,1.5-.2,2.4h0ZM825,202.7h15.2c-.5-1.7-1.5-3.1-2.9-4.2-1.4-1.1-3-1.6-4.8-1.6s-3.3.5-4.7,1.6c-1.4,1.1-2.3,2.5-2.8,4.2h0Z"/>
    <path class="st0" d="M851.1,219.2v-27.6h6.6v3.3c2-2.8,4.8-4.1,8.3-4.1s5.7,1,7.7,3.1c2.1,2.1,3.1,4.6,3.1,7.7v17.6h-6.6v-15.7c0-1.8-.6-3.3-1.8-4.5-1.2-1.2-2.7-1.8-4.4-1.8s-3.3.6-4.5,1.8-1.8,2.7-1.8,4.5v15.7h-6.6Z"/>
    <path class="st0" d="M916.9,174.7c4.7,0,8.8,1.1,12.5,3.4,3.7,2.3,6.5,5.3,8.3,9.1l-9.6,3.6c-1.1-2-2.7-3.6-4.6-4.8s-4.1-1.8-6.5-1.8c-3.6,0-6.6,1.3-9,3.8-2.4,2.5-3.6,5.6-3.6,9.4s1.2,6.9,3.6,9.4c2.4,2.5,5.4,3.7,9,3.7s4.6-.6,6.5-1.8c2-1.2,3.5-2.8,4.6-4.8l9.6,3.6c-1.8,3.8-4.5,6.8-8.3,9.2-3.7,2.2-7.8,3.4-12.5,3.4s-11.9-2.2-16.3-6.5c-4.4-4.3-6.5-9.7-6.5-16.2s2.2-11.9,6.5-16.2c4.4-4.3,9.9-6.5,16.3-6.5h0Z"/>
    <path class="st0" d="M945.3,215.2c-3.3-3.3-4.9-7.3-4.9-12.2s1.6-8.9,4.9-12.1c3.3-3.3,7.4-4.9,12.4-4.9s9.1,1.6,12.3,4.9c3.3,3.2,5,7.3,5,12.1s-1.7,8.8-5,12.2c-3.3,3.2-7.5,4.9-12.3,4.9s-9.1-1.6-12.4-4.9ZM957.7,210.8c2.2,0,4-.8,5.4-2.2,1.5-1.5,2.2-3.4,2.2-5.6s-.8-4-2.2-5.5c-1.4-1.5-3.2-2.3-5.4-2.3s-4,.8-5.4,2.2c-1.5,1.5-2.2,3.4-2.2,5.6s.7,4,2.2,5.6c1.5,1.5,3.3,2.2,5.4,2.2ZM954.4,182.8l-2.9-5.1,13.2-8.3,4,7.3-14.2,6.1Z"/>
    <path class="st0" d="M988.6,186.8v3.4c2.2-2.8,5.5-4.2,9.9-4.2v10c-.9-.6-2-.9-3.4-.9s-3.4.6-4.7,1.9c-1.2,1.3-1.9,2.9-1.9,4.8v17.5h-9.4v-32.4h9.4Z"/>
    <path class="st0" d="M1000,203c0-4.9,1.5-9,4.4-12.2,2.9-3.2,6.6-4.9,11-4.9s6.3,1,9,3v-16.5h9.3v46.8h-9.3v-2.2c-2.6,2-5.6,3.1-9,3.1s-8.1-1.6-11-4.9c-2.9-3.3-4.4-7.3-4.4-12.2h0ZM1017,195.2c-2,0-3.8.8-5.2,2.2-1.4,1.5-2.1,3.3-2.1,5.5s.7,4.1,2.1,5.6,3.1,2.2,5.2,2.2,3.7-.8,5.1-2.2,2.1-3.4,2.1-5.6-.7-4-2.1-5.5c-1.4-1.5-3.1-2.2-5.1-2.2h0Z"/>
    <path class="st0" d="M1042.8,215.2c-3.3-3.3-4.9-7.3-4.9-12.2s1.6-8.9,4.9-12.1c3.3-3.3,7.4-4.9,12.4-4.9s9.1,1.6,12.3,4.9c3.3,3.2,5,7.3,5,12.1s-1.7,8.8-5,12.2c-3.3,3.2-7.4,4.9-12.3,4.9s-9.1-1.6-12.4-4.9ZM1055.2,210.8c2.2,0,3.9-.8,5.4-2.2,1.5-1.5,2.2-3.4,2.2-5.6s-.8-4-2.2-5.5c-1.4-1.5-3.2-2.3-5.4-2.3s-4,.8-5.4,2.2c-1.5,1.5-2.2,3.4-2.2,5.6s.7,4,2.2,5.6c1.5,1.5,3.3,2.2,5.4,2.2Z"/>
    <path class="st0" d="M1076.7,219.2v-46.8h9.4v16.5c2.6-2,5.6-3,8.9-3s8,1.6,11,4.9c2.9,3.3,4.4,7.3,4.4,12.2s-1.5,8.8-4.4,12.2c-2.9,3.2-6.6,4.9-11,4.9s-6.3-1-8.9-3v2.2h-9.4ZM1093.5,195.2c-2,0-3.8.8-5.2,2.2-1.4,1.5-2.1,3.3-2.1,5.5s.7,4.1,2.1,5.6,3.1,2.2,5.2,2.2,3.7-.8,5.1-2.2,2.1-3.4,2.1-5.6-.7-4-2.1-5.5c-1.4-1.5-3.1-2.2-5.1-2.2h0Z"/>
    <path class="st0" d="M1113.6,203c0-4.9,1.5-9,4.4-12.2,2.9-3.2,6.6-4.9,11-4.9s6.3,1,9,3v-2.2h9.3v32.4h-9.3v-2.2c-2.6,2-5.6,3.1-9,3.1s-8.1-1.6-11-4.9c-2.9-3.3-4.4-7.3-4.4-12.2h0ZM1130.6,195.2c-2,0-3.8.8-5.2,2.2-1.4,1.5-2.1,3.3-2.1,5.5s.7,4.1,2.1,5.6,3.1,2.2,5.2,2.2,3.7-.8,5.1-2.2,2.1-3.4,2.1-5.6-.7-4-2.1-5.5c-1.4-1.5-3.1-2.2-5.1-2.2Z"/>
    <path class="st0" d="M1183.8,181.4c3.7,0,7.1.9,10.1,2.7s5.3,4.3,7,7.4l-5.8,2.1c-1.2-2-2.7-3.6-4.7-4.7-2-1.1-4.2-1.7-6.6-1.7-3.8,0-6.8,1.3-9.3,3.9-2.5,2.6-3.8,5.8-3.8,9.6s1.2,7,3.8,9.6c2.5,2.6,5.6,3.9,9.3,3.9s4.6-.6,6.6-1.7,3.6-2.7,4.7-4.7l5.8,2.1c-1.6,3.1-3.9,5.6-7,7.4s-6.4,2.7-10.1,2.7c-5.5,0-10.1-1.8-13.7-5.5-3.7-3.7-5.5-8.2-5.5-13.7s1.8-10.1,5.5-13.7,8.2-5.5,13.7-5.5h0Z"/>
    <path class="st0" d="M1218.1,191c3.6,0,6.6,1.2,9.2,3.7v-3h5.5v27.6h-5.5v-3c-2.5,2.4-5.6,3.7-9.2,3.7s-7.1-1.4-9.7-4.1c-2.6-2.7-3.9-6.2-3.9-10.3s1.3-7.6,3.9-10.3c2.6-2.8,5.8-4.1,9.7-4.1h0ZM1218.7,196.5c-2.4,0-4.4.9-6,2.6-1.6,1.7-2.4,3.8-2.4,6.4s.8,4.7,2.4,6.4c1.7,1.7,3.7,2.5,6,2.5s4.4-.9,6-2.5c1.6-1.7,2.4-3.9,2.4-6.4s-.8-4.7-2.4-6.4c-1.6-1.7-3.6-2.6-6-2.6Z"/>
    <path class="st0" d="M1244.9,231.1h-5.5v-39.5h5.5v3c2.5-2.4,5.6-3.7,9.2-3.7s7.1,1.4,9.7,4.1c2.6,2.7,3.9,6.2,3.9,10.3s-1.3,7.6-3.9,10.3c-2.6,2.8-5.8,4.1-9.7,4.1s-6.6-1.2-9.2-3.7v14.9h0ZM1253.4,196.5c-2.4,0-4.4.9-6,2.6-1.6,1.7-2.4,3.8-2.4,6.4s.8,4.7,2.4,6.4c1.6,1.7,3.6,2.5,6,2.5s4.4-.9,6-2.5c1.6-1.7,2.4-3.9,2.4-6.4s-.8-4.7-2.4-6.4c-1.6-1.7-3.6-2.6-6-2.6Z"/>
    <path class="st0" d="M1273.1,187.6c-.7-.7-1-1.6-1-2.6s.3-1.9,1-2.6c.7-.7,1.6-1.1,2.6-1.1s1.9.4,2.6,1.1c.7.7,1.1,1.6,1.1,2.6s-.3,1.9-1.1,2.6c-.7.7-1.6,1.1-2.6,1.1s-1.9-.4-2.6-1.1ZM1278.5,219.2h-5.5v-27.6h5.5v27.6Z"/>
    <path class="st0" d="M1282.4,196.5v-4.8h4.2v-5.5h5.5v5.5h7.3v4.8h-7.3v13.6c0,1.1.3,2,1.1,2.8.7.7,1.6,1.1,2.7,1.1h3.6v5.3h-4c-2.5,0-4.6-.8-6.2-2.4-1.7-1.7-2.5-3.7-2.5-6v-14.3h-4.2Z"/>
    <path class="st0" d="M1316.5,191c3.6,0,6.6,1.2,9.2,3.7v-3h5.5v27.6h-5.5v-3c-2.5,2.4-5.6,3.7-9.2,3.7s-7.1-1.4-9.7-4.1c-2.6-2.7-3.9-6.2-3.9-10.3s1.3-7.6,3.9-10.3c2.6-2.8,5.8-4.1,9.7-4.1h0ZM1317.1,196.5c-2.4,0-4.4.9-6,2.6-1.6,1.7-2.4,3.8-2.4,6.4s.8,4.7,2.4,6.4c1.7,1.7,3.7,2.5,6,2.5s4.4-.9,6-2.5c1.6-1.7,2.4-3.9,2.4-6.4s-.8-4.7-2.4-6.4c-1.6-1.7-3.6-2.6-6-2.6Z"/>
    <path class="st0" d="M1343.2,219.2h-5.5v-39.8h5.5v39.8Z"/>
    <path class="st0" d="M1349.7,218.9c-.7-.7-1-1.6-1-2.6s.3-1.9,1-2.6c.7-.7,1.6-1.1,2.7-1.1s1.9.4,2.7,1.1c.7.7,1.1,1.6,1.1,2.6s-.3,1.9-1.1,2.6c-.7.7-1.6,1-2.7,1s-1.9-.3-2.7-1Z"/>
  </g>
</svg>