<?xml version="1.0" encoding="UTF-8"?>
<svg id="Capa_2" xmlns="http://www.w3.org/2000/svg" version="1.1" viewBox="0 0 675.3 274">
  <!-- Generator: Adobe Illustrator 29.7.1, SVG Export Plug-In . SVG Version: 2.1.1 Build 8)  -->
  <defs>
    <style>
      .st0 {
        fill: #007638;
      }

      .st1 {
        fill: #ffd549;
      }

      .st2 {
        isolation: isolate;
      }

      .st3 {
        fill: #fffceb;
      }

      .st4 {
        fill: #ea5a17;
      }
    </style>
  </defs>
  <path class="st0" d="M40.2,0h605.1v233.8c0,22.2-18,40.2-40.2,40.2H40.2c-22.2,0-40.2-18-40.2-40.2V40.2C0,18,18,0,40.2,0Z"/>
  <path class="st4" d="M468.5,11.4h176.2c16.9,0,30.6,13.7,30.6,30.6v105.2c0,16.9-13.7,30.6-30.6,30.6h-265v-77.6c0-49,39.8-88.8,88.8-88.8Z" transform="translate(1055 189.2) rotate(180)"/>
  <g>
    <path class="st1" d="M392.2,102.9l1.2-11.5c-3.3,0-6.6,0-10,0-5.4.1-13.1.9-18.3.2-1.7-.2-3.7-1.9-4.3-3.5-1.2-3.1,1.6-6.6,4.8-6.7h28.9c0,0,1.3-11.3,1.3-11.3-3.6-.1-7.3-.3-11-.2-3.9,0-12.1,1.2-15.2-.9-4.2-2.9-1.5-8.8,3.2-9.1h24.2c.3-.4.6-5.6.8-6.6.8-3.9,3.5-7.3,7.6-7.7h80.8c4,1.6,7.2,5.4,6.7,10l-1.4,10.4.3.5h22.1c2.6,0,5.7,2.3,7.3,4.3,6.6,7.9,12.5,21.4,20.1,27.9,3.9,3.3,10.4,5.3,10.1,11.2-.4,8.7-2.8,18.2-3.3,27.1-.4,1.8-4.2,4.5-5.9,4.5h-5.9v-4.9c0-5.7-5.8-12.4-10.6-15-15.6-8.4-34.8,3.6-38.3,19.9h-44.4v-4.2c0-4.9-4.2-11-8.1-13.8-13.8-10.4-32.4-2.2-38.9,12.5-.4.9-1.6,4.7-1.9,5.1-1.1,1.1-4.7-.9-5.3-2-.4-.8-.4-1.9-.5-2.7.1-7.7,1.7-15.3,2.3-23h-19.4c-.6,0-2.3-1.5-2.8-2-2-2.6-.9-6.3,2-7.6,2-.9,7.7-.5,10.2-.5h11.5v-.2ZM463.7,60.8c-1.5,0-3,.6-4,1.6l-20.7,25.7c-1.2,1.4-2.2,1.1-3.4-.1-3-2.9-8-12-12.1-12.5-4.7-.6-8.4,5-5.7,9,5.1,5.5,9.5,12.5,14.8,17.9,3.2,3.2,6.5,3.5,9.7.1l26.5-33c2-3.7-.6-8.7-5-8.7h0ZM495.4,77.6l-2.8,20c0,2.5,4.5,1.3,5.9,1.3,8.7-.2,17.5.4,26.1-.3,1.2-.5,1.4-1.2.9-2.4l-12.6-18.3c-1.2-1-7.9-.7-9.8-.6-2.5.2-5.3-.4-7.8.2h0Z"/>
    <path class="st1" d="M419.3,125.1c17.5-1.3,23.1,18.3,12.7,30.6-12.5,14.8-37.1,5.5-31.3-14.9,2.4-8.5,9.6-15,18.5-15.6h0ZM418.5,137.6c-8.6,1.2-10.3,14.1.4,12.7,4.7-.6,8.3-6.5,5-10.5-1.2-1.5-3.6-2.5-5.4-2.2h0Z"/>
    <path class="st1" d="M513.7,125.1c15.8-.6,21.5,15.2,13.8,27.6-11.5,18.6-40,9.8-33-12.6,2.6-8.3,10.3-14.6,19.1-15h0ZM511.9,137.8c-9.3,1.2-8.4,15.3,1.5,12.3,8-2.4,7.3-13.5-1.5-12.3Z"/>
    <path class="st1" d="M392.2,102.9h-11.5,11.5Z"/>
    <path class="st1" d="M503.2,77.3s-.4.2-.9.3c-2.3,0-4.6-.1-6.9,0,2.5-.6,5.2-.1,7.8-.2h0Z"/>
  </g>
  <g>
    <g class="st2">
      <path class="st3" d="M51.6,40.6h43.3v11.4h-30.9v11.8h26.2v11.3h-26.2v12.4h31.3v11.3h-43.7v-58.3h0Z"/>
      <path class="st3" d="M113.9,98.9h-11.8v-58.3h11l29,37.1v-37.1h11.8v58.3h-10.9l-29.1-37.1v37.1Z"/>
      <path class="st3" d="M193.3,98.9h-10.1l-24.3-58.3h12.9l16.5,40.6,16.4-40.6h12.9l-24.3,58.3h0Z"/>
      <path class="st3" d="M234.9,98.9h-12.3v-58.3h12.3v58.3Z"/>
      <path class="st3" d="M250.8,91.3c-5.8-5.8-8.7-13-8.7-21.5s2.9-15.7,8.7-21.5c5.9-5.8,13.2-8.7,21.8-8.7s15.9,2.9,21.8,8.7c5.8,5.8,8.7,13,8.7,21.5s-2.9,15.7-8.7,21.5-13,8.6-21.8,8.6-16-2.9-21.8-8.6ZM255,69.7c0,5.2,1.7,9.6,5,13.1s7.6,5.3,12.7,5.3,9.3-1.8,12.6-5.3c3.4-3.6,5.1-7.9,5.1-13.1s-1.7-9.5-5.1-13c-3.3-3.5-7.5-5.3-12.6-5.3s-9.4,1.8-12.7,5.3-5,7.9-5,13Z"/>
    </g>
    <g class="st2">
      <path class="st3" d="M50.2,147.6c0-8.6,3-15.8,8.9-21.6,5.9-5.8,13.3-8.6,22.1-8.6s11.5,1.5,16.5,4.4c5,3,8.7,7,11.2,12.1l-11.9,4.4c-1.5-2.8-3.7-5-6.5-6.6s-5.9-2.4-9.3-2.4c-5.2,0-9.5,1.8-12.9,5.3-3.5,3.5-5.2,7.9-5.2,13s1.6,9.6,4.9,13.1,7.5,5.3,12.4,5.3,7.1-1,10.1-3.1c3-2,5-4.8,6.1-8.2h-17.7v-10.5h31.7c0,.3,0,.8.1,1.6s.1,1.3.1,1.5c-.1,8.8-3,16.1-8.7,21.8-5.8,5.8-13,8.7-21.6,8.7s-15.9-2.9-21.7-8.6c-5.8-5.8-8.7-13-8.7-21.5h.1Z"/>
      <path class="st3" d="M118.1,118.4h27.1c6,0,10.9,1.8,14.8,5.5,4,3.7,6,8.3,6,13.8s-1,7.1-2.9,10.1-4.5,5.3-7.8,6.9l12.9,21.8h-13.7l-11.6-19.6h-12.3v19.6h-12.3v-58.3l-.2.2ZM145.3,129.8h-14.8v16h14.8c2.3,0,4.2-.8,5.7-2.3s2.2-3.4,2.2-5.7-.7-4.2-2.2-5.7-3.4-2.2-5.7-2.2h0Z"/>
    </g>
    <g class="st2">
      <path class="st3" d="M186.7,176.6h-12.9l24.7-58.3h10.1l24.7,58.3h-12.9l-4.2-10.3h-25.3l-4.2,10.3h0ZM211.6,155.2l-8-19.3-8,19.3h16.1,0Z"/>
    </g>
    <g class="st2">
      <path class="st3" d="M249.7,129.8h-18.6v-11.4h49.4v11.4h-18.6v46.9h-12.3v-46.9h0Z"/>
      <path class="st3" d="M299.1,176.6h-12.3v-58.3h12.3v58.3Z"/>
      <path class="st3" d="M348.6,130.9l-12.2,2.9c-.4-1.4-1.4-2.7-3-3.7s-3.5-1.5-5.5-1.5-4,.5-5.5,1.6c-1.5,1-2.2,2.4-2.2,4s1.8,3.7,5.4,5.1c1,.4,3.9,1.3,8.5,2.7,3.6,1,6.6,2.2,8.9,3.6,5.1,2.6,7.7,7.1,8,13.6,0,5.6-2,10.1-6,13.5-4,3.3-9.2,5-15.6,5s-10.8-1.4-15.1-4.1c-4.1-2.8-6.8-6.3-8-10.6l12.3-3c.5,1.8,1.7,3.4,3.7,4.6,2,1.2,4.4,1.8,7.1,1.8s4.9-.6,6.7-1.7c1.8-1.1,2.7-2.5,2.7-4.3.3-1.4-.7-2.9-3.3-4.4-.5-.2-1.2-.6-2.3-1-1.2-.5-2-.7-2.2-.8l-2.4-.8-5.1-1.6-4.6-1.8c-1.8-.7-3.3-1.5-4.5-2.4-4.7-3.5-6.9-7.7-6.5-12.5,0-5.2,1.8-9.5,5.5-12.8s8.5-4.9,14.4-4.9,9.8,1.3,13.6,3.9c3.9,2.5,6.3,5.7,7.3,9.7h-.1Z"/>
    </g>
  </g>
  <g>
    <path class="st1" d="M80.3,233.7h-21.9c.5,1.8,1.5,3.3,2.9,4.4,1.5,1.1,3.2,1.7,5.1,1.7s4.9-1,6.5-2.9l6.4,1.9c-1.3,2.2-3,4-5.3,5.2-2.3,1.3-4.8,1.9-7.5,1.9-4.2,0-7.8-1.4-10.7-4.1-2.8-2.8-4.2-6.3-4.2-10.4s1.4-7.6,4.1-10.4c2.8-2.8,6.2-4.2,10.3-4.2s7.5,1.4,10.3,4.2,4.2,6.2,4.2,10.4,0,1.5-.2,2.4h0ZM58.5,228.5h15.2c-.5-1.7-1.5-3.1-2.9-4.2-1.4-1.1-3-1.6-4.8-1.6s-3.3.5-4.7,1.6-2.3,2.5-2.8,4.2h0Z"/>
    <path class="st1" d="M84.6,245v-27.6h6.6v3.3c2-2.8,4.8-4.1,8.3-4.1s5.7,1,7.7,3.1c2.1,2.1,3.1,4.6,3.1,7.7v17.6h-6.6v-15.7c0-1.8-.6-3.3-1.8-4.5s-2.7-1.8-4.4-1.8-3.3.6-4.5,1.8-1.8,2.7-1.8,4.5v15.7h-6.6Z"/>
    <path class="st1" d="M150.4,200.5c4.7,0,8.8,1.1,12.5,3.4,3.7,2.3,6.5,5.3,8.3,9.1l-9.6,3.6c-1.1-2-2.7-3.6-4.6-4.8s-4.1-1.8-6.5-1.8c-3.6,0-6.6,1.3-9,3.8s-3.6,5.6-3.6,9.4,1.2,6.9,3.6,9.4c2.4,2.5,5.4,3.7,9,3.7s4.6-.6,6.5-1.8c2-1.2,3.5-2.8,4.6-4.8l9.6,3.6c-1.8,3.8-4.5,6.8-8.3,9.2-3.7,2.2-7.8,3.4-12.5,3.4s-11.9-2.2-16.3-6.5c-4.4-4.3-6.5-9.7-6.5-16.2s2.2-11.9,6.5-16.2c4.4-4.3,9.9-6.5,16.3-6.5h0Z"/>
    <path class="st1" d="M178.8,241c-3.3-3.3-4.9-7.3-4.9-12.2s1.6-8.9,4.9-12.1c3.3-3.3,7.4-4.9,12.4-4.9s9.1,1.6,12.3,4.9c3.3,3.2,5,7.3,5,12.1s-1.7,8.8-5,12.2c-3.3,3.2-7.5,4.9-12.3,4.9s-9.1-1.6-12.4-4.9ZM191.2,236.6c2.2,0,4-.8,5.4-2.2,1.5-1.5,2.2-3.4,2.2-5.6s-.8-4-2.2-5.5-3.2-2.3-5.4-2.3-4,.8-5.4,2.2c-1.5,1.5-2.2,3.4-2.2,5.6s.7,4,2.2,5.6c1.5,1.5,3.3,2.2,5.4,2.2ZM187.9,208.6l-2.9-5.1,13.2-8.3,4,7.3-14.2,6.1h0Z"/>
    <path class="st1" d="M222.1,212.6v3.4c2.2-2.8,5.5-4.2,9.9-4.2v10c-.9-.6-2-.9-3.4-.9s-3.4.6-4.7,1.9c-1.2,1.3-1.9,2.9-1.9,4.8v17.5h-9.4v-32.4h9.5Z"/>
    <path class="st1" d="M233.5,228.8c0-4.9,1.5-9,4.4-12.2s6.6-4.9,11-4.9,6.3,1,9,3v-16.5h9.3v46.8h-9.3v-2.2c-2.6,2-5.6,3.1-9,3.1s-8.1-1.6-11-4.9c-2.9-3.3-4.4-7.3-4.4-12.2h0ZM250.5,221c-2,0-3.8.8-5.2,2.2-1.4,1.5-2.1,3.3-2.1,5.5s.7,4.1,2.1,5.6,3.1,2.2,5.2,2.2,3.7-.8,5.1-2.2,2.1-3.4,2.1-5.6-.7-4-2.1-5.5c-1.4-1.5-3.1-2.2-5.1-2.2h0Z"/>
    <path class="st1" d="M276.3,241c-3.3-3.3-4.9-7.3-4.9-12.2s1.6-8.9,4.9-12.1c3.3-3.3,7.4-4.9,12.4-4.9s9.1,1.6,12.3,4.9c3.3,3.2,5,7.3,5,12.1s-1.7,8.8-5,12.2c-3.3,3.2-7.4,4.9-12.3,4.9s-9.1-1.6-12.4-4.9ZM288.7,236.6c2.2,0,3.9-.8,5.4-2.2,1.5-1.5,2.2-3.4,2.2-5.6s-.8-4-2.2-5.5c-1.4-1.5-3.2-2.3-5.4-2.3s-4,.8-5.4,2.2c-1.5,1.5-2.2,3.4-2.2,5.6s.7,4,2.2,5.6c1.5,1.5,3.3,2.2,5.4,2.2Z"/>
    <path class="st1" d="M310.2,245v-46.8h9.4v16.5c2.6-2,5.6-3,8.9-3s8,1.6,11,4.9c2.9,3.3,4.4,7.3,4.4,12.2s-1.5,8.8-4.4,12.2c-2.9,3.2-6.6,4.9-11,4.9s-6.3-1-8.9-3v2.2h-9.4ZM327,221c-2,0-3.8.8-5.2,2.2-1.4,1.5-2.1,3.3-2.1,5.5s.7,4.1,2.1,5.6,3.1,2.2,5.2,2.2,3.7-.8,5.1-2.2,2.1-3.4,2.1-5.6-.7-4-2.1-5.5-3.1-2.2-5.1-2.2h0Z"/>
    <path class="st1" d="M347.1,228.8c0-4.9,1.5-9,4.4-12.2s6.6-4.9,11-4.9,6.3,1,9,3v-2.2h9.3v32.4h-9.3v-2.2c-2.6,2-5.6,3.1-9,3.1s-8.1-1.6-11-4.9c-2.9-3.3-4.4-7.3-4.4-12.2h0ZM364.1,221c-2,0-3.8.8-5.2,2.2-1.4,1.5-2.1,3.3-2.1,5.5s.7,4.1,2.1,5.6,3.1,2.2,5.2,2.2,3.7-.8,5.1-2.2,2.1-3.4,2.1-5.6-.7-4-2.1-5.5-3.1-2.2-5.1-2.2Z"/>
    <path class="st1" d="M417.3,207.2c3.7,0,7.1.9,10.1,2.7s5.3,4.3,7,7.4l-5.8,2.1c-1.2-2-2.7-3.6-4.7-4.7-2-1.1-4.2-1.7-6.6-1.7-3.8,0-6.8,1.3-9.3,3.9-2.5,2.6-3.8,5.8-3.8,9.6s1.2,7,3.8,9.6c2.5,2.6,5.6,3.9,9.3,3.9s4.6-.6,6.6-1.7,3.6-2.7,4.7-4.7l5.8,2.1c-1.6,3.1-3.9,5.6-7,7.4s-6.4,2.7-10.1,2.7c-5.5,0-10.1-1.8-13.7-5.5-3.7-3.7-5.5-8.2-5.5-13.7s1.8-10.1,5.5-13.7,8.2-5.5,13.7-5.5h0v-.2Z"/>
    <path class="st1" d="M451.6,216.8c3.6,0,6.6,1.2,9.2,3.7v-3h5.5v27.6h-5.5v-3c-2.5,2.4-5.6,3.7-9.2,3.7s-7.1-1.4-9.7-4.1c-2.6-2.7-3.9-6.2-3.9-10.3s1.3-7.6,3.9-10.3c2.6-2.8,5.8-4.1,9.7-4.1h0v-.2ZM452.2,222.3c-2.4,0-4.4.9-6,2.6-1.6,1.7-2.4,3.8-2.4,6.4s.8,4.7,2.4,6.4c1.7,1.7,3.7,2.5,6,2.5s4.4-.9,6-2.5c1.6-1.7,2.4-3.9,2.4-6.4s-.8-4.7-2.4-6.4-3.6-2.6-6-2.6Z"/>
    <path class="st1" d="M478.4,256.9h-5.5v-39.5h5.5v3c2.5-2.4,5.6-3.7,9.2-3.7s7.1,1.4,9.7,4.1c2.6,2.7,3.9,6.2,3.9,10.3s-1.3,7.6-3.9,10.3c-2.6,2.8-5.8,4.1-9.7,4.1s-6.6-1.2-9.2-3.7v14.9h0v.2ZM486.9,222.3c-2.4,0-4.4.9-6,2.6-1.6,1.7-2.4,3.8-2.4,6.4s.8,4.7,2.4,6.4,3.6,2.5,6,2.5,4.4-.9,6-2.5c1.6-1.7,2.4-3.9,2.4-6.4s-.8-4.7-2.4-6.4-3.6-2.6-6-2.6Z"/>
    <path class="st1" d="M506.6,213.4c-.7-.7-1-1.6-1-2.6s.3-1.9,1-2.6c.7-.7,1.6-1.1,2.6-1.1s1.9.4,2.6,1.1c.7.7,1.1,1.6,1.1,2.6s-.3,1.9-1.1,2.6c-.7.7-1.6,1.1-2.6,1.1s-1.9-.4-2.6-1.1ZM512,245h-5.5v-27.6h5.5v27.6Z"/>
    <path class="st1" d="M515.9,222.3v-4.8h4.2v-5.5h5.5v5.5h7.3v4.8h-7.3v13.6c0,1.1.3,2,1.1,2.8.7.7,1.6,1.1,2.7,1.1h3.6v5.3h-4c-2.5,0-4.6-.8-6.2-2.4-1.7-1.7-2.5-3.7-2.5-6v-14.3h-4.4Z"/>
    <path class="st1" d="M550,216.8c3.6,0,6.6,1.2,9.2,3.7v-3h5.5v27.6h-5.5v-3c-2.5,2.4-5.6,3.7-9.2,3.7s-7.1-1.4-9.7-4.1c-2.6-2.7-3.9-6.2-3.9-10.3s1.3-7.6,3.9-10.3c2.6-2.8,5.8-4.1,9.7-4.1h0v-.2ZM550.6,222.3c-2.4,0-4.4.9-6,2.6-1.6,1.7-2.4,3.8-2.4,6.4s.8,4.7,2.4,6.4c1.7,1.7,3.7,2.5,6,2.5s4.4-.9,6-2.5c1.6-1.7,2.4-3.9,2.4-6.4s-.8-4.7-2.4-6.4-3.6-2.6-6-2.6Z"/>
    <path class="st1" d="M576.7,245h-5.5v-39.8h5.5v39.8Z"/>
    <path class="st1" d="M583.2,244.7c-.7-.7-1-1.6-1-2.6s.3-1.9,1-2.6c.7-.7,1.6-1.1,2.7-1.1s1.9.4,2.7,1.1c.7.7,1.1,1.6,1.1,2.6s-.3,1.9-1.1,2.6c-.7.7-1.6,1-2.7,1s-1.9-.3-2.7-1Z"/>
  </g>
  <g>
    <g>
      <path class="st3" d="M528.3,25.3h5.4v29h17.8v5h-23.2V25.3h0Z"/>
      <path class="st3" d="M561,59.4h-5.1V22.9h5.1v36.5Z"/>
      <path class="st3" d="M592.1,48.6h-21c.4,2,1.3,3.6,2.9,4.9s3.4,1.9,5.5,1.9,5.1-1,6.7-3.1l4.9,1.5c-1.2,2-2.7,3.5-4.9,4.6-2,1.1-4.3,1.7-6.8,1.7-3.9,0-7.1-1.3-9.7-3.8-2.6-2.5-3.9-5.6-3.9-9.5s1.3-6.9,3.8-9.5c2.5-2.5,5.6-3.8,9.4-3.8s6.9,1.3,9.3,3.8c2.5,2.5,3.8,5.6,3.8,9.5s0,.7,0,1.9h0ZM571.2,44.6h15.9c-.5-1.9-1.4-3.4-2.9-4.6-1.5-1.2-3.2-1.8-5.2-1.8s-3.5.6-4.9,1.8-2.4,2.7-2.8,4.6h0Z"/>
      <path class="st3" d="M608.1,33.4c3.3,0,6.1,1.1,8.4,3.4v-2.7h5.1v24.4c0,3.5-1.3,6.5-3.7,8.9-2.4,2.4-5.4,3.6-8.9,3.6s-5-.7-7.3-2c-2.2-1.3-3.8-3-4.7-5.1l5.1-1.5c.5,1,1.4,1.9,2.7,2.5,1.3.7,2.6,1,4.1,1,2.2,0,4-.7,5.6-2.1,1.5-1.4,2.2-3.1,2.2-5.3v-1.9c-2.4,2.2-5.1,3.4-8.4,3.4s-6.5-1.3-8.9-3.8c-2.4-2.5-3.5-5.6-3.5-9.5s1.2-7,3.5-9.5c2.4-2.5,5.3-3.8,8.9-3.8h0ZM608.6,38.5c-2.2,0-4,.8-5.5,2.4-1.5,1.5-2.2,3.5-2.2,5.8s.8,4.3,2.2,5.9c1.5,1.6,3.4,2.4,5.5,2.4s4.1-.8,5.6-2.4c1.5-1.6,2.2-3.5,2.2-5.9s-.8-4.3-2.2-5.8c-1.5-1.6-3.4-2.4-5.6-2.4Z"/>
      <path class="st3" d="M638.9,33.4c3.3,0,6.1,1.1,8.4,3.4v-2.7h5.1v25.3h-5.1v-2.7c-2.4,2.2-5.1,3.4-8.4,3.4s-6.5-1.3-8.9-3.8c-2.4-2.5-3.5-5.6-3.5-9.5s1.2-7,3.5-9.5c2.4-2.5,5.3-3.8,8.9-3.8h0ZM639.5,38.5c-2.2,0-4,.8-5.5,2.4-1.5,1.5-2.2,3.5-2.2,5.8s.8,4.3,2.2,5.9c1.5,1.6,3.4,2.4,5.5,2.4s4.1-.8,5.6-2.4c1.5-1.6,2.2-3.5,2.2-5.9s-.8-4.3-2.2-5.8c-1.5-1.6-3.4-2.4-5.6-2.4Z"/>
    </g>
    <g>
      <path class="st3" d="M570.6,107.4v-36.5h5v14.9c1.9-2.9,4.7-4.3,8.5-4.3s5.4.9,7.4,2.8,2.9,4.3,2.9,7.1v16h-5v-14.5c0-1.9-.6-3.5-1.9-4.6-1.3-1.3-2.8-1.9-4.8-1.9s-3.7.6-5,1.9c-1.3,1.3-2,2.8-2,4.7v14.5h-5v-.2Z"/>
      <path class="st3" d="M612.5,108c-3.8,0-7-1.3-9.5-3.8-2.5-2.5-3.8-5.6-3.8-9.5s1.3-7,3.8-9.5,5.6-3.8,9.5-3.8,7,1.3,9.5,3.8c2.6,2.5,3.8,5.6,3.8,9.5s-1.3,7-3.8,9.5c-2.5,2.5-5.6,3.8-9.5,3.8ZM612.5,103c2.4,0,4.2-.8,5.7-2.4,1.6-1.6,2.4-3.5,2.4-5.9s-.8-4.3-2.4-5.8c-1.5-1.6-3.4-2.4-5.7-2.4s-4.2.8-5.7,2.4c-1.5,1.6-2.3,3.5-2.3,5.8s.8,4.2,2.3,5.9c1.6,1.6,3.5,2.4,5.7,2.4Z"/>
      <path class="st3" d="M636.2,109.5l1.1-2.7-9.9-24.6h5.2l7.2,18.4,7.5-18.4h5.2l-11.9,29.1c-1,2.4-2.4,4.2-3.9,5.4-1.6,1.1-3.7,1.7-6.2,1.7h-1.1v-4.9h1.1c1.5,0,2.7-.3,3.6-.9s1.6-1.6,2.2-3h0Z"/>
    </g>
  </g>
</svg>